<svg xmlns="http://www.w3.org/2000/svg" xmlns:xlink="http://www.w3.org/1999/xlink" preserveAspectRatio="xMidYMid" width="116.75" height="25.75" viewBox="0 0 116.75 25.75">
  <defs>
    <style>
      .cls-1 {
        fill: #36aeea;
      }

      .cls-1, .cls-2 {
        fill-rule: evenodd;
      }

      .cls-2 {
        fill: #95a5ad;
      }
    </style>
  </defs>
  <g>
    <path d="M58.188,12.222 C57.057,14.049 56.186,17.037 54.823,21.156 C54.649,21.649 52.619,21.243 52.387,20.373 C52.340,20.208 52.298,20.028 52.259,19.839 C47.683,21.686 43.831,19.550 44.116,13.034 C41.186,28.205 34.341,20.663 38.112,6.362 C40.751,7.174 41.390,7.668 41.274,8.045 C39.852,13.295 40.055,18.603 41.099,18.313 C42.463,17.965 44.087,8.712 44.783,6.449 C47.394,7.261 48.032,7.755 47.945,8.132 C45.916,16.648 46.766,21.276 52.137,19.111 C51.707,15.890 52.205,10.436 53.344,6.768 C55.954,7.610 56.622,8.103 56.506,8.451 C55.896,9.901 54.881,14.484 54.620,17.820 C55.664,14.774 58.449,7.349 59.812,7.319 C60.567,7.290 62.249,7.958 62.191,8.277 C59.986,17.530 61.176,22.200 67.876,18.545 L68.137,19.183 C57.173,25.652 58.188,12.744 58.188,12.222 ZM34.944,9.524 C37.148,10.452 36.336,14.049 35.785,15.848 C34.828,18.893 32.681,21.504 29.490,21.359 C28.397,21.311 27.550,20.637 26.963,19.606 C26.945,19.788 26.928,19.951 26.928,19.996 C21.649,22.896 18.313,21.011 18.458,14.600 C18.516,12.454 18.748,10.626 19.183,7.726 C18.110,8.857 13.237,16.457 12.134,13.469 C10.945,10.220 10.220,7.203 9.785,5.347 C9.350,8.132 8.944,10.974 8.392,13.788 C9.698,14.194 9.959,14.571 9.814,15.964 C9.234,15.674 8.654,15.412 8.102,15.209 C7.754,16.689 7.348,18.110 6.855,19.009 C2.997,26.406 -5.270,14.484 4.854,13.411 C5.724,9.350 6.246,5.057 6.652,0.996 C6.710,0.445 10.597,-0.628 10.742,0.532 C11.061,3.142 12.337,9.321 13.063,11.148 C13.353,11.845 19.183,3.839 20.285,0.532 C20.604,-0.483 24.056,1.895 23.940,2.504 C23.940,2.504 21.910,11.903 22.084,16.486 C22.279,21.239 24.255,20.224 26.709,19.106 C25.161,15.624 26.112,9.123 30.157,7.058 C31.840,6.188 33.696,6.130 34.915,7.407 C35.263,7.813 35.582,8.277 35.814,8.857 C28.736,6.043 27.605,19.705 31.347,19.241 C34.015,18.893 35.437,14.513 34.973,12.541 C31.202,12.425 32.971,8.712 34.944,9.524 ZM1.808,19.386 C3.345,19.647 4.303,15.674 4.564,14.600 C-0.658,14.774 0.184,19.125 1.808,19.386 Z" class="cls-1"/>
    <path d="M114.522,17.501 C115.421,24.782 113.449,28.321 106.980,23.650 L107.590,23.099 C111.469,25.785 111.785,23.456 111.356,20.111 C102.291,24.193 103.188,12.714 103.188,12.222 C102.057,14.049 101.186,17.037 99.823,21.156 C99.662,21.611 97.935,21.294 97.487,20.558 C94.379,21.893 92.099,21.463 90.690,19.829 C86.214,22.029 83.313,20.749 82.131,17.472 C81.029,19.851 79.231,21.591 76.852,21.330 C76.215,21.267 75.683,20.940 75.258,20.424 C68.769,23.419 65.754,18.858 66.619,11.671 C66.764,10.365 67.054,8.915 67.431,7.523 C66.561,7.290 66.009,7.116 66.009,7.116 L65.980,6.333 C65.980,6.333 66.648,6.478 67.634,6.623 C68.156,4.767 68.707,3.026 69.142,1.808 C71.782,2.649 72.188,3.665 72.072,4.042 C71.811,5.028 71.550,5.985 71.289,6.942 C72.362,6.971 73.493,6.913 74.480,6.710 L74.538,7.987 C73.406,8.219 72.159,8.219 70.970,8.103 C70.593,9.466 70.274,10.858 70.041,12.338 C69.131,18.423 70.400,21.462 74.829,19.771 C73.083,16.507 74.073,9.117 78.041,7.087 C79.579,6.304 81.232,6.333 82.247,7.668 C82.276,7.726 82.305,7.755 82.334,7.813 C82.451,7.407 82.567,7.029 82.683,6.623 C85.293,7.436 85.931,7.929 85.844,8.306 C83.792,16.920 84.687,21.553 90.225,19.205 C88.642,16.690 88.580,12.209 90.141,7.058 C92.780,7.871 93.390,8.364 93.303,8.712 C91.336,17.076 92.134,21.696 97.252,19.811 C96.634,16.738 97.118,10.718 98.344,6.768 C100.954,7.610 101.622,8.103 101.506,8.451 C100.896,9.901 99.881,14.484 99.620,17.820 C100.664,14.774 103.449,7.349 104.812,7.319 C105.567,7.290 107.249,7.958 107.191,8.277 C105.181,16.712 106.007,21.316 111.242,19.299 C110.989,17.642 110.619,15.826 110.432,14.281 C110.113,11.584 109.997,6.101 113.536,6.594 C114.812,6.768 116.321,7.436 116.640,8.828 C117.394,12.280 114.522,17.356 114.522,17.501 ZM80.275,8.973 C77.635,10.017 76.707,17.385 78.303,18.168 C81.580,19.763 83.002,7.871 80.275,8.973 ZM115.392,9.118 C114.725,8.886 113.565,11.293 114.290,16.254 C116.234,11.642 116.002,9.292 115.392,9.118 ZM93.767,7.407 C89.532,6.275 92.084,0.909 92.084,0.909 C94.695,1.750 95.101,2.765 95.014,3.142 C94.695,4.390 94.115,6.159 93.767,7.407 Z" class="cls-2"/>
  </g>
</svg>
