<svg xmlns="http://www.w3.org/2000/svg" xmlns:xlink="http://www.w3.org/1999/xlink" preserveAspectRatio="xMidYMid" width="32" height="40" viewBox="0 0 32 40">
  <defs>
    <style>
      .cls-1 {
        fill: #404041;
        fill-rule: evenodd;
      }
    </style>
  </defs>
  <path d="M27.077,39.997 L4.923,39.997 C2.204,39.997 0.000,37.760 0.000,34.998 L0.000,4.998 C0.000,2.236 2.204,-0.002 4.923,-0.002 L19.692,-0.002 C21.340,-0.028 21.995,0.034 22.154,0.034 L22.154,-0.002 L32.000,9.999 C32.000,11.835 32.000,12.107 32.000,12.498 L32.000,34.998 C32.000,37.760 29.796,39.997 27.077,39.997 ZM22.154,2.498 C22.154,5.475 22.154,7.498 22.154,7.498 C22.154,8.878 23.256,9.999 24.615,9.999 L29.539,9.999 L22.154,2.498 ZM29.539,12.498 C26.673,12.498 24.615,12.498 24.615,12.498 C21.896,12.498 19.692,10.258 19.692,7.498 C19.692,7.498 19.635,5.492 19.657,2.498 L4.923,2.498 C3.564,2.498 2.462,3.617 2.462,4.998 L2.462,34.998 C2.462,36.378 3.564,37.498 4.923,37.498 L27.077,37.498 C28.436,37.498 29.539,36.378 29.539,34.998 L29.539,12.498 ZM23.385,29.997 L8.615,29.997 C7.936,29.997 7.385,29.438 7.385,28.747 C7.385,28.057 7.936,27.498 8.615,27.498 L23.385,27.498 C24.064,27.498 24.615,28.057 24.615,28.747 C24.615,29.438 24.064,29.997 23.385,29.997 ZM23.385,22.498 L8.615,22.498 C7.936,22.498 7.385,21.938 7.385,21.248 C7.385,20.558 7.936,19.998 8.615,19.998 L23.385,19.998 C24.064,19.998 24.615,20.558 24.615,21.248 C24.615,21.938 24.064,22.498 23.385,22.498 Z" class="cls-1"/>
</svg>
