<svg xmlns="http://www.w3.org/2000/svg" xmlns:xlink="http://www.w3.org/1999/xlink" preserveAspectRatio="xMidYMid" width="38" height="38" viewBox="0 0 38 38">
  <defs>
    <style>
      .cls-1 {
        fill: #404041;
        fill-rule: evenodd;
      }
    </style>
  </defs>
  <path d="M19.000,37.997 C8.507,37.997 -0.000,29.492 -0.000,18.997 C-0.000,8.505 8.507,-0.002 19.000,-0.002 C29.493,-0.002 38.000,8.505 38.000,18.997 C38.000,29.492 29.493,37.997 19.000,37.997 ZM19.000,2.374 C9.818,2.374 2.375,9.816 2.375,18.997 C2.375,28.180 9.818,35.622 19.000,35.622 C28.182,35.622 35.625,28.180 35.625,18.997 C35.625,9.816 28.182,2.374 19.000,2.374 ZM19.548,26.645 C19.487,26.820 19.398,26.985 19.253,27.123 C18.775,27.569 18.023,27.546 17.575,27.067 L12.145,22.060 C11.697,21.581 11.722,20.830 12.200,20.382 C12.679,19.933 13.430,19.957 13.879,20.436 L18.128,24.355 L25.722,11.200 C26.050,10.633 26.776,10.438 27.344,10.767 C27.912,11.093 28.107,11.820 27.779,12.388 L19.548,26.645 Z" class="cls-1"/>
</svg>
