<svg xmlns="http://www.w3.org/2000/svg" xmlns:xlink="http://www.w3.org/1999/xlink" preserveAspectRatio="xMidYMid" width="38" height="38" viewBox="0 0 38 38">
  <defs>
    <style>
      .cls-1 {
        fill: #404041;
        fill-rule: evenodd;
      }
    </style>
  </defs>
  <path d="M33.250,34.435 C33.250,34.435 26.852,36.216 20.178,37.998 C19.378,37.998 18.573,37.998 17.773,37.998 C11.154,36.216 4.750,34.435 4.750,34.435 C2.238,33.619 -0.000,32.309 -0.000,29.684 L-0.000,4.747 C-0.000,2.125 2.127,-0.002 4.750,-0.002 C4.750,-0.002 11.822,1.965 17.773,3.560 C18.557,3.560 19.345,3.590 20.129,3.560 C26.376,1.890 33.250,-0.002 33.250,-0.002 C35.873,-0.002 38.000,2.125 38.000,4.747 L38.000,29.684 C38.000,32.309 35.688,33.803 33.250,34.435 ZM4.750,2.373 C3.438,2.373 2.375,3.437 2.375,4.747 L2.375,29.684 C2.375,30.997 3.401,31.689 4.750,32.061 C4.750,32.061 11.327,33.877 17.812,35.620 L17.812,5.934 L4.750,2.373 ZM35.625,4.747 C35.625,3.437 34.562,2.373 33.250,2.373 L20.187,5.934 L20.187,35.595 C26.786,33.859 33.250,32.061 33.250,32.061 C34.524,31.652 35.625,30.997 35.625,29.684 L35.625,4.747 Z" class="cls-1"/>
</svg>
