<svg xmlns="http://www.w3.org/2000/svg" xmlns:xlink="http://www.w3.org/1999/xlink" preserveAspectRatio="xMidYMid" width="59.031" height="73.84" viewBox="0 0 59.031 73.84">
  <defs>
    <style>
      .cls-1 {
        fill: #000;
        fill-rule: evenodd;
      }
    </style>
  </defs>
  <path d="M29.513,73.849 C13.239,73.849 -0.002,60.722 -0.002,44.583 C-0.002,29.318 24.482,3.756 27.273,0.893 C28.447,-0.311 30.580,-0.311 31.753,0.893 C34.543,3.756 59.028,29.318 59.028,44.583 C59.028,60.722 45.787,73.849 29.513,73.849 ZM29.513,7.538 C21.297,16.363 5.930,34.904 5.930,44.785 C5.930,57.590 16.509,68.010 29.513,68.010 C42.517,68.010 53.096,57.590 53.096,44.785 C53.096,34.894 37.729,16.357 29.513,7.538 ZM30.857,61.510 C20.262,61.035 12.096,52.785 12.610,43.087 C12.991,35.999 18.120,35.126 17.846,40.209 C17.333,49.907 25.499,58.156 36.093,58.629 C38.946,58.758 35.907,61.736 30.857,61.510 Z" class="cls-1"/>
</svg>
