<svg xmlns="http://www.w3.org/2000/svg" xmlns:xlink="http://www.w3.org/1999/xlink" preserveAspectRatio="xMidYMid" width="81" height="81" viewBox="0 0 81 81">
  <defs>
    <style>
      .cls-1 {
        fill: #000;
        fill-rule: evenodd;
      }
    </style>
  </defs>
  <path d="M40.502,81.014 C18.166,81.014 -0.006,62.835 -0.006,40.498 C-0.006,18.168 18.166,-0.005 40.502,-0.005 C62.839,-0.005 81.012,18.168 81.012,40.498 C81.012,62.835 62.839,81.014 40.502,81.014 ZM40.502,6.110 C21.538,6.110 6.110,21.539 6.110,40.498 C6.110,59.463 21.538,74.892 40.502,74.892 C59.468,74.892 74.897,59.463 74.897,40.498 C74.897,21.539 59.468,6.110 40.502,6.110 ZM40.994,57.295 C40.829,57.355 40.647,57.394 40.472,57.394 C40.287,57.394 40.109,57.355 39.937,57.295 C39.276,57.051 23.706,51.015 23.706,38.997 C23.706,34.397 27.819,30.648 32.873,30.648 C35.983,30.648 38.975,32.790 40.644,35.018 C42.280,32.790 44.855,30.648 47.965,30.648 C52.979,30.648 57.055,34.363 57.055,38.931 C57.055,51.167 41.652,57.057 40.994,57.295 Z" class="cls-1"/>
</svg>
