<svg xmlns="http://www.w3.org/2000/svg" xmlns:xlink="http://www.w3.org/1999/xlink" preserveAspectRatio="xMidYMid" width="64.974" height="64.97" viewBox="0 0 64.974 64.97">
  <defs>
    <style>
      .cls-1 {
        fill: #000;
        fill-rule: evenodd;
      }
    </style>
  </defs>
  <path d="M64.151,64.168 C63.086,65.224 61.369,65.213 60.314,64.150 L52.719,56.473 C48.263,60.106 42.746,62.086 36.921,62.084 C30.220,62.084 23.921,59.469 19.183,54.724 C11.454,46.975 -0.012,26.001 -0.012,12.908 C-0.012,8.765 1.106,5.543 3.316,3.331 C5.529,1.111 8.754,-0.016 12.904,-0.016 C25.980,-0.016 46.922,11.486 54.660,19.238 C59.387,23.980 61.994,30.283 61.994,36.982 C61.994,42.730 60.065,48.175 56.533,52.604 L64.172,60.325 C65.230,61.394 65.216,63.110 64.151,64.168 ZM5.415,12.841 C5.415,24.171 16.078,44.145 23.042,51.179 C26.751,54.929 31.680,56.992 36.921,56.992 C41.371,56.994 45.590,55.492 49.035,52.749 L47.617,51.316 L29.960,51.316 C28.431,51.316 27.197,50.184 27.197,48.787 C27.197,47.386 28.431,46.254 29.960,46.254 L42.609,46.254 L31.027,34.548 C30.545,34.878 29.952,35.081 29.301,35.081 L16.385,35.081 C14.801,35.081 13.513,33.922 13.513,32.493 C13.513,31.063 14.801,29.904 16.385,29.904 L26.433,29.904 L5.929,9.180 C5.595,10.193 5.415,11.405 5.415,12.841 ZM56.567,37.115 C56.567,31.800 54.519,26.804 50.801,23.049 C43.845,16.018 24.099,5.246 12.904,5.246 C11.801,5.246 10.852,5.374 10.002,5.579 L21.653,17.354 L21.653,10.831 C21.653,9.288 22.819,8.036 24.255,8.036 C25.692,8.036 26.855,9.288 26.855,10.831 L26.855,21.312 C26.855,21.699 26.781,22.067 26.649,22.402 L37.992,33.867 L37.992,18.686 C37.992,17.180 39.167,15.957 40.621,15.957 C42.074,15.957 43.249,17.180 43.249,18.686 L43.249,37.897 C43.249,38.277 43.174,38.639 43.039,38.967 L52.782,48.814 C55.228,45.434 56.567,41.383 56.567,37.115 Z" class="cls-1"/>
</svg>
