<svg xmlns="http://www.w3.org/2000/svg" xmlns:xlink="http://www.w3.org/1999/xlink" preserveAspectRatio="xMidYMid" width="14" height="16" viewBox="0 0 14 16">
  <defs>
    <style>
      .cls-1 {
        fill: #36aeea;
        fill-rule: evenodd;
      }
    </style>
  </defs>
  <path d="M13.000,5.998 L11.000,5.998 L11.000,3.999 C11.000,1.789 9.209,-0.001 7.000,-0.001 C4.791,-0.001 3.000,1.789 3.000,3.999 L3.000,5.998 L1.000,5.998 C0.447,5.998 -0.000,6.446 -0.000,6.999 L-0.000,14.999 C-0.000,15.551 0.447,15.999 1.000,15.999 L13.000,15.999 C13.552,15.999 14.000,15.551 14.000,14.999 L14.000,6.999 C14.000,6.446 13.552,5.998 13.000,5.998 ZM7.000,11.998 C6.447,11.998 6.000,11.552 6.000,10.999 C6.000,10.446 6.447,9.999 7.000,9.999 C7.552,9.999 8.000,10.446 8.000,10.999 C8.000,11.552 7.552,11.998 7.000,11.998 ZM9.000,5.998 L5.000,5.998 L5.000,3.999 C5.000,2.895 5.894,1.998 7.000,1.998 C8.103,1.998 9.000,2.895 9.000,3.999 L9.000,5.998 Z" class="cls-1"/>
</svg>
