<svg xmlns="http://www.w3.org/2000/svg" xmlns:xlink="http://www.w3.org/1999/xlink" preserveAspectRatio="xMidYMid" width="40" height="40" viewBox="0 0 40 40">
  <defs>
    <style>
      .cls-1 {
        fill: #404041;
        fill-rule: evenodd;
      }
    </style>
  </defs>
  <path d="M38.750,24.998 L31.250,24.998 C30.560,24.998 30.000,24.438 30.000,23.748 C30.000,23.057 30.560,22.498 31.250,22.498 L38.750,22.498 C39.440,22.498 40.000,23.057 40.000,23.748 C40.000,24.438 39.440,24.998 38.750,24.998 ZM38.750,17.497 L28.750,17.497 C28.060,17.497 27.500,16.939 27.500,16.248 C27.500,15.558 28.060,14.997 28.750,14.997 L38.750,14.997 C39.440,14.997 40.000,15.558 40.000,16.248 C40.000,16.939 39.440,17.497 38.750,17.497 ZM38.750,9.999 L28.750,9.999 C28.060,9.999 27.500,9.438 27.500,8.747 C27.500,8.057 28.060,7.498 28.750,7.498 L38.750,7.498 C39.440,7.498 40.000,8.057 40.000,8.747 C40.000,9.438 39.440,9.999 38.750,9.999 ZM27.500,27.497 L27.500,32.498 C27.500,36.639 24.142,39.998 20.000,39.998 L7.500,39.998 C3.358,39.998 -0.000,36.639 -0.000,32.498 L-0.000,27.497 C-0.000,24.215 2.124,21.454 5.062,20.438 C3.461,18.279 2.500,15.513 2.500,12.499 C2.500,5.594 7.537,-0.002 13.750,-0.002 C19.963,-0.002 25.000,5.594 25.000,12.499 C25.000,15.513 24.039,18.279 22.438,20.438 C25.376,21.454 27.500,24.215 27.500,27.497 ZM22.500,12.499 C22.500,6.975 18.582,2.499 13.750,2.499 C8.917,2.499 5.000,6.975 5.000,12.499 C5.000,18.021 8.917,22.498 13.750,22.498 C18.582,22.498 22.500,18.021 22.500,12.499 ZM25.000,28.123 C25.000,25.465 22.983,23.251 20.280,22.663 C18.438,24.128 16.188,24.998 13.750,24.998 C11.312,24.998 9.062,24.128 7.220,22.663 C4.517,23.251 2.500,25.465 2.500,28.123 L2.500,31.873 C2.500,34.980 5.247,37.498 8.636,37.498 L18.864,37.498 C22.253,37.498 25.000,34.980 25.000,31.873 L25.000,28.123 ZM31.250,29.998 L38.750,29.998 C39.440,29.998 40.000,30.557 40.000,31.248 C40.000,31.937 39.440,32.498 38.750,32.498 L31.250,32.498 C30.560,32.498 30.000,31.937 30.000,31.248 C30.000,30.557 30.560,29.998 31.250,29.998 Z" class="cls-1"/>
</svg>
