<?xml version="1.0" standalone="no"?>
<!DOCTYPE svg PUBLIC "-//W3C//DTD SVG 1.1//EN" "http://www.w3.org/Graphics/SVG/1.1/DTD/svg11.dtd" >
<svg xmlns="http://www.w3.org/2000/svg" xmlns:xlink="http://www.w3.org/1999/xlink" version="1.1">
<metadata>
Created by FontForge 20170731 at Mon Jul 14 12:45:58 2014
 By Aleksey,,,
</metadata>
<defs>
<font id="Bringin" horiz-adv-x="433" >
  <font-face 
    font-family="Bringin"
    font-weight="400"
    font-stretch="normal"
    units-per-em="1000"
    panose-1="0 0 0 0 0 0 0 0 0 0"
    ascent="750"
    descent="-250"
    x-height="508"
    cap-height="749"
    bbox="-1123 -453.667 1990 1096.23"
    underline-thickness="50"
    underline-position="-150"
    unicode-range="U+0020-007D"
  />
<missing-glyph horiz-adv-x="300" 
 />
    <glyph glyph-name="B_r" unicode="Br" horiz-adv-x="1077" 
d="M1157 59q-69 -41 -125 -53t-98.5 0t-71.5 46t-43.5 84.5t-15 116t14.5 140.5q-22 -10 -47 -8q-14 -28 -38 -60.5t-56 -60.5q3 -20 -2 -45t-20 -56q-22 -45 -62 -81t-87.5 -57t-98 -25t-92.5 15.5t-71.5 65.5t-35.5 124q-85 42 -133.5 98t-65 117t-4 120.5t49.5 108.5
t95 81.5t133 39.5q110 10 178 -16t92 -79.5t2 -131t-92 -171.5q14 3 42 2t58.5 -8.5t58.5 -23t43 -42.5q24 23 41.5 49.5t25.5 49.5q-18 12 -31 32.5t-18 47.5t0 60t22 70l88 -50q-17 -47 -21 -77.5t0.5 -46.5t15 -18.5t21.5 6t21 26.5t13 44q5 -2 23.5 -7.5t38.5 -14
t34.5 -18t12.5 -18.5q-29 -119 -34 -207t17 -136.5t74 -53t139 42.5zM218 302q7 40 19.5 87t27.5 93t30.5 87t28.5 69q34 -9 54.5 -18.5t31 -18t13.5 -15.5t2 -11q-5 -14 -18.5 -55t-29 -95t-29.5 -115.5t-18 -117.5q72 -14 136.5 1t116.5 45q-14 25 -57 36.5t-123 1.5
q-9 4 -13.5 12t-5 17.5t2 19t7.5 16.5q120 165 111.5 248t-146.5 83q-80 0 -141.5 -25t-101 -64t-56 -88t-6.5 -97t48 -90.5t108 -69.5q1 6 2 15.5l2 19t2 17.5t2 12zM437 36q30 10 57.5 29t49 42.5t34.5 49t13 48.5q-26 -14 -59 -23.5t-68.5 -14t-71 -3.5t-66.5 8
q-1 -39 3.5 -69t17.5 -49t35 -24t55 6z" />
    <glyph glyph-name="y_r" unicode="yr" horiz-adv-x="796" 
d="M206 -208q-34 -34 -69 -39t-62.5 9t-41.5 41t-6.5 58t42 60t105.5 46q5 21 10.5 47t11 54t10 57t7.5 55q-27 -90 -59 -129.5t-61 -37t-52.5 42.5t-33.5 110.5t-4 166t36 208.5q34 -11 55.5 -19.5t34 -15.5t16.5 -12.5t3 -10.5q-19 -68 -28 -135.5t-9.5 -121t6.5 -85.5
t21 -29q9 2 20 21.5t21 50.5t20 70t17.5 81t12.5 83t7 77q0 5 18.5 0.5t41 -12t40.5 -16t18 -12.5q0 -9 -1.5 -28.5t-3.5 -47.5q32 -11 59.5 1t42.5 32q-18 12 -31 32.5t-18 47.5t0 60t22 70l88 -51q-17 -47 -21 -77.5t0.5 -46t15 -18.5t21.5 5.5t21 27t13 44.5
q5 -2 23.5 -8t38.5 -14t34.5 -17.5t12.5 -18.5q-29 -120 -34 -208t17 -136t74 -52.5t139 42.5l9 -23q-104 -61 -178 -58.5t-117 52.5t-54.5 139t10.5 202q-28 -12 -54 -7q-9 -12 -23 -24t-31 -19.5t-38 -9t-44 6.5q-3 -36 -7.5 -84t-11.5 -102t-17.5 -109.5t-25 -106
t-34 -92t-45.5 -67.5zM165 -66q-39 -12 -62.5 -29t-34.5 -34t-11 -31.5t8 -21.5q7 -7 18.5 -5.5t25 14t28.5 38.5t28 69z" />
    <glyph glyph-name="f_r" unicode="fr" horiz-adv-x="837" 
d="M577 393q-27 -12 -54 -7q-6 -85 -29 -159.5t-58 -133t-79.5 -97.5t-93.5 -52q-20 -80 -50 -125.5t-62 -64.5t-63 -15t-52.5 21.5t-30.5 45.5t1.5 57.5t45 57t100.5 43.5q14 55 23 119t17 133q-31 -3 -47 -3.5t-24 5t-12.5 18t-13.5 36.5q11 -6 27 -11q13 -5 31.5 -8.5
t41.5 -4.5q2 19 3 56.5t4.5 81.5t11.5 89t22.5 81t37.5 56.5t58 14.5q31 -5 48.5 -25t23.5 -50t2.5 -67t-14.5 -76t-28 -77t-37 -70q24 5 46 10.5t40 11.5q1 -9 0 -15.5t-6 -8.5q-24 -8 -47 -15t-51 -14q-7 -63 -14.5 -121t-21.5 -122q36 11 66.5 37.5t55 61.5t43.5 76
t32.5 82t21.5 79.5t10 68.5q-21 10 -36 30.5t-22 48.5t-2.5 63t22.5 74l88 -51q-17 -47 -21 -77.5t0.5 -46t15 -18.5t21.5 5.5t21 27t13 44.5q6 -2 24.5 -8t38 -14t34 -17.5t12.5 -18.5q-28 -120 -33.5 -208t17 -136t74.5 -52.5t139 42.5l9 -23q-104 -61 -178.5 -58.5
t-117.5 52.5t-54.5 139t10.5 202zM313 274q30 50 45 103t19 96.5t0 70.5t-11 25q-9 -2 -16 -22t-12.5 -49.5t-10 -64t-7.5 -66.5t-4.5 -57.5t-2.5 -35.5zM141 -80q-34 -11 -56 -25t-34 -29t-15.5 -28.5t-0.5 -23.5q4 -12 15 -15t26 7.5t32.5 37.5t32.5 76z" />
    <glyph glyph-name="v_r" unicode="vr" horiz-adv-x="738" 
d="M95 123q6 22 18.5 55t27.5 71t32 78t34 76t32.5 64t27.5 43q2 1 5 1h5.5t7.5 -1q14 0 27 -6.5t11 -20.5q-4 -32 0 -56.5t12.5 -35.5t20 -7.5t23.5 27.5q-29 28 -36.5 80t23.5 118l88 -50q-17 -47 -21 -77.5t0.5 -46.5t15 -18.5t21.5 6t21 26.5t13 44q6 -2 24.5 -7.5
t38 -14t34 -17.5t12.5 -18q-29 -120 -34 -208t17 -136.5t74 -53t139 42.5l9 -22q-69 -41 -125 -53t-98.5 0t-71.5 46t-43.5 84.5t-15 116t14.5 140.5q-44 -18 -81 4q-22 -37 -42.5 -40.5t-36.5 10.5t-25 38t-8 42q1 3 0 7q-25 -35 -51 -86.5t-50 -111t-44 -124t-33 -124.5
q-3 -6 -15.5 -7t-27 3t-27 12t-16.5 19q-12 37 -17 94t-3.5 122t9 131.5t21.5 120.5q69 -21 92.5 -35t19.5 -23q-7 -19 -15 -55.5t-15 -81.5t-12.5 -93.5t-6.5 -91.5z" />
    <glyph glyph-name="j_r" unicode="jr" horiz-adv-x="767" 
d="M330 500q-28 3 -47 14t-30 27t-16.5 35t-6.5 38q-3 45 12 100q35 -6 57 -14.5t34 -17.5t16 -17t3 -13q-3 -33 -10 -76t-12 -76zM507 393q-28 -12 -54 -7q-9 -12 -22.5 -23.5t-30.5 -19t-37.5 -9.5t-42.5 5q-9 -98 -21.5 -197t-34.5 -196q-20 -80 -50.5 -126t-62.5 -65.5
t-63 -16.5t-53 19.5t-31 44t1.5 56t45 55.5t100.5 43q15 57 25.5 131.5t17.5 149t11 140.5t4 105q24 -5 45.5 -10t38 -10t26 -10t9.5 -10q-1 -9 -2.5 -28.5t-3.5 -47.5q31 -9 57.5 2t41.5 31q-18 12 -31 32.5t-18 47.5t0 60t22 70l88 -50q-17 -47 -21 -77.5t0.5 -46.5
t15 -19t21.5 5.5t21 27t13 44.5q6 -2 24.5 -8t38 -14t34 -17.5t12.5 -18.5q-29 -120 -34 -208t17 -136t74 -52.5t139 42.5l10 -22q-70 -41 -126 -53t-98.5 0t-71.5 46t-43.5 84.5t-15 116t14.5 140.5zM142 -77q-38 -12 -61 -28.5t-34.5 -33t-12 -31t5.5 -22.5t17.5 -7.5
t25.5 12.5t29.5 38.5t29.5 71.5z" />
    <glyph glyph-name="b_r" unicode="br" horiz-adv-x="814" 
d="M252 444q-14 15 -30 7.5t-31.5 -29.5t-29.5 -56t-24 -71t-14.5 -74t-1.5 -67t15.5 -48t35.5 -18q15 0 31.5 22t31.5 55.5t25.5 74.5t14.5 80.5t-1 72.5t-22 51zM554 397q-27 -11 -54 -6q-16 -20 -43.5 -37.5t-63.5 -14.5q2 -54 -12 -110.5t-38.5 -104t-56.5 -80
t-66 -39.5q-54 -11 -92 1t-63.5 40t-39.5 67.5t-19.5 84.5t-4 90.5t6.5 84.5q7 48 19 102t26 106.5t29 100t28 80.5q34 -11 54.5 -22.5t31 -22t13.5 -19t2 -12.5q-14 -52 -30.5 -109.5t-30.5 -117.5q29 38 60 54q38 20 75 6.5t65 -48.5q17 -22 26.5 -48.5t13.5 -55.5
q25 -2 45.5 9.5t32.5 27.5q-18 12 -31 32.5t-18 47.5t0 60t22 70l88 -51q-17 -47 -21 -77.5t0.5 -46t15 -18.5t21.5 5.5t21 27t13 44.5q6 -2 24.5 -8t38 -14t34 -17.5t12.5 -18.5q-29 -120 -34 -208t17 -136t74.5 -53t139.5 42l9 -22q-104 -61 -178.5 -58.5t-117.5 52.5
t-54.5 139t10.5 201z" />
    <glyph glyph-name="k_r" unicode="kr" horiz-adv-x="831" 
d="M321 483q-20 -22 -38 -48q-16 -22 -33.5 -51t-31.5 -61q-3 -33 2 -68.5t16.5 -68t29.5 -60t41 -45.5q29 -23 54 -13t45.5 39t37 71t27.5 84t17.5 78.5t7.5 53.5q-21 10 -36 30.5t-21.5 48.5t-2 63t22.5 74l87 -51q-25 -71 -22 -104.5t17.5 -37.5t32.5 17t23 60
q5 -2 23.5 -8t38 -14t34.5 -17.5t13 -18.5q-29 -120 -34 -208t17 -136.5t74 -53t139 42.5l9 -22q-104 -61 -178 -58.5t-117.5 52.5t-54.5 139t11 201q-26 -11 -55 -6q-1 -13 -4.5 -45.5t-11 -74t-20.5 -86t-33 -82t-47.5 -62.5t-64.5 -26q-40 -2 -69.5 10t-51.5 32
t-37.5 46.5t-25.5 54.5q-12 -34 -24.5 -70.5t-25.5 -76.5q-2 -6 -14.5 -7t-27 3t-27.5 12t-16 19q-13 47 -15 107.5t3.5 127t18 135.5t28.5 133.5t33.5 121t33.5 98.5q34 -11 55 -22.5t31.5 -22t13.5 -19t1 -12.5q-11 -26 -23.5 -69.5t-26 -96t-26 -109.5t-23 -110.5
t-18 -99t-9.5 -74.5q9 26 22.5 63t29.5 77t33.5 80t34.5 71.5t32.5 51t27.5 19.5q19 1 28 0t19 -1z" />
    <glyph glyph-name="u_r" unicode="ur" horiz-adv-x="884" 
d="M624 398q-28 -12 -54 -6q-2 -30 -4.5 -69t-8 -80.5t-15 -81.5t-25.5 -71.5t-40 -51t-59 -18.5q-39 0 -72 18t-56 52t-35 83.5t-9 113.5q-25 -131 -59.5 -199t-68 -83.5t-62.5 16.5t-43.5 101t-10.5 170.5t37 224.5q34 -11 56 -19.5t34 -15.5t16 -12.5t3 -10.5
q-18 -68 -26.5 -133t-8.5 -115.5t7.5 -80t21.5 -25.5q12 3 24 29t24.5 65t24 86t21.5 91t18.5 81t14.5 57q34 -11 55.5 -19.5t34 -15.5t16.5 -12.5t3 -10.5q-35 -149 -34.5 -248.5t47.5 -132.5q33 -24 57.5 -13t41.5 43t28 77t17.5 89t9.5 79.5t4 48.5q-21 10 -36 30t-22 48
t-2.5 63t22.5 75l88 -51q-17 -47 -21 -77.5t0.5 -46.5t15 -18.5t21.5 6t21 26.5t13 44q6 -2 24.5 -7.5t38 -13.5t34 -17.5t12.5 -18.5q-29 -120 -34 -208t17 -136.5t74 -53t139 42.5l10 -22q-104 -61 -178.5 -58.5t-117.5 52t-54.5 138.5t10.5 202z" />
    <glyph glyph-name="e_r" unicode="er" horiz-adv-x="763" 
d="M503 397q-27 -12 -54 -7q-4 -53 -17.5 -114.5t-39.5 -116.5t-67.5 -97t-101.5 -56q-64 -16 -110.5 8t-73.5 70.5t-35 108t4.5 122t45 111t87.5 75.5q41 19 78 19.5t61.5 -15t32.5 -46t-9.5 -73.5t-64.5 -97.5t-131 -117.5q4 -62 28 -93t57.5 -33.5t72 20.5t72.5 69
t59 112.5t31 151.5q-21 10 -36 30t-22 48t-2.5 63t22.5 74l88 -50q-17 -47 -21 -77.5t0.5 -46.5t15 -18.5t21.5 6t21 26.5t13 44q6 -2 24.5 -8t38 -14t34 -17.5t12.5 -18.5q-28 -120 -33.5 -208t17 -136t74.5 -52.5t139 42.5l9 -22q-69 -41 -125.5 -53t-99 0t-71.5 46
t-43.5 84.5t-15 116t14.5 140.5zM110 213q50 46 81.5 82t48 61t19.5 40.5t-3 21.5q-8 8 -29.5 -2t-45.5 -36.5t-44.5 -68.5t-26.5 -98z" />
    <glyph glyph-name="h_r" unicode="hr" horiz-adv-x="867" 
d="M607 393q-28 -12 -54 -6q-2 -31 -6 -71t-10.5 -81.5t-17.5 -81t-28 -70.5t-40.5 -50t-55.5 -20q-50 -1 -83 19.5t-52.5 53t-28.5 71t-12 72.5t-2 58t1 28q-29 -48 -55 -124.5t-61 -183.5q-5 -6 -17.5 -6.5t-26.5 3t-26 11.5t-15 19q-13 47 -15 107.5t3.5 127t18 135.5
t28.5 133.5t33.5 121t33.5 98.5q34 -11 55 -22.5t31.5 -22t13.5 -19t1 -12.5q-11 -26 -23.5 -69.5t-26 -96t-26 -109.5t-23 -110.5t-18 -99t-9.5 -74.5q9 26 22.5 63t29.5 77t33.5 80t34.5 71.5t32.5 51t27.5 19.5q9 0 23.5 -3.5t27.5 -8.5t22 -11t8 -10q-19 -80 -27.5 -146
t-6 -115.5t17 -82t42.5 -45.5q31 -14 54 0.5t39.5 46t27 74t17 84t9.5 76.5t4 51q-21 10 -36 30t-22 48t-2.5 63t22.5 74l88 -50q-17 -47 -21 -77.5t0.5 -46.5t15 -18.5t21.5 6t21 26.5t13 44q6 -2 24.5 -7.5t38 -14t34 -17.5t12.5 -18q-29 -120 -34 -208t17 -136.5
t74.5 -53t139.5 42.5l9 -22q-69 -41 -125.5 -53t-99 0t-71.5 46t-43.5 84.5t-15 116t14.5 140.5z" />
    <glyph glyph-name="r_r" unicode="rr" horiz-adv-x="780" 
d="M138 393q-34 -15 -65.5 -3.5t-50.5 41.5t-21 76.5t24 102.5l88 -51q-17 -47 -21 -77.5t0.5 -46.5t15 -18.5t21.5 6t21 26.5t13 44q6 -2 24.5 -7.5t38 -13.5t34 -17.5t12.5 -18.5q-30 -128 -31.5 -213.5t15.5 -129t45.5 -45.5t57.5 36t53.5 115.5t32.5 194.5
q-20 10 -35.5 30t-22 48.5t-2 63.5t22.5 74l88 -51q-17 -47 -21 -77.5t0.5 -46.5t15 -18.5t21.5 6t21 26.5t13 44q5 -2 23.5 -7.5t38 -13.5t34.5 -17.5t13 -18.5q-29 -120 -34 -208t17 -136.5t74 -53t139 42.5l9 -22q-104 -61 -178 -58.5t-117 52t-54.5 138.5t10.5 202
q-29 -12 -54 -6q-2 -22 -7 -59t-13.5 -79.5t-22 -86t-31.5 -79t-41.5 -59t-53.5 -24.5q-55 -3 -93 27t-58.5 83t-22.5 126t14 157z" />
    <glyph glyph-name="o_r" unicode="or" horiz-adv-x="778" 
d="M339 430q-46 18 -82 11.5t-63 -29t-45 -57.5t-27 -73.5t-9.5 -77.5t7.5 -69t24.5 -48t40.5 -15q34 4 60 31t42.5 62t22.5 72.5t0 63.5q-5 1 -9 1.5t-9 1.5q-40 5 -51 25.5t-4 41t27.5 33t44.5 2.5q23 -10 34.5 -29.5t14.5 -45.5q26 7 45 24t30 31q-18 12 -31 32.5
t-18 47.5t0 60t22 70l88 -50q-17 -47 -21 -77.5t0.5 -46.5t15 -18.5t21.5 6t21 26.5t13 44q5 -2 23.5 -7.5t38 -14t34.5 -17.5t13 -18q-29 -120 -34 -208t17 -136.5t74 -53t139 42.5l9 -22q-69 -41 -125 -53t-98.5 0t-71.5 46t-43.5 84.5t-15 116t14.5 140.5q-28 -12 -55 -6
q-7 -9 -16 -20.5t-22 -21.5t-29.5 -18.5t-37.5 -11.5q-1 -31 -7.5 -61t-13.5 -52q-12 -40 -32 -75t-47.5 -61.5t-62 -41t-75.5 -12.5q-40 2 -67 32.5t-40.5 77t-12.5 103t16.5 110.5t47 99.5t79.5 70.5q44 23 88 22t76 -35q19 -21 31 -49z" />
    <glyph glyph-name="g_r" unicode="gr" horiz-adv-x="835" 
d="M217 428q-23 -9 -40.5 -34.5t-29.5 -58.5t-18.5 -70t-6.5 -69t6.5 -55.5t20.5 -30.5q28 -14 51 7.5t39 60t24.5 86.5t6.5 88t-14.5 63t-38.5 13zM575 393q-28 -12 -54 -6q-9 -12 -22 -23.5t-29.5 -19t-36.5 -10t-42 4.5q-8 -98 -20 -196.5t-34 -194.5q-20 -80 -50.5 -126
t-62.5 -65.5t-63 -17t-53 19.5t-31.5 44t1.5 56t45 55.5t100 42.5q6 26 12 55.5t11 61.5q-28 -37 -65 -57.5t-82 -15.5q-35 4 -58 35.5t-33 79t-7 104t19.5 110t46 97.5t73.5 66q39 20 77 17.5t65 -34.5v16.5t1 15.5q24 -5 45.5 -10.5t37.5 -10.5t25.5 -10t9.5 -10
q-1 -10 -2.5 -37t-4.5 -65q29 -8 55 3.5t41 30.5q-18 12 -31.5 32.5t-18.5 47.5t0 60t22 70l88 -50q-17 -47 -21 -77.5t0.5 -46.5t15 -18.5t21.5 6t21 26.5t13 44q6 -2 24.5 -7.5t38 -14t34 -18t12.5 -18.5q-28 -119 -33.5 -207t17 -136.5t74.5 -53t139 42.5l9 -22
q-70 -41 -126 -53t-98.5 0t-71.5 46t-43.5 84.5t-15 116t14.5 140.5zM214 -76q-38 -12 -61 -28.5t-34.5 -33t-12 -30.5t5.5 -22t17.5 -7.5t25.5 12.5t29.5 38.5t29.5 70.5z" />
    <glyph glyph-name="d_r" unicode="dr" horiz-adv-x="942" 
d="M217 428q-23 -9 -40.5 -34t-29.5 -58t-18.5 -70t-6.5 -69t6.5 -55.5t20.5 -30.5q28 -14 51 7t38.5 59.5t23 86t6 87.5t-14 63.5t-36.5 13.5zM683 393q-29 -12 -54 -6q-2 -25 -5 -62t-10 -78t-19 -81.5t-32 -73t-49 -53.5t-70 -22q-60 -2 -101 30t-61 90
q-14 -31 -33 -57.5t-42 -44.5t-50 -27t-58 -6q-35 3 -58 35t-33 79t-7 103.5t19.5 110t46 97.5t73.5 66q40 20 79.5 17.5t65.5 -37.5q1 -1 1.5 -2t1.5 -2q9 40 19 81t21 78.5t22 71t21 58.5q34 -11 54.5 -22.5t31 -22t13.5 -19t2 -13.5q-20 -75 -44 -160t-39 -170
q-2 -14 -5.5 -42t-5.5 -61t0 -68t11 -62t25.5 -43t45.5 -12q42 6 69 43.5t43.5 88t24.5 105t11 94.5q-21 10 -36 30t-22 48t-2.5 63t22.5 74l88 -50q-17 -47 -21 -77.5t0.5 -46.5t15 -18.5t21.5 6t21 26.5t13 44q6 -2 24.5 -7.5t38 -14t34 -17.5t12.5 -18q-29 -120 -34 -208
t17 -136.5t74 -53t139 42.5l9 -22q-69 -41 -125 -53t-98.5 0t-71.5 46t-43.5 84.5t-15 116t14.5 140.5z" />
    <glyph glyph-name="q_r" unicode="qr" horiz-adv-x="853" 
d="M217 444q-23 -9 -40.5 -34.5t-29.5 -58.5t-18.5 -70t-6.5 -69t6.5 -55.5t20.5 -30.5q27 -13 50 8t39 59.5t24.5 86.5t7 87.5t-14.5 63t-38 13.5zM593 393q-28 -12 -54 -6q-9 -12 -22.5 -23.5t-30.5 -19.5t-37 -10t-43 5q-15 -56 -30 -115t-26 -117q-12 -71 -13.5 -134
t9.5 -110t34.5 -73.5t62.5 -24.5l5 -20q-65 -18 -109.5 1.5t-71.5 65t-37.5 112t-5.5 142.5q-26 -26 -57 -39.5t-68 -9.5q-35 4 -58 35.5t-33 79t-7 104t19.5 110t46 97.5t73.5 66q40 20 79.5 17t65.5 -38q14 -18 23 -43q6 20 12.5 37t11.5 32q34 -11 54.5 -22.5t31 -22
t13.5 -19t2 -13.5q-5 -17 -10 -35t-10 -38q29 -7 54.5 5t39.5 30q-18 12 -31 32.5t-18 47.5t0 60t22 70l88 -50q-17 -47 -21 -77.5t0.5 -46.5t15 -18.5t21.5 6t21 26.5t13 44q6 -2 24.5 -7.5t38 -13.5t34 -17.5t12.5 -18.5q-29 -120 -34 -208t17 -136.5t74.5 -53t139.5 42.5
l9 -22q-70 -41 -126 -53t-98.5 0t-71.5 46t-43.5 84.5t-15 116t14.5 140.5z" />
    <glyph glyph-name="c_r" unicode="cr" horiz-adv-x="776" 
d="M196 55q65 0 110 34.5t74 86t43 112t18 112.5q-21 10 -36 30t-22 48t-2.5 63t22.5 74l88 -50q-17 -47 -21 -77.5t0.5 -46.5t15 -18.5t21.5 6t21 26.5t13 44q6 -2 24.5 -7.5t38 -14t34 -17.5t12.5 -18q-29 -120 -34 -208t17 -136.5t74.5 -53t139.5 42.5l9 -22
q-69 -41 -125.5 -53t-99 0t-71.5 46t-43.5 84.5t-15 116t14.5 140.5q-28 -12 -54 -6q-3 -45 -12.5 -93t-25.5 -93t-40 -85t-58 -68.5t-78.5 -43t-101.5 -9.5q-48 4 -80.5 34t-48.5 75t-16.5 99.5t14.5 108t45.5 100t76.5 75.5q43 26 91.5 26.5t88.5 -21.5l-59 -96
q-38 9 -69.5 -13.5t-52 -61t-29.5 -85.5t-3 -88.5t28 -70t64 -28.5z" />
    <glyph glyph-name="t_r" unicode="tr" horiz-adv-x="735" 
d="M421 386q-4 -50 -15 -108t-30.5 -111t-49 -94.5t-69.5 -58.5q-61 -26 -109 -10t-79.5 62t-44 115.5t-2.5 151.5q4 35 11.5 71t16.5 73q-11 2 -20.5 4.5t-15.5 4.5q-8 2 -13 4l-1 28q7 -1 16 -3q8 -2 18 -3.5t24 -3.5q13 48 26.5 90.5t25.5 74.5q34 -11 54.5 -22t31 -21.5
t13.5 -19t2 -13.5q-7 -26 -14 -51t-14 -49q28 -1 56 1t54 7l2 -44q-29 -6 -60.5 -6.5t-62.5 2.5q-9 -36 -17.5 -72t-13.5 -74q-17 -110 -4.5 -178t58.5 -89q27 -12 52 0t47 40t40.5 67.5t32 82t22 85t11.5 75.5q-21 10 -36 30t-22 48t-2.5 63t22.5 74l88 -50
q-17 -47 -21 -77.5t0.5 -46.5t15 -19t21.5 5.5t21 27t13 44.5q6 -2 24.5 -8t38 -14t34 -17.5t12.5 -18.5q-29 -120 -34 -208t17 -136t74.5 -52.5t139.5 42.5l9 -22q-69 -41 -125.5 -53t-99 0t-71.5 46t-43.5 84.5t-15 116t14.5 140.5q-27 -12 -54 -7z" />
    <glyph glyph-name="m_r" unicode="mr" horiz-adv-x="1082" 
d="M479 484q9 0 23.5 -3.5t27.5 -8.5t22 -11t8 -10q-29 -122 -34 -210.5t18 -136.5q17 -33 40.5 -41.5t53.5 17.5q27 24 47 66.5t33 89t20 90t9 68.5q-20 10 -35.5 30t-22 48t-2 63t22.5 74l88 -50q-17 -47 -21 -77.5t0.5 -46.5t15 -18.5t21.5 6t21 26.5t13 44
q5 -2 23.5 -7.5t38 -14t34.5 -17.5t13 -18q-29 -120 -34 -208t17 -136.5t74 -53t139 42.5l9 -22q-69 -41 -125 -53t-98.5 0t-71.5 46t-43.5 84.5t-15 116t14.5 140.5q-29 -12 -54 -6q-2 -24 -7.5 -61.5t-15 -79.5t-23 -84.5t-32.5 -76.5q-20 -35 -46.5 -54.5t-56 -22.5
t-58.5 10.5t-54 45.5q-25 31 -36.5 73t-15.5 80t-3 66t1 32q-18 -29 -30 -56t-21.5 -53.5t-18 -54.5t-19.5 -59q-5 -14 -10 -27t-11.5 -20t-15.5 -5t-22 17q-27 30 -40 72.5t-17.5 82.5t-3.5 69.5t1 33.5q-29 -48 -55 -124.5t-61 -183.5q-3 -6 -15.5 -7t-26.5 3t-26.5 12
t-15.5 19q-11 37 -13 94t2.5 122t15.5 131.5t28 120.5q67 -21 89.5 -34.5t19.5 -22.5q-8 -19 -18 -56t-19 -82t-17 -93.5t-11 -91.5q9 26 22.5 63t29.5 77t33.5 80t34.5 71.5t32 51t27 19.5q10 0 24 -3.5t27.5 -8.5t22.5 -11t8 -10q-20 -85 -29 -154t-5 -120
q16 45 37.5 98.5t44 99.5t43.5 77.5t36 31.5z" />
    <glyph glyph-name="n_r" unicode="nr" horiz-adv-x="851" 
d="M538 387q-3 -32 -5 -70t-7 -77.5t-13 -77t-22.5 -68.5t-35.5 -52.5t-52 -27.5q-53 -11 -87.5 6t-55.5 49.5t-30.5 73.5t-13 78t-3 63.5t0.5 30.5q-29 -48 -55 -124.5t-61 -183.5q-6 -6 -19 -7t-26.5 3t-24.5 12t-14 19q-11 37 -13.5 94t2 122t15.5 131.5t28 120.5
q68 -21 90.5 -34.5t19.5 -22.5q-8 -19 -18 -56t-19 -82t-17 -93.5t-11 -91.5q9 26 22.5 63t29.5 77t33.5 80t34.5 71.5t32 51t27 19.5q10 0 24 -3.5t27.5 -8.5t22.5 -11t8 -10q-19 -78 -28 -143t-7 -114.5t15.5 -82.5t40.5 -47q30 -16 52 -1.5t37.5 46.5t25.5 75t16 85
t8.5 76.5t3.5 48.5q-20 10 -35.5 30t-22 48t-2 63t22.5 74l88 -50q-17 -47 -21 -77.5t0.5 -46.5t15 -18.5t21.5 6t21 26.5t13 44q5 -2 23.5 -7.5t38 -14t34.5 -17.5t13 -18q-29 -120 -34 -208t17 -136.5t74 -53t139 42.5l9 -22q-69 -41 -125 -53t-98.5 0t-71.5 46
t-43.5 84.5t-15 116t14.5 140.5q-29 -12 -54 -6z" />
    <glyph glyph-name="a_r" unicode="ar" horiz-adv-x="896" 
d="M217 427q-23 -9 -40.5 -34t-29.5 -58t-18.5 -70t-6.5 -69t6.5 -55.5t20.5 -30.5q21 -10 39 -0.5t32.5 32t24.5 54.5t15.5 66t6 67t-4.5 57t-16 36t-29 5zM636 393q-27 -12 -54 -6q-3 -36 -9.5 -83.5t-18.5 -94.5t-29.5 -89t-42.5 -67q-30 -30 -60.5 -33.5t-58 11
t-49 42.5t-33.5 61q-14 -31 -33 -57t-41.5 -44t-49.5 -26.5t-58 -5.5q-35 3 -58 35t-33 79t-7 103.5t19.5 110t46 97.5t73.5 66q40 20 79.5 17.5t65.5 -37.5q1 -2 1.5 -2.5t1.5 -2.5q3 11 6 20.5t6 20.5q34 -11 55.5 -19.5t34 -15.5t16.5 -12.5t3 -10.5q-30 -127 -32.5 -209
t12 -122t40.5 -40t53 36.5t49.5 107t29.5 171.5q-21 10 -36 30t-21.5 48t-2.5 63t23 74l87 -50q-17 -47 -21 -77.5t0.5 -46.5t15 -18.5t21.5 6t21 26.5t13 44q6 -2 24.5 -7.5t38 -13.5t34.5 -17.5t13 -18.5q-29 -120 -34 -208t17 -136.5t74 -53t139 42.5l9 -22
q-69 -41 -125.5 -53t-99 0t-71 46t-43.5 84.5t-15.5 116t14.5 140.5z" />
    <glyph glyph-name="i_r" unicode="ir" horiz-adv-x="671" 
d="M412 394q-22 -112 -11 -201t54.5 -139t117.5 -52.5t178 58.5l-9 22q-87 -47 -139 -42t-74 53t-17 136t34 208q2 9 -13 18.5t-34.5 17.5t-38 14t-23.5 8q-5 -39 -23 -60t-32.5 -17t-17.5 37.5t22 104.5l-87 51q-18 -39 -22.5 -74t2 -63t21.5 -48.5t36 -30.5
q-2 -29 -5.5 -66.5t-10 -77.5t-16.5 -78.5t-25 -68t-36 -47.5t-49 -17q-36 6 -55 36.5t-23.5 81.5t4.5 121.5t30 156.5q1 5 -3 10.5t-16 12.5t-34 15.5t-56 19.5q-32 -104 -38.5 -195t11 -158.5t59 -105.5t106.5 -35q41 1 69.5 21.5t47.5 52.5t30 73t17 83.5t9 83.5t5 74
q27 -4 55 6zM165 482q-27 7 -44 20.5t-26 31t-12 37t-1 38.5q4 45 26 97q34 -11 54 -22.5t30.5 -22t13.5 -19t2 -13.5q-4 -16 -9.5 -35t-11.5 -38.5t-12 -38.5t-10 -35z" />
    <glyph glyph-name="p_r" unicode="pr" horiz-adv-x="837" 
d="M276 439q-14 15 -30 7.5t-31.5 -29.5t-29.5 -56t-24 -71t-14.5 -74t-1.5 -67t15 -48t35 -18q15 0 32 21.5t31.5 55.5t25.5 75t14.5 80.5t-1 72.5t-21.5 51zM577 393q-27 -12 -54 -7q-15 -20 -43 -37.5t-64 -14.5q3 -62 -15.5 -126.5t-49.5 -114.5t-69.5 -77t-77.5 -14
q-33 11 -55 34t-35 54q-10 -62 -16 -120.5t-9 -106.5t-3 -80t3 -41q1 -5 -11 -4t-27.5 6.5t-29.5 15t-16 21.5q-5 27 -5 83.5t5 129t13 154t19 157.5t24 140.5t26 102.5q17 -2 38 -6t38.5 -10t28.5 -12t9 -11t-5 -14.5t-7 -21.5q21 23 44 35q39 20 76 6.5t64 -48.5
q17 -22 27 -48.5t14 -55.5q24 -1 44.5 10t33.5 27q-18 12 -31.5 32.5t-18.5 47.5t0 60t22 70l88 -50q-17 -47 -21 -77.5t0.5 -46.5t15 -18.5t21.5 6t21 26.5t13 44q6 -2 24.5 -8t38 -14t34 -17.5t12.5 -18.5q-28 -120 -33.5 -208t17 -136t74.5 -52.5t139 42.5l9 -22
q-70 -41 -126 -53t-98.5 0t-71.5 46t-43.5 84.5t-15 116t14.5 140.5z" />
    <glyph glyph-name="l_r" unicode="lr" horiz-adv-x="682" 
d="M368 387q-2 -30 -8.5 -71t-17 -85t-26.5 -86.5t-38 -75.5t-50.5 -52.5t-64.5 -16.5q-48 4 -82.5 31.5t-54 74t-24.5 109t6 136.5q7 48 19.5 104.5t27.5 112t30.5 105t29.5 83.5q34 -11 54.5 -22.5t31 -22t13 -19t1.5 -13.5q-9 -37 -21 -80t-24 -88t-23.5 -90t-18.5 -87
q-19 -111 -11.5 -176t30 -89.5t55 -12.5t63 55.5t54 115.5t28.5 167q-21 10 -36 30.5t-22 48.5t-2.5 63t22.5 74l88 -51q-17 -47 -21 -77.5t0.5 -46t15 -18.5t21.5 5.5t21 27t13 44.5q6 -2 24.5 -8t38 -14t34 -17.5t12.5 -18.5q-29 -120 -34 -208t17 -136t74 -52.5t139 42.5
l10 -23q-104 -61 -178.5 -58.5t-117.5 52.5t-54.5 139t10.5 202q-28 -12 -54 -7z" />
    <glyph glyph-name="w_r" unicode="wr" horiz-adv-x="950" 
d="M331 123q5 22 15 55t22.5 71t27.5 78t29.5 76t28.5 64t25 43q2 1 5 1h5t8 -1q13 0 26 -7t12 -20q-4 -32 0 -56.5t12.5 -35.5t20 -7.5t23.5 27.5q-29 28 -36.5 80t23.5 118l88 -50q-17 -47 -21 -77.5t0.5 -46.5t15 -18.5t21.5 6t21 26.5t13 44q6 -2 24.5 -7.5t38 -14
t34 -17.5t12.5 -18q-29 -120 -34 -208t17 -136.5t74 -53t139 42.5l9 -22q-69 -41 -125 -53t-98.5 0t-71.5 46t-43.5 84.5t-15 116t14.5 140.5q-44 -18 -81 4q-23 -38 -43.5 -41t-36 11.5t-24.5 39.5t-7 43q-23 -35 -45.5 -86t-42.5 -110.5t-35.5 -122.5t-24.5 -123
q-4 -6 -16.5 -7t-27 3t-27.5 12t-17 19q-11 27 -18 65t-11.5 82t-5.5 92.5t2 95.5q-17 -38 -33.5 -82t-30.5 -91t-25 -95t-18 -94q-3 -6 -15.5 -7t-27 3t-28 12t-17.5 19q-14 37 -22.5 94t-11 122t1 131.5t14.5 120.5q70 -21 94 -35t21 -23q-6 -19 -11.5 -55.5t-10 -81.5
t-7 -93.5t-0.5 -91.5q7 31 23.5 84t37 109.5t42.5 107.5t39 79q70 -21 94 -35t21 -23q-6 -19 -11.5 -55.5t-10 -81.5t-7 -93.5t-0.5 -91.5z" />
    <glyph glyph-name="C_r" unicode="Cr" horiz-adv-x="945" 
d="M588 409q-15 14 -25 34.5t-13 46t2 56t21 63.5l88 -50q-17 -47 -21 -77.5t0.5 -46.5t15 -18.5t21.5 6t21 26.5t13 44q5 -2 23.5 -7.5t38.5 -14t34.5 -18t12.5 -18.5q-29 -119 -34 -207t17 -136.5t74 -53t139 42.5l9 -22q-69 -41 -125 -53t-98.5 0t-71.5 46t-43.5 84.5
t-15 116t14.5 140.5q-19 -8 -36.5 -8t-33.5 6q-14 -74 -44.5 -142.5t-76.5 -122.5t-107 -89t-136 -42q-62 -6 -109 14.5t-78 60t-47 93t-17.5 114t12 124.5t40.5 122.5t68 108.5t96 84q36 23 73 33t72 8q57 -2 95 -29t55 -64t11.5 -77.5t-35.5 -70t-85 -41t-138 8.5
q64 8 107.5 28t69 44.5t34 51.5t3 49.5t-24.5 36.5t-48 14q-48 -1 -90 -32t-75 -80.5t-55.5 -111.5t-31.5 -125t-3 -121.5t29.5 -101t66 -63.5t106.5 -8q56 11 96.5 45.5t69 82t45 104t24.5 112.5z" />
    <glyph glyph-name="D_r" unicode="Dr" horiz-adv-x="1125" 
d="M412 576q-4 -14 -16.5 -55.5t-27.5 -96t-29 -115t-21 -114.5q31 -9 67 -14q31 -5 70 -7t82 3q17 48 24.5 104.5t2.5 113t-22.5 108t-50 90t-81 60t-114.5 17.5q-72 -5 -125 -31t-84.5 -64.5t-41 -85t3.5 -93t49.5 -88.5t98.5 -70q1 6 2 15.5l2 19t2 18t2 12.5
q7 40 19.5 87t27.5 93t30.5 87t29.5 69q34 -9 54.5 -18.5t31 -18t13 -15.5t1.5 -11zM865 393q-22 -9 -42 -8q-9 -42 -28 -75t-44 -57.5t-55.5 -42t-63.5 -28.5q-33 -66 -86.5 -113.5t-128.5 -63.5q-53 -12 -93 -0.5t-67.5 40t-42.5 70t-18 90.5q-84 42 -130 98.5
t-59.5 117.5t1 121.5t51 109.5t91 81.5t120.5 37.5q92 8 162.5 -14.5t120 -66t79.5 -102.5t40.5 -124.5t2.5 -132.5t-33 -127q25 11 48 27.5t42.5 40t34.5 53.5t24 68q-21 10 -36.5 30t-22 48.5t-2.5 63.5t23 74l87 -50q-17 -47 -21 -77.5t0.5 -46.5t15 -18.5t22 6t21 26.5
t13.5 44q5 -2 23.5 -7.5t38 -14t34.5 -17.5t13 -18q-29 -120 -34 -208t17 -136.5t74 -53t139 42.5l9 -22q-69 -41 -125.5 -53t-99 0t-71 46t-43.5 84.5t-15.5 116t14.5 140.5zM530 159q-20 -3 -47.5 -4.5t-57.5 -1.5t-59.5 2t-51.5 7q-1 -35 3.5 -63t17.5 -45.5t34.5 -22.5
t54.5 6q34 11 60.5 43.5t45.5 78.5z" />
    <glyph glyph-name="E_r" unicode="Er" horiz-adv-x="873" 
d="M613 393q-29 -12 -55 -6q0 -29 -8.5 -74.5t-28.5 -94.5t-52 -95.5t-79 -78.5t-109 -43.5t-142 10.5q-49 13 -80.5 45t-46 73.5t-12 89t21 92.5t52.5 83.5t84 62.5q-43 38 -57.5 81t-7 83.5t34.5 75t66.5 55.5t87.5 25t99 -16q27 -11 46.5 -36t21.5 -52t-18 -49t-72 -27
q21 28 31.5 55.5t7.5 48.5t-21.5 34.5t-55.5 13.5q-36 0 -63.5 -14.5t-43.5 -39t-19 -56.5t10 -67.5t43.5 -72t81.5 -69.5q-42 -3 -79.5 -27t-66.5 -60.5t-46 -80.5t-17.5 -87t19 -81t63.5 -62q27 -14 62 -10t71.5 24t71.5 54.5t61 81t40.5 103t9.5 120.5q-16 13 -27 33.5
t-14.5 47t1.5 57.5t21 66l88 -50q-17 -47 -21 -77.5t0.5 -46.5t15 -18.5t21.5 6t21 26.5t13 44q6 -2 24.5 -7.5t38 -14t34 -17.5t12.5 -18q-29 -120 -34 -208t17 -136.5t74 -53t139 42.5l10 -22q-69 -41 -125.5 -53t-99 0t-71.5 46t-43.5 84.5t-15 116t14.5 140.5z" />
    <glyph glyph-name="G_r" unicode="Gr" horiz-adv-x="989" 
d="M218 68q39 -19 68 -5.5t49 46.5t32.5 78.5t19.5 92t9.5 88t2.5 64.5q24 -5 45.5 -10t38 -10t26 -10t9.5 -10q-5 -95 -16 -192.5t-30 -191.5q33 32 63 79.5t52.5 101.5t35.5 110.5t12 106.5q-16 13 -27 33.5t-14.5 46.5t1.5 57t22 66l87 -50q-17 -47 -21 -77.5t0.5 -46.5
t15 -18.5t21.5 6t21 26.5t13 44q6 -2 24.5 -7.5t38 -14t34 -17.5t12.5 -18q-28 -120 -33.5 -208t17 -136.5t74.5 -53t139 42.5l9 -22q-69 -41 -125.5 -53t-99 0t-71 46t-43.5 84.5t-15.5 116t14.5 140.5q-15 -7 -29.5 -8t-28.5 2q1 -55 -17.5 -116.5t-48.5 -119t-67.5 -106
t-73.5 -77.5q-1 -6 -2 -11.5t-3 -10.5q-20 -80 -50 -126t-62.5 -65.5t-63 -17t-52.5 19.5t-31.5 44t1 56t45 55.5t100.5 42.5q9 38 16.5 79t13.5 85q-14 -24 -32 -47.5t-40 -41.5t-48.5 -28t-57.5 -7q-53 5 -91.5 33.5t-62.5 73t-35 101t-8 117.5t19 122.5t45 115.5
q36 68 79.5 108.5t88 59t87.5 17.5t79 -16q50 -21 74.5 -52.5t27.5 -66t-13.5 -66t-49 -52.5t-79 -26t-102.5 14q41 2 75.5 18t59.5 39.5t40 51t16.5 52.5t-12 43.5t-43.5 23.5q-32 6 -64.5 -9t-60.5 -40.5t-50 -57t-34 -58.5q-14 -34 -25.5 -78t-18 -92t-7 -96t8 -89
t27 -72.5t49.5 -45.5zM337 -78q-43 -14 -67 -32.5t-33.5 -36.5t-7 -32.5t13.5 -18.5q8 -3 19 0.5t24 17.5t26 38.5t25 63.5z" />
    <glyph glyph-name="H_r" unicode="Hr" horiz-adv-x="1005" 
d="M500 180q1 -64 14.5 -95.5t35.5 -41t52 -1.5t64 23q1 1 1.5 -7.5t0.5 -11.5q-69 -38 -124.5 -44.5t-93 17t-56 77t-14.5 136.5q2 20 3 36.5t5 42.5q-7 1 -21 4.5t-31.5 8.5t-36.5 11t-34 12q-5 -20 -14 -62t-19 -88.5t-19.5 -90.5t-14.5 -68q-3 -14 -16.5 -22.5
t-33.5 -12t-43.5 -2.5t-45.5 5q15 48 32.5 106.5t32.5 114t26 100.5t15 65q-68 36 -104.5 78t-50 82.5t-8.5 77.5t22 64q17 28 48.5 44t66.5 18t68 -10.5t54 -40.5q19 -26 26.5 -59t7.5 -72t-5.5 -83.5t-14.5 -95.5q31 -12 60.5 -21t58.5 -16q8 59 19 121.5t21 115.5
t17.5 89.5t8.5 43.5q34 -11 58 -22.5t38 -23t20 -20.5t5 -13q-13 -49 -25 -103q-11 -46 -22.5 -102t-19.5 -112q42 -11 69 -7.5t42.5 14.5t23 27.5t10.5 33.5q-18 12 -31 32.5t-18 47.5t0 60t22 69l88 -50q-17 -47 -21 -77.5t0.5 -46.5t15 -18.5t21.5 6t21 26.5t13 44
q6 -2 24.5 -7.5t38 -14t34 -17.5t12.5 -18q-29 -120 -34 -208t17 -136.5t74.5 -53t139.5 42.5l9 -22q-69 -41 -125.5 -53t-99 0t-71.5 46t-43.5 84.5t-15 116t14.5 140.5q-30 -13 -61 -5q-7 -20 -20 -39.5t-34.5 -33.5t-51.5 -21.5t-70 -3.5q-5 -33 -6.5 -58.5t-1.5 -51.5z
M175 434q15 83 10 137.5t-20.5 86t-37.5 41.5t-43 4q-24 -7 -40.5 -33.5t-12 -64t37 -82t106.5 -89.5z" />
    <glyph glyph-name="I_r" unicode="Ir" horiz-adv-x="792" 
d="M174 180q-1 -58 9.5 -90.5t29.5 -46.5q17 -12 38 3t44 47.5t45 76.5t40.5 89.5t31.5 87t17 68.5q-26 29 -32.5 80t23.5 114l88 -50q-17 -47 -21 -77.5t0.5 -46.5t15 -18.5t21.5 6t21 26.5t13 44q6 -2 24.5 -8t38 -14t34 -17.5t12.5 -18.5q-29 -119 -34 -207t17 -136.5
t74 -53t139 42.5l9 -22q-69 -41 -125 -53t-98.5 0t-71.5 46t-43.5 84.5t-15 116t14.5 140.5q-35 -15 -68 -2q-7 -21 -21 -57t-33.5 -78.5t-43.5 -86.5t-50 -80t-53 -60.5t-53 -27.5q-82 -10 -123.5 48t-32.5 183q2 23 6 54.5t9 60.5q5 33 12 69q-14 -1 -29.5 -1h-31.5
q-2 0 -5 10.5t-6 23.5t-5.5 24t-4.5 12q51 -11 92 -12q19 73 38 132.5t51 110.5q28 32 56 41.5t53 1.5t44.5 -30.5t30 -52t9 -64t-18.5 -67.5t-52 -61.5t-91 -46.5q-15 -67 -26 -135.5t-12 -121.5zM223 483q48 13 76 39t41 55t12.5 56t-9.5 42q-8 12 -22 11.5t-30.5 -21
t-34 -64.5t-33.5 -118z" />
    <glyph glyph-name="J_r" unicode="Jr" horiz-adv-x="870" 
d="M146 -75q7 22 12.5 39.5t10 34.5t9 34.5t9.5 40.5q-17 -11 -37 -29.5t-40.5 -40.5t-38 -47t-29 -49t-14 -46.5t7.5 -40.5q7 -13 20.5 -12.5t28.5 13.5t31 38.5t30 64.5zM610 393q-26 -11 -50.5 -7t-44.5 20q-24 -28 -65 -36.5t-81 -1.5q-16 -90 -34.5 -185t-42.5 -178.5
t-56.5 -148t-75.5 -93.5q-23 -16 -45.5 -20t-42.5 1t-35.5 17.5t-24.5 29.5q-13 29 -10.5 64t16.5 70.5t36 70.5t48 65.5t52 54.5t48 38q9 27 17.5 69t15.5 81.5t12 69.5t5 33q-52 32 -78 75.5t-30 88.5t11 85.5t45 66.5t71.5 31t90.5 -20q19 -10 28 -32t11.5 -51.5t0 -62.5
t-7 -64.5t-9.5 -58.5t-8 -44q4 -4 19 -7.5t34 -4.5t38 2.5t30 13.5q-22 30 -25 77.5t24 106.5l88 -50q-17 -47 -21 -77.5t0.5 -46.5t15 -18.5t21.5 6t21 26.5t13 44q6 -2 24.5 -7.5t38 -14t34 -18t12.5 -18.5q-28 -119 -33.5 -207t17 -136.5t74.5 -53t139 42.5l9 -22
q-69 -41 -125.5 -53t-99 0t-71.5 46t-43.5 84.5t-15 116t14.5 140.5zM260 466q3 17 7.5 42t7 53t3 55.5t-3.5 49t-13 34.5t-25 12q-28 -2 -45 -32t-17 -70t20 -80.5t66 -63.5z" />
    <glyph glyph-name="M_r" unicode="Mr" horiz-adv-x="1303" 
d="M1043 393q-21 -10 -46 -8q-1 -23 -10.5 -64t-25.5 -88t-38.5 -93.5t-51.5 -81t-64 -50t-75 -0.5q-48 18 -72.5 73.5t-22.5 149.5q1 55 7 109t18 128q-10 -9 -29 -35t-43 -56.5t-50 -60.5t-50 -48.5t-43 -20.5t-28 24q-31 84 -50.5 158t-30.5 122q-11 -73 -22.5 -146
t-25.5 -145q33 -11 43 -25.5t5 -50.5q-29 16 -59 27q-9 -39 -19.5 -73.5t-22.5 -58.5q-25 -48 -55.5 -66.5t-60.5 -16t-56.5 22t-43 47.5t-20.5 61.5t11.5 63.5t53 52.5t102.5 29.5q22 105 36.5 213.5t25.5 214.5q0 5 10.5 10.5t25.5 11t33 8.5t33 3.5t26 -4t12 -14.5
q3 -22 8 -53.5t12 -67t15 -72t16 -69.5t15.5 -60t14.5 -43q2 -6 19 11t41.5 48t53 72t55.5 84t48.5 82.5t30.5 68.5q3 9 14 8.5t25.5 -6.5t30 -15.5t28.5 -20t21 -20t7 -14.5q-20 -93 -34 -182q-6 -38 -12 -78.5t-10 -80t-6 -76t-1 -66.5q4 -81 19.5 -109t37 -18t46 49.5
t46 92t36.5 110t18 104.5q-20 11 -34.5 31.5t-20.5 48t-1.5 62t22.5 72.5l87 -50q-17 -47 -21 -77.5t0.5 -46.5t15 -18.5t22 6t21 26.5t13.5 44q5 -2 23.5 -7.5t38 -14t34.5 -17.5t13 -18q-29 -120 -34 -208t17 -136.5t74 -53t139 42.5l9 -22q-69 -41 -125.5 -53t-99 0
t-71 46t-43.5 84.5t-15.5 116t14.5 140.5zM158 232q-45 -2 -73.5 -14t-43.5 -29.5t-19 -38t0.5 -38.5t15.5 -31t25 -15q19 -3 35.5 17.5t28.5 49t20 57t11 42.5z" />
    <glyph glyph-name="P_r" unicode="Pr" horiz-adv-x="1103" 
d="M843 393q-30 -13 -61 -5q-12 -46 -35.5 -85t-55 -67t-68.5 -42.5t-76.5 -11.5t-78.5 26t-74 71q-13 -1 -25.5 -1h-25.5q-8 -34 -14.5 -63.5t-13.5 -52.5q-23 -76 -56 -116.5t-74 -49.5t-88 13t-97 71q1 3 8.5 10t8.5 6q27 -25 48.5 -40t41 -12t38.5 28.5t40 82.5
q11 28 20.5 66t18.5 82q-25 13 -33.5 29t-4 31t19.5 26.5t37 15.5q8 50 14.5 96t11.5 82q5 42 10 79q0 4 8.5 10.5t25.5 11.5t43 8t62 1q-1 -6 -5.5 -34.5t-12 -72t-17 -98t-20.5 -110.5q9 -3 18.5 -10t18 -14t14.5 -12l6 -5q46 17 77.5 51t46.5 76.5t12.5 88.5t-24.5 85.5
t-64 68.5t-106 38q-58 8 -106 -16t-77 -67.5t-35 -100t20 -112.5q-19 4 -32.5 12.5t-22.5 17.5t-13 16.5t-5 11.5q-12 55 9 103.5t63 85.5t99 60t118.5 27.5t121 -13t106.5 -61.5q41 -39 55 -92t2.5 -108.5t-47 -106.5t-92.5 -84q-17 -9 -34.5 -16t-35.5 -12
q50 -57 98.5 -69.5t90 7t72 65t43.5 105.5q-19 12 -32.5 32.5t-18.5 47.5t-0.5 60.5t22.5 70.5l87 -50q-17 -47 -21 -77.5t0.5 -46.5t15 -18.5t21.5 6t21 26.5t13 44q6 -2 24.5 -7.5t38 -14t34.5 -17.5t13 -18q-29 -120 -34 -208t17 -136.5t74 -53t139 42.5l9 -22
q-69 -41 -125.5 -53t-99 0t-71 46t-43.5 84.5t-15.5 116t14.5 140.5zM228 324q3 15 6 29.5t5 29.5q-14 -4 -23 -11.5t-11.5 -16t3 -17t20.5 -14.5zM367 322q-2 2 -2.5 3.5t-2.5 3.5t-3.5 5t-3.5 5q-1 -5 -1.5 -10t-1.5 -10z" />
    <glyph glyph-name="S_r" unicode="Sr" horiz-adv-x="824" 
d="M298 739q-52 -2 -78.5 -28.5t-34 -64t1.5 -79t28 -73.5q18 -30 38.5 -54t41 -47.5t39 -49t32.5 -59.5l2 -6q1 -3 2 -5q42 8 75 39.5t45 80.5q-21 10 -36.5 30t-22.5 48.5t-2.5 63.5t22.5 74l88 -50q-17 -47 -21 -77.5t0.5 -46.5t15 -18.5t21.5 6t21 26.5t13 44
q6 -2 24.5 -7.5t38 -14t34 -18t12.5 -18.5q-29 -119 -34 -207t17 -136.5t74.5 -53t139.5 42.5l9 -22q-69 -41 -125.5 -53t-99 0t-71.5 46t-43.5 84.5t-15 116t14.5 140.5q-23 -9 -43 -8q-16 -50 -53 -88t-93 -42q15 -52 8 -97t-31.5 -79.5t-66 -55.5t-95.5 -24
q-54 -4 -96.5 16t-66 51t-27 68.5t20 68.5t76 50.5t140.5 15.5q-16 23 -38.5 44t-41.5 44q-25 31 -44 65.5t-29.5 71.5t-11 76t12.5 78q10 32 30 55.5t46 38.5t56.5 21.5t62.5 5.5q48 -2 78.5 -25t43.5 -55.5t9 -67t-27 -58t-64.5 -29.5t-101.5 18q47 12 78 31t48.5 40.5
t21.5 42.5t-2.5 37.5t-23.5 26.5t-42 9zM247 251q-69 -1 -111.5 -21t-63 -49t-21.5 -61t14 -56t43 -35.5t66 1.5q30 10 51.5 34t31.5 54.5t8 65.5t-18 67z" />
    <glyph glyph-name="T_r" unicode="Tr" horiz-adv-x="883" 
d="M355 180q1 -83 13.5 -111t30.5 -18.5t39.5 49t41 91.5t35 108.5t22.5 100.5q-18 12 -31 32t-18 47t0 60t22 70l88 -50q-17 -47 -21 -77.5t0.5 -46.5t15 -18.5t21.5 6t21 26.5t13 44q6 -2 24.5 -7.5t38 -14t34 -18t12.5 -18.5q-29 -119 -34 -207t17 -136.5t74 -53
t139 42.5l10 -22q-69 -41 -125.5 -53t-99 0t-71.5 46t-43.5 84.5t-15 116t14.5 140.5q-26 -12 -53 -7q-5 -34 -18 -79t-31.5 -91.5t-41 -89.5t-48.5 -74t-53.5 -45.5t-54.5 -2.5q-46 19 -69.5 77.5t-19.5 150.5q1 30 7.5 70.5t16 83.5t20.5 87t22 82t20.5 66.5t15.5 42.5
q-38 12 -73.5 24.5t-67.5 19t-60.5 4t-51.5 -19.5q-37 -27 -42.5 -66.5t17 -76t72 -63t121.5 -27.5q4 0 -1.5 -10.5t-19 -22.5t-34.5 -20t-48 -3q-44 8 -75.5 31.5t-49.5 55t-22 68.5t8 71t39.5 62.5t72.5 43.5q46 15 93 14t95.5 -10t99.5 -21.5t105 -19.5t112 -4t121 24
q-13 -26 -30.5 -52.5t-43.5 -37.5t-56.5 -13t-62.5 1.5t-63 10.5t-59 14q-3 -12 -10 -41t-16 -68.5t-18 -85.5t-17 -93.5t-12.5 -92t-3.5 -80.5z" />
    <glyph glyph-name="U_r" unicode="Ur" horiz-adv-x="1082" 
d="M823 393q-21 -8 -37 -8q-3 -27 -13.5 -67.5t-26.5 -84t-36.5 -86.5t-44.5 -76.5t-50.5 -53t-53.5 -16.5q-46 5 -75 38t-38 94q-35 -48 -75 -80t-79.5 -45t-75 -7.5t-61 32.5t-39 76t-7.5 123q3 42 11 92.5t19 107.5q-38 8 -65 25.5t-43.5 40.5t-24 49t-7.5 50
q0 48 25.5 85t62.5 56t78 17.5t72 -29t45 -85t-4 -149.5l22 8q8 3 16.5 5t11.5 3q2 1 3 -10t-4.5 -25.5t-20 -27.5t-42.5 -16q-15 -68 -25 -131.5t-11 -117.5q-1 -75 13.5 -108.5t37 -36.5t49.5 19.5t51.5 58.5t43.5 80t25 85q3 20 10.5 59.5t16.5 87.5t19.5 99.5t19 95
t15 73t7.5 35.5q34 -11 57 -22.5t37 -23t19.5 -20.5t4.5 -13q-25 -90 -45 -175q-9 -36 -17 -75.5t-14.5 -78t-11 -74.5t-4.5 -66q0 -51 8 -82t23 -47q11 -12 33.5 6t47.5 62.5t46.5 113t29.5 158.5q-21 9 -37.5 29t-24 48.5t-3.5 64t23 76.5l87 -50q-25 -71 -22 -104.5
t17.5 -38t32.5 16.5t23 60q5 -2 23.5 -7.5t38 -14t34.5 -17.5t13 -18q-29 -120 -34 -208t17 -136.5t74 -53t139 42.5l9 -22q-69 -41 -125.5 -53t-99 0t-71 46t-43 84.5t-15 116t14.5 140.5zM143 494q8 -2 7 -2h1q13 78 9.5 124.5t-16 69t-31 25t-36.5 -9.5
q-20 -14 -34 -41.5t-11 -58.5t28 -60.5t83 -46.5z" />
    <glyph glyph-name="Y_r" unicode="Yr" horiz-adv-x="976" 
d="M215 71q26 -8 48 11t40.5 56.5t33.5 89.5t27 109.5t20.5 115.5t14.5 108.5t9 89t3 56.5q24 -5 45.5 -10t37.5 -10t25.5 -10t9.5 -10q-4 -81 -12.5 -168.5t-20.5 -176t-28 -176t-34 -168.5q66 20 105 67.5t60 107t28 124t9 119.5q-20 11 -34 31.5t-19.5 48t-1.5 61.5
t22 72l88 -50q-17 -47 -21 -77.5t0.5 -46.5t15 -18.5t21.5 6t21 26.5t13 44q6 -2 24.5 -7.5t38 -14t34 -17.5t12.5 -18q-28 -120 -33.5 -208t17 -136.5t74.5 -53t139 42.5l9 -22q-69 -41 -125.5 -53t-99 0t-71.5 46t-43.5 84.5t-15 116t14.5 140.5q-21 -10 -46 -8
q-4 -57 -17 -124.5t-41 -130.5t-73 -113.5t-114 -73.5l-2 -9q-21 -77 -51 -120.5t-62 -61.5t-62.5 -14t-51.5 21t-30 44t2 55.5t45.5 54.5t99.5 42q4 19 10.5 51.5t13 68.5t11.5 70t8 56q-5 -30 -19 -66t-35 -67.5t-48.5 -52t-58.5 -17.5q-52 5 -79.5 37.5t-39 79.5t-10 102
t8 104t14 85.5t8.5 47.5q-46 33 -68.5 71t-27 74.5t6.5 67.5t31 49q25 23 61 33.5t70 9t58.5 -14.5t26.5 -37q1 -22 -2.5 -49.5t-9 -58t-12.5 -62.5t-12 -63q16 -5 30 -9q12 -4 24.5 -7t20.5 -5q-10 -22 -24 -30.5t-27 -10t-22.5 1.5t-11.5 3q-7 -26 -13 -60.5t-10 -71.5
t-5 -73.5t2 -66t10.5 -50t21.5 -24.5zM108 515q0 -1 3.5 18t8 42.5t8.5 43.5t4 21q9 37 4 57t-17.5 25t-30 -3t-32.5 -25q-14 -15 -19.5 -38.5t-0.5 -49t22.5 -49.5t49.5 -42zM304 -78q-38 -12 -61 -28.5t-34.5 -33t-12 -31t6.5 -22.5q6 -8 17.5 -7t25.5 13.5t29 38.5t29 70
z" />
    <glyph glyph-name="t_t" unicode="tt" horiz-adv-x="553" 
d="M633 59q-96 -56 -166 -58t-115 36q-87 -42 -150 -36.5t-102 48t-53.5 116.5t-3.5 169q6 46 16 94t24 97q-24 8 -39.5 14.5t-25.5 11.5q-11 6 -17 11l-1 32q10 -6 23 -12q11 -5 28.5 -12t40.5 -15q9 31 19 60.5t20 58.5q34 -11 54.5 -22.5t31 -22t13.5 -19t2 -13.5
l-10 -36t-10 -37q47 -9 107 -15q14 48 27.5 90.5t24.5 74.5q34 -11 54.5 -22.5t31 -22t13.5 -19t2 -12.5q-7 -26 -13 -48t-13 -47q17 1 37 5q17 3 39 8t45 13l5 -32q-23 -11 -47 -16t-44 -7q-24 -3 -45 -3q-9 -36 -18.5 -78.5t-15.5 -80.5q-13 -88 -8 -150t31 -93.5t75 -30
t123 42.5zM204 495q-13 -46 -23.5 -91t-18.5 -93q-12 -80 -9 -139t23 -92.5t59 -40t98 17.5q-35 44 -47.5 115t-1.5 162q4 34 11 70.5t16 73.5q-31 4 -57.5 8t-49.5 9z" />
    <glyph glyph-name="a_z" unicode="az" horiz-adv-x="834" 
d="M707 -56q-38 -11 -61.5 -26t-35.5 -31t-14.5 -31.5t2.5 -27.5q6 -15 20.5 -20t31 6t32.5 42t25 88zM280 133q-14 -30 -32.5 -56t-41.5 -44t-50 -26.5t-58 -5.5q-35 3 -57.5 35t-32.5 79t-7 103.5t19.5 110t46 97.5t73.5 66q40 20 79 17.5t65 -37.5l4 -5q2 11 5 20.5
t6 20.5q34 -11 56 -19.5t34 -15.5t16 -12.5t3 -10.5q-30 -126 -32.5 -207.5t11.5 -122t40 -41.5t53 34t49.5 103t30.5 166q-23 13 -38.5 36t-21.5 51.5t-1 60t24 62.5l88 -51q-19 -48 -19 -75.5t11 -40t29 -11t35.5 10t31 23t15.5 29.5q6 -2 20 -10t27.5 -18t22 -20t1.5 -15
l-48 -74q-18 -28 -32 -51.5t-12 -25.5q68 -65 101.5 -137t28.5 -166q-6 -50 -26.5 -91.5t-49 -70t-62 -42t-64.5 -7.5q-22 4 -38.5 20.5t-24 39t-4 48.5t21 50.5t50.5 44t85 29.5q-1 50 -22 86.5t-45 60.5t-44 36t-20 14q5 19 20 46t33 56.5t35 59.5t26 55
q-31 -21 -60 -25.5t-53 3.5q-3 -37 -10.5 -82.5t-19.5 -90.5t-29 -84t-41 -63q-30 -30 -60.5 -33.5t-57.5 11t-49 42.5t-34 60zM217 427q-23 -9 -40.5 -34t-29.5 -58t-18.5 -70t-6.5 -69t6.5 -55.5t20.5 -30.5q21 -10 39 -0.5t32 32t24 54.5t15.5 66t6 67t-4.5 57t-16 36
t-28 5z" />
    <glyph glyph-name="b_z" unicode="bz" horiz-adv-x="757" 
d="M631 -56q-37 -10 -60 -24.5t-36 -30t-16 -30.5t1 -27q5 -16 19 -23t31.5 3.5t34 41.5t26.5 90zM390 367q22 -2 41 7t32 23q-17 16 -28 38t-14 48t3 54t23 55l87 -51q-19 -48 -19 -75.5t11 -40t29 -11t36 10t31.5 23t15.5 29.5q5 -2 19 -10t27.5 -18t22 -20t1.5 -15
q-28 -41 -48 -74q-18 -28 -32 -51.5t-12 -25.5q67 -65 101.5 -137.5t28.5 -165.5q-5 -50 -25.5 -91.5t-49.5 -70t-62 -42t-64 -7.5q-22 4 -38.5 20.5t-24 39t-4 48.5t20.5 50.5t50.5 44t85.5 29.5q-2 50 -22.5 86.5t-45 60.5t-44 36t-19.5 14q5 19 20 46t33 56.5t34.5 59.5
t25.5 55q-35 -25 -68.5 -27.5t-59.5 11.5q-17 -17 -41 -30t-55 -10q2 -54 -12 -110.5t-38.5 -104t-56.5 -80t-66 -39.5q-54 -11 -92 1t-63.5 39.5t-39.5 67.5t-19.5 84.5t-4.5 90t7 85.5q7 48 19 102t26 106.5t29 100t28 80.5q34 -11 54.5 -22.5t31 -22t13.5 -19t2 -12.5
q-14 -53 -30.5 -110t-30.5 -117q29 38 60 54q38 20 75 6.5t65 -48.5q17 -22 26.5 -48.5t13.5 -55.5zM252 444q-14 15 -30 7.5t-31.5 -29.5t-29.5 -56t-24 -71t-14.5 -74t-1.5 -67t15.5 -48t35.5 -18q15 0 31.5 21.5t31.5 55.5t25.5 75t14.5 80.5t-1 72.5t-22 51z" />
    <glyph glyph-name="c_z" unicode="cz" horiz-adv-x="714" 
d="M588 -56q-46 -13 -71 -32t-34.5 -38t-6.5 -36t14 -25q9 -8 22.5 -6t28 16t27 43.5t20.5 77.5zM137 493q43 26 91.5 26.5t88.5 -21.5l-59 -96q-38 9 -69.5 -13.5t-52 -61t-29.5 -85.5t-3 -88.5t28 -70t64 -28.5q63 0 107 32t72.5 80.5t43.5 106t20 109.5q-22 13 -37.5 36
t-21.5 51t-0.5 59.5t24.5 62.5l87 -51q-18 -48 -18.5 -75.5t10.5 -40t29 -11t36 10t31.5 23t15.5 29.5q5 -2 19.5 -10t28 -18t21.5 -20t1 -15q-28 -41 -48 -74q-18 -28 -32 -51.5t-12 -25.5q68 -65 102 -137t28 -166q-5 -50 -25.5 -91.5t-49.5 -70t-62 -42t-64 -7.5
q-22 4 -38.5 20.5t-24 39t-4 48.5t20.5 50.5t50.5 44t85.5 29.5q-2 50 -22.5 86.5t-45 60.5t-44 36t-19.5 14q5 19 20 46t33 56.5t35 59.5t26 55q-32 -21 -61 -25.5t-54 3.5q-6 -66 -25.5 -135t-56 -124t-93.5 -87.5t-139 -25.5q-48 4 -80.5 34t-48.5 75t-16.5 99.5
t14.5 108t45.5 100t76.5 75.5z" />
    <glyph glyph-name="d_z" unicode="dz" horiz-adv-x="873" 
d="M217 427q-23 -9 -40.5 -34t-29.5 -58t-18.5 -70t-6.5 -69t6.5 -55.5t20.5 -30.5q28 -14 50.5 7t38.5 59.5t23.5 86t6 87.5t-14 63.5t-36.5 13.5zM746 -56q-49 -14 -74.5 -35t-33.5 -41.5t-2 -37t20 -21.5q10 -4 23 0t25.5 19.5t23.5 43.5t18 72zM862 -40
q-6 -50 -26.5 -91.5t-49 -70t-62 -42t-64.5 -7.5q-22 4 -38.5 20.5t-24 39t-4 48.5t21 50.5t50.5 44t85 29.5q-1 50 -22 86.5t-45 60.5t-44 36t-20 14q5 19 20 46t33 56.5t35 59.5t26 55q-29 -20 -56 -25t-50 1q-2 -28 -5.5 -64.5t-11 -75.5t-20 -77t-32 -68.5t-48 -49.5
t-67.5 -20q-60 -2 -100.5 30t-61.5 90q-14 -31 -32.5 -57.5t-41.5 -44.5t-50.5 -27t-58.5 -6q-35 3 -57.5 35t-32.5 79t-7 103.5t19.5 110t46 97.5t72.5 66q40 20 79.5 17.5t65.5 -37.5l3 -4q9 40 19 80.5t21 78.5t22 71t21 59q34 -11 54.5 -22.5t31 -22t13.5 -19t2 -13.5
q-20 -74 -44 -159.5t-38 -170.5q-3 -14 -6.5 -42t-5 -61t0 -68t10.5 -62t25.5 -43t45.5 -12q40 6 67 40.5t43.5 82t25 100t11.5 93.5q-24 12 -41.5 35t-24.5 52t-2.5 62t24.5 65l88 -51q-19 -48 -19 -75.5t11 -40t29 -11t35.5 10t31 23t15.5 29.5q6 -2 20 -10t27.5 -18
t22 -20t1.5 -15l-48 -74q-18 -28 -32 -51.5t-12 -25.5q68 -65 101.5 -137t28.5 -166z" />
    <glyph glyph-name="e_z" unicode="ez" horiz-adv-x="704" 
d="M578 -56q-45 -13 -70 -31.5t-35 -37.5t-7.5 -35.5t12.5 -25.5q9 -8 23 -7t28.5 15t27.5 43.5t21 78.5zM140 501q41 19 78 19.5t61.5 -15t32.5 -46t-9.5 -73.5t-64.5 -97.5t-131 -117.5q4 -61 27.5 -92t56.5 -34.5t71 18.5t72 66t59 109t33 147q-21 13 -36 36t-20 50.5
t0 59t24 61.5l87 -51q-19 -48 -19 -75.5t11 -40t29 -11t36 10t31.5 23t15.5 29.5q5 -2 19 -10t27.5 -18t22 -20t1.5 -15q-28 -41 -48 -74q-18 -28 -32 -51.5t-12 -25.5q67 -65 101.5 -137.5t28.5 -165.5q-5 -50 -25.5 -91.5t-49.5 -70t-62 -42t-64 -7.5q-22 4 -38.5 20.5
t-24 39t-4 48.5t20.5 50.5t50.5 44t85.5 29.5q-2 50 -22.5 86.5t-45 60.5t-44 36t-19.5 14q5 19 20 46t33 56.5t34.5 59.5t25.5 55q-32 -22 -61.5 -26t-55.5 5q-5 -53 -19 -112t-40.5 -111.5t-67 -91.5t-98.5 -53q-64 -16 -110.5 8t-73.5 70.5t-35 108t4.5 122t45.5 111
t87 75.5zM109 213q52 48 84 84.5t48 62t18 40.5t-5 20q-10 6 -31.5 -5t-45 -38t-43 -68.5t-25.5 -95.5z" />
    <glyph glyph-name="f_z" unicode="fz" horiz-adv-x="777" 
d="M651 -46q-42 -12 -66 -29t-35.5 -34.5t-11.5 -34t8 -26.5q8 -12 22 -14t29.5 10.5t30 43t23.5 84.5zM308 233q-7 -60 -14.5 -117t-20.5 -119q52 17 92.5 63.5t69 105t45 120t21.5 107.5q-22 13 -37 36t-20.5 51t-0.5 59.5t24 61.5l88 -50q-19 -48 -19 -76t10.5 -40
t28.5 -11t36 10t31.5 23.5t15.5 29.5q5 -2 19.5 -10t28 -18t21.5 -20t1 -16q-28 -41 -48 -74q-18 -28 -32 -51.5t-12 -25.5q68 -65 102 -137t28 -166q-5 -50 -25.5 -91.5t-49.5 -70t-62 -42t-64 -7.5q-22 4 -38.5 20.5t-24 39t-4 48.5t20.5 50.5t50.5 44.5t85.5 30
q-1 49 -22 85.5t-45 61t-44 36.5t-20 14q5 18 20 45t33 57t35 60t26 55q-32 -22 -61.5 -26.5t-54.5 4.5q-8 -83 -31 -155.5t-58 -129t-78.5 -94.5t-91.5 -51q-20 -80 -50 -125.5t-62.5 -64.5t-63 -15t-52 21.5t-31 45.5t1.5 57.5t45.5 57t100.5 43.5q14 56 23 119.5
t16 132.5q-31 -3 -46.5 -3.5t-24 5t-13 18t-12.5 36.5q12 -7 27 -11q13 -5 31 -8t41 -4q2 19 3 56t5 81t11.5 89t22.5 81t38 56.5t58 14.5q31 -5 48.5 -26t23.5 -52t1.5 -69t-16 -78t-29.5 -78.5t-39 -70.5q24 5 45.5 10.5t39.5 11.5q1 -9 0.5 -15t-5.5 -8q-23 -8 -45 -15
t-48 -13zM312 277q30 50 45 104.5t19.5 98.5t0.5 72t-11 26q-9 -2 -16 -22.5t-12.5 -50.5t-10 -65.5t-7.5 -68t-5 -58.5t-3 -36zM140 -70q-38 -12 -60.5 -28.5t-34 -33t-12.5 -30.5t5 -22t17.5 -8t26 12t29.5 38.5t29 71.5z" />
    <glyph glyph-name="g_z" unicode="gz" horiz-adv-x="776" 
d="M649 -52q-45 -13 -70 -32t-35 -38t-7 -36t14 -25q10 -8 23.5 -6.5t27.5 16t26.5 44t20.5 77.5zM140 496q38 20 76.5 17.5t65.5 -34.5v32q24 -5 45.5 -10t38 -10t26 -10t9.5 -10q-1 -10 -2.5 -37t-5.5 -65q28 -8 52.5 2t39.5 27q-18 15 -29.5 37.5t-15 49t2 55t22.5 56.5
l88 -51q-19 -48 -19 -75.5t11 -40t29 -11t35.5 10t31 23t15.5 29.5q6 -2 20 -10t27.5 -18t22 -20t1.5 -15q-28 -41 -48 -74q-18 -28 -32 -51.5t-12 -25.5q68 -65 101.5 -137t28.5 -166q-6 -50 -26.5 -91.5t-49 -70t-61.5 -42t-64 -7.5q-22 4 -38.5 20.5t-24 39t-4.5 48.5
t20.5 50.5t50.5 44t85 29.5q-1 50 -22 86.5t-45 60.5t-44 36t-20 14q5 19 20.5 46t33.5 56.5t34.5 59.5t25.5 55q-34 -23 -65.5 -26.5t-57.5 8.5q-20 -21 -51 -35.5t-71 -3.5q-8 -98 -20.5 -196t-34.5 -194q-20 -81 -50 -126.5t-62 -64.5t-63 -15.5t-52.5 21.5t-30.5 45.5
t1.5 57.5t45 57t100.5 43q7 25 11.5 50.5t9.5 57.5q-28 -37 -65 -57.5t-82 -15.5q-35 3 -58 35t-33 79t-7 103.5t19.5 110t46 97.5t73.5 66zM149 114q21 -10 39.5 -0.5t33 32.5t25 55t16.5 66t7 67t-4.5 57t-17.5 36t-31 4q-23 -9 -40.5 -34t-29.5 -58t-18.5 -70t-6.5 -69
t6.5 -55.5t20.5 -30.5zM214 -72q-37 -12 -59.5 -27.5t-34 -31.5t-13.5 -30t3 -23q6 -9 17.5 -10t26 10.5t30.5 38.5t30 73z" />
    <glyph glyph-name="h_z" unicode="hz" horiz-adv-x="799" 
d="M672 -56q-52 -15 -77.5 -37t-32.5 -43.5t1.5 -38t24.5 -18.5q10 -2 22 4.5t23.5 22t22 42.5t16.5 68zM274 484q9 0 23.5 -4t27.5 -9t22 -10.5t8 -9.5q-19 -80 -28 -146t-6.5 -116t17.5 -82.5t43 -45.5q29 -13 51 -0.5t38 40.5t27 66.5t17.5 78.5t10 75.5t5.5 57.5
q-24 12 -41 35t-23.5 52t-2 61.5t24.5 64.5l88 -51q-19 -48 -19 -75.5t11 -40t29 -11t35.5 10t31 23t15.5 29.5q6 -2 20 -10t27.5 -18t22 -20t1.5 -15q-28 -41 -48 -74q-18 -28 -32 -51.5t-12 -25.5q67 -65 101 -137.5t29 -165.5q-6 -50 -26.5 -91.5t-49 -70t-61.5 -42
t-64 -7.5q-22 4 -38.5 20t-24 38.5t-4.5 49t20.5 51t50.5 44t85 29.5q-1 50 -22 86.5t-45 60.5t-44 36t-20 14q5 19 20 46t33 56.5t35 59.5t26 55q-29 -20 -56.5 -25t-51.5 1q-2 -32 -6 -71t-11 -78.5t-18 -76.5t-28 -66.5t-40 -47t-54 -18.5q-50 -2 -83 19t-52.5 53.5
t-28.5 70.5t-12 72t-2 58t1 28q-29 -48 -55 -124t-61 -183q-5 -6 -17.5 -7t-26 2.5t-25.5 11.5t-15 19q-13 47 -15.5 107.5t3.5 127t18.5 136t28 134t33 121t34.5 98.5q34 -11 54.5 -22.5t31.5 -22t14 -19.5t1 -13q-11 -26 -24 -69.5t-26 -95.5t-25.5 -109.5t-23 -110.5
t-18 -98.5t-9.5 -74.5q9 26 22.5 63t29.5 77t33.5 79.5t34.5 71t32.5 51t27.5 20.5z" />
    <glyph glyph-name="i_z" unicode="iz" horiz-adv-x="610" 
d="M165 481q-27 7 -44.5 20.5t-26.5 31t-12 37t-1 38.5q4 45 26 97q34 -11 54.5 -22.5t31 -22t13.5 -19t2 -12.5q-4 -17 -9.5 -36t-11.5 -38.5t-12 -38.5t-10 -35zM469 263q67 -65 101 -137t29 -166q-6 -50 -26.5 -91.5t-49.5 -70t-62 -42t-64 -7.5q-22 4 -38.5 20.5t-24 39
t-4 48.5t20.5 50.5t50.5 44t85.5 29.5q-1 50 -22 86.5t-45 60.5t-44 36t-20 14q5 19 20 46t33 56.5t35 59.5t26 55q-31 -21 -60 -25.5t-54 3.5q-2 -33 -5 -73.5t-9.5 -81.5t-18 -79.5t-30.5 -69t-47 -49.5t-67 -20q-65 -3 -106.5 35t-59 105.5t-11 158.5t38.5 195
q34 -11 55.5 -19.5t34 -15.5t16.5 -12.5t3 -10.5q-21 -87 -30 -157.5t-4.5 -121.5t23 -81.5t54.5 -36.5q27 -1 48 16t36 45t25 64.5t16.5 75t10.5 75.5t6 67q-23 13 -38.5 36t-21.5 51.5t-0.5 60t24.5 62.5l88 -51q-18 -48 -18.5 -75.5t10.5 -40t29 -11t35.5 10t31 23
t15.5 29.5q6 -2 20 -10t27.5 -18t22 -20t1.5 -15l-48 -74q-18 -28 -32 -51.5t-12 -25.5zM387 -189q10 -6 23.5 -3.5t27 17t25.5 43.5t20 76q-47 -13 -72 -32.5t-34.5 -39.5t-5.5 -37t16 -24z" />
    <glyph glyph-name="j_z" unicode="jz" horiz-adv-x="706" 
d="M579 -52q-40 -11 -64 -27t-35.5 -33t-12.5 -33t5 -27q7 -13 21.5 -16.5t30.5 8.5t31 42.5t24 85.5zM330 505q-28 3 -47 14t-30 26.5t-16.5 34.5t-6.5 38q-3 45 12 100q35 -6 57 -14t34 -17t16 -17t3 -13q-3 -34 -10 -76.5t-12 -75.5zM209 486q24 -5 45.5 -10t38 -10
t26 -10t9.5 -10q-1 -8 -2.5 -28t-3.5 -48q28 -8 53 1t41 26q-18 15 -30 37.5t-16 49t2 55.5t23 57l88 -51q-19 -48 -19 -75.5t11 -40t29 -11t35.5 10t31 23t15.5 29.5q5 -2 19.5 -10t28 -18t21.5 -20t1 -15q-28 -41 -48 -74q-18 -28 -32 -51.5t-12 -25.5q68 -65 102 -137
t29 -166q-6 -50 -26.5 -91.5t-49.5 -70t-62 -42t-64 -7.5q-22 4 -38.5 20.5t-24 39t-4 48.5t20.5 50.5t50.5 44t85.5 29.5q-1 50 -22 86.5t-45 60.5t-44 36t-20 14q5 19 20 46t33 56.5t35 59.5t26 55q-34 -23 -65 -26.5t-57 7.5q-10 -11 -23 -20t-29 -15t-34 -7t-38 6
q-4 -46 -9 -96.5t-11.5 -102t-15 -101t-20.5 -93.5q-20 -81 -50.5 -127t-62.5 -65.5t-63 -16.5t-53 20t-31 44t1.5 55.5t45 55.5t100.5 43q15 57 25.5 131.5t17.5 149t11 140.5t4 105zM142 -73q-43 -14 -67 -32.5t-33.5 -37t-7 -33t13.5 -18.5q7 -3 18.5 0.5t24 17.5t26 39
t25.5 64z" />
    <glyph glyph-name="k_z" unicode="kz" horiz-adv-x="770" 
d="M643 -56q-42 -12 -66.5 -29t-35.5 -35t-10.5 -34.5t8.5 -26.5q8 -11 22.5 -12.5t29.5 11.5t29.5 43t22.5 83zM274 484q19 1 28 0t19 -1q-20 -22 -38 -48q-16 -22 -33.5 -51t-31.5 -61q-3 -33 2 -68.5t16.5 -68t29.5 -60.5t41 -46q28 -21 52 -13t44 34t36 65t27.5 79.5
t18.5 77.5t10 59q-23 13 -38 36t-21 51.5t-1 60t24 62.5l88 -51q-19 -48 -19 -75.5t11 -40t29 -11t35.5 10t31 23t15.5 29.5q6 -2 20 -10t27.5 -18t22 -20t1.5 -15l-48 -74q-18 -28 -32 -51.5t-12 -25.5q68 -65 101.5 -137t28.5 -166q-6 -50 -26.5 -91.5t-49 -70t-62 -42
t-64.5 -7.5q-22 4 -38.5 20.5t-24 39t-4 48.5t21 50.5t50.5 44t85 29.5q-1 50 -22 86.5t-45 60.5t-44 36t-20 14q5 19 20 46t33 56.5t35 59.5t26 55q-31 -21 -60 -25.5t-54 3.5q-2 -20 -6 -54t-12.5 -74t-22 -81t-33 -74.5t-45.5 -55.5t-61 -23q-40 -2 -69.5 9.5t-51.5 32
t-37.5 47t-25.5 53.5q-12 -33 -24.5 -69.5t-25.5 -76.5q-2 -6 -14.5 -7t-27 3t-27.5 12t-16 19q-13 47 -15 107.5t3.5 127t18 135.5t28.5 133.5t33.5 121t33.5 98.5q34 -11 55 -22.5t31.5 -22t13.5 -19t1 -12.5q-11 -26 -24 -69.5t-26 -96t-25.5 -109.5t-23 -110.5t-18 -99
t-9.5 -74.5q9 26 22.5 63t29.5 77t33.5 80t34.5 71.5t32.5 51t27.5 19.5z" />
    <glyph glyph-name="l_z" unicode="lz" horiz-adv-x="624" 
d="M497 -55q-42 -12 -66.5 -29.5t-35.5 -35.5t-10.5 -34.5t8.5 -26.5q9 -11 23 -12t29.5 12t29.5 43t22 83zM8 351q7 48 19 104.5t27 112t30.5 105.5t28.5 83q34 -11 54.5 -22.5t31.5 -22t13.5 -19t1.5 -12.5q-10 -38 -22 -81t-24 -88t-22.5 -90t-17.5 -87
q-19 -110 -12 -174.5t29.5 -90t54 -14t62 53.5t54 112.5t29.5 163.5q-21 14 -36 37t-20 50.5t0.5 58.5t23.5 61l88 -50q-18 -49 -18.5 -76.5t10.5 -39.5t29 -11t35.5 10t31 23.5t15.5 29.5q6 -2 20 -10t27.5 -18t22 -20t1.5 -16l-48 -74q-18 -28 -32 -51.5t-12 -25.5
q68 -65 101.5 -137t28.5 -166q-6 -50 -26.5 -91.5t-49 -70t-62 -42t-64.5 -7.5q-22 4 -38.5 20.5t-24 39t-4 48.5t21 50.5t50.5 44.5t85 30q-1 49 -22 85.5t-45 61t-44 36.5t-20 14q5 18 20 45t33 57t35 60t26 55q-32 -23 -62 -27t-56 6q-3 -31 -9.5 -72t-17.5 -83.5
t-27 -83t-38 -71.5t-49.5 -49.5t-61.5 -15.5q-49 4 -83.5 31.5t-54 74t-24 109t6.5 136.5z" />
    <glyph glyph-name="m_z" unicode="mz" horiz-adv-x="1019" 
d="M892 -56q-44 -12 -68.5 -30t-35 -37t-8.5 -35.5t11 -25.5t23 -9.5t28.5 13.5t28 43.5t21.5 80.5zM544 104q17 -34 40.5 -42t53.5 18q25 22 44.5 61.5t32.5 83t20.5 86t10.5 70.5q-23 13 -39 36t-22 51.5t-1 60.5t24 63l88 -51q-18 -48 -18.5 -75.5t10.5 -40t29 -11
t35.5 10t31 23t15.5 29.5q6 -2 20 -10t27.5 -18t22 -20t1.5 -15q-28 -41 -48 -74q-18 -28 -32 -51.5t-12 -25.5q68 -65 101.5 -137t28.5 -166q-6 -50 -26.5 -91.5t-49 -70t-61.5 -42t-64 -7.5q-22 4 -38.5 20t-24 38.5t-4.5 49t20.5 51t50.5 44t85 29.5q-1 50 -22 86.5
t-45 60.5t-44 36t-20 14q5 19 20 46t33 56.5t35 59.5t26 55q-30 -21 -58.5 -26t-53.5 3q-2 -26 -8 -62t-15 -75.5t-22.5 -79t-30.5 -70.5q-20 -35 -46.5 -54.5t-56 -22.5t-58.5 10.5t-54 45.5q-25 31 -36.5 73t-15.5 80t-3 66t1 32q-18 -30 -30 -56.5t-21.5 -53t-18 -54.5
t-19.5 -59q-5 -15 -10 -28t-11.5 -19.5t-15.5 -5t-22 16.5q-27 31 -40 73.5t-17.5 82.5t-3.5 69.5t1 33.5q-29 -48 -55 -124.5t-61 -183.5q-3 -6 -15.5 -7t-26.5 3t-26.5 12t-15.5 19q-11 37 -13 94t2.5 122t15.5 131.5t28 120.5q67 -21 89.5 -34.5t19.5 -22.5
q-8 -19 -18 -56t-19 -82t-17 -93.5t-11 -91.5q9 26 22.5 63t29.5 77t33.5 80t34.5 71.5t32 51t27 19.5q10 0 24 -3.5t27.5 -8.5t22.5 -11t8 -10q-20 -85 -29 -154t-5 -120q16 45 37.5 98.5t44 99.5t43.5 77.5t36 31.5q9 0 23.5 -3.5t27.5 -8.5t22 -11t8 -10
q-29 -122 -34 -210.5t18 -136.5z" />
    <glyph glyph-name="n_z" unicode="nz" horiz-adv-x="788" 
d="M661 -56q-44 -12 -68.5 -30t-35 -37t-8.5 -35.5t11 -25.5t23 -9.5t28.5 13.5t28 43.5t21.5 80.5zM271 484q9 0 23.5 -3.5t27.5 -9t22 -11t8 -9.5q-38 -157 -34.5 -258t56.5 -129q28 -15 49 -3t36 40t25.5 67.5t17 80t9.5 76t5 56.5q-23 13 -39.5 35.5t-22.5 51t-1 60.5
t24 64l88 -51q-18 -48 -18.5 -75.5t10.5 -40t29 -11t35.5 10t31 23t15.5 29.5q6 -2 20 -10t27.5 -18t22 -20t1.5 -16l-48 -74q-18 -28 -32 -51t-12 -25q68 -66 101.5 -138t28.5 -166q-6 -50 -26.5 -91.5t-49 -70t-62 -42t-64.5 -7.5q-22 4 -38.5 20.5t-24 39t-4 49t21 51
t50.5 44t85 29.5q-1 50 -22 86.5t-45 60.5t-44 36t-20 14q5 19 20 46t33 56.5t35 59.5t26 55q-30 -21 -58.5 -26t-52.5 3q-3 -48 -8 -106.5t-18 -111t-38 -92t-70 -48.5q-52 -11 -86.5 6t-55.5 49t-31 73t-13.5 78t-3 63.5t0.5 30.5q-29 -47 -54.5 -123.5t-60.5 -183.5
q-7 -6 -20 -7t-26.5 2.5t-24.5 11.5t-14 19q-11 37 -13 94.5t2.5 122.5t15.5 131.5t28 120.5q67 -21 90 -35t19 -23q-8 -19 -18 -55.5t-19 -81.5t-17 -93.5t-11 -91.5q9 26 22.5 63t29.5 77t33.5 79.5t34.5 71t32.5 51t27.5 20.5z" />
    <glyph glyph-name="o_z" unicode="oz" horiz-adv-x="723" 
d="M597 -68q-39 -11 -63 -26.5t-36 -32t-13.5 -32.5t4.5 -27q7 -14 21 -18t30.5 7.5t32 42t24.5 86.5zM712 -52q-5 -50 -25.5 -91.5t-49.5 -70t-62 -42t-64 -7.5q-22 4 -38.5 20.5t-24 39t-4 48.5t20.5 50.5t50.5 44.5t85.5 30q-2 49 -22.5 85.5t-45 60.5t-44 36t-19.5 14
q5 19 20 46t33 57t34.5 60t25.5 54q-35 -24 -67.5 -27t-58.5 10q-14 -18 -37 -37.5t-61 -25.5q-2 -31 -8.5 -61t-13.5 -52q-12 -40 -32 -75t-47.5 -61.5t-62 -41t-75.5 -12.5q-39 2 -66 32.5t-40.5 77t-13 103t16 110.5t47 99.5t79.5 70.5q44 23 88 22t76 -35q18 -18 31 -49
q-46 18 -82 11.5t-63 -29t-45 -57.5t-27 -73.5t-9.5 -77.5t7.5 -69t24.5 -48t40.5 -15q34 4 60 31t42.5 62t22.5 72.5t0 63.5q-4 1 -8 1.5t-9 1.5q-26 3 -40 14t-17.5 24.5t1.5 28t15.5 24.5t25.5 14t31 -3q24 -10 35 -29.5t14 -45.5q26 6 44 22t29 30q-17 16 -28.5 38
t-14.5 48t3 54.5t23 55.5l87 -50q-19 -49 -19 -76.5t11 -39.5t29 -11t36 9.5t31.5 23t15.5 29.5q5 -2 19.5 -10t28 -18t21.5 -20t1 -15q-28 -41 -48 -74q-18 -28 -32 -51.5t-12 -25.5q68 -65 102 -137t28 -166z" />
    <glyph glyph-name="p_z" unicode="pz" horiz-adv-x="783" 
d="M276 441q-14 15 -30 7.5t-31.5 -30t-29.5 -56t-24 -70.5t-14.5 -74.5t-1.5 -67t15 -48t35 -17.5q16 0 32.5 21.5t31 55t25.5 74.5t14.5 80.5t-1 73t-21.5 51.5zM656 -56q-45 -13 -70 -31.5t-34.5 -37.5t-7 -35.5t12.5 -25.5q9 -8 23 -7.5t28 15t27 44t21 78.5zM772 -41
q-6 -50 -26.5 -91.5t-49 -70t-62 -42t-64.5 -7.5q-22 4 -38.5 20.5t-24 39t-4 49t21 51t50.5 44t85 29.5q-1 50 -22 86.5t-45 60.5t-44 36t-20 14q5 19 20 46t33 56.5t35 59.5t26 55q-35 -25 -68.5 -27.5t-59.5 10.5q-17 -17 -42 -31t-57 -11q2 -41 -6 -84.5t-23 -83.5
t-36 -74t-45 -57t-50 -32.5t-52 -0.5q-33 11 -55 34t-35 54q-10 -62 -16 -120.5t-9 -106.5t-3 -80.5t3 -41.5q1 -5 -11 -4t-27.5 6.5t-29.5 15t-16 21.5q-5 27 -5 83.5t5 129t13 154t19 158t23.5 140.5t26.5 102q17 -2 38 -6t38.5 -10t28.5 -12t9 -10q-5 -14 -12 -37
q21 23 44 35q39 20 76 6.5t64 -48.5q17 -22 27 -48t14 -55q23 -2 42 8t32 25q-17 16 -27.5 38t-13.5 48t2.5 54t22.5 55l88 -51q-19 -48 -19 -75.5t11 -40t29 -11t35.5 10t31 23t15.5 29.5q6 -2 20 -10t27.5 -18t22 -20t1.5 -16q-28 -41 -48 -74q-18 -28 -32 -51t-12 -25
q68 -66 101.5 -138t28.5 -166z" />
    <glyph glyph-name="q_z" unicode="qz" horiz-adv-x="781" 
d="M216 443q-23 -9 -40.5 -34t-29.5 -58t-18.5 -70t-6.5 -69t6.5 -56t20.5 -30q28 -14 50.5 7.5t38.5 60t24.5 86t7 87.5t-14.5 63t-38 13zM654 -40q-41 -12 -65 -28.5t-35.5 -33.5t-12 -33.5t6.5 -26.5q8 -12 22 -15t30 9.5t30.5 43t23.5 84.5zM770 -25q-6 -50 -26.5 -91
t-49 -69.5t-62 -42.5t-64.5 -8q-22 4 -38.5 20.5t-24 39t-4 49t21 51t50.5 44t85 29.5q-1 50 -22 86.5t-45 60.5t-44 36t-20 14q5 19 20 46t33 56.5t35 59.5t26 55q-28 -20 -54 -25t-49 0q-9 -12 -22.5 -23.5t-30 -19t-37 -9.5t-42.5 5q-16 -57 -31 -115.5t-25 -117.5
q-12 -71 -14 -134t9 -110t34.5 -73t62.5 -24l5 -21q-65 -18 -109.5 1.5t-71.5 65.5t-37.5 112.5t-5.5 141.5q-26 -26 -57 -39.5t-68 -9.5q-35 4 -57.5 35.5t-32.5 79t-7 104t19 110t45.5 97.5t73.5 66q40 20 79.5 17t65.5 -38q15 -20 23 -43q6 20 12.5 37.5t11.5 31.5
q34 -11 54.5 -22.5t31 -22t13.5 -19t2 -12.5l-10 -36t-10 -37q29 -7 54.5 4.5t39.5 29.5q-23 13 -38 36t-21 51.5t-1 60t24 62.5l88 -51q-19 -48 -19 -75.5t11 -40t29 -11t35.5 10t31 23t15.5 29.5q6 -2 20 -10t27.5 -18t22 -20t1.5 -15l-48 -74q-18 -28 -32 -51.5
t-12 -25.5q68 -66 101.5 -138t28.5 -166z" />
    <glyph glyph-name="r_z" unicode="rz" horiz-adv-x="716" 
d="M589 -56q-45 -12 -70 -30.5t-35 -37.5t-7.5 -36t12.5 -26q9 -8 23 -7t28.5 15t27.5 43.5t21 78.5zM138 393q-34 -15 -65.5 -3.5t-51 41.5t-21 76t24.5 102l87 -50q-25 -71 -22 -104.5t17.5 -38t32.5 16.5t23 60q5 -2 23.5 -7.5t38 -13.5t34.5 -17.5t13 -18.5
q-30 -127 -31.5 -212t14.5 -128.5t44 -47t57 32.5t54 111t34 189q-23 13 -39.5 36t-22.5 51.5t-1 60.5t24 63l88 -51q-19 -48 -19 -75.5t11 -40t29 -11t35.5 10t31 23t15.5 29.5q6 -2 20 -10t27.5 -18t22 -20t1.5 -15l-48 -74q-18 -28 -32 -51.5t-12 -25.5q67 -65 101 -137
t29 -166q-6 -50 -26.5 -91.5t-49.5 -70t-62 -42t-64 -7.5q-22 4 -38.5 20.5t-24 39t-4 48.5t21 50.5t50.5 44t85 29.5q-1 50 -22 86.5t-45 60.5t-44 36t-20 14q5 19 20 46t33 57t35 60t26 54q-30 -20 -58.5 -25.5t-52.5 2.5q-3 -25 -8 -62.5t-14.5 -78t-22.5 -81.5
t-31 -73.5t-41 -54t-51 -22.5q-55 -3 -93 27t-58 83t-22.5 126t14.5 157z" />
    <glyph glyph-name="t_z" unicode="tz" horiz-adv-x="684" 
d="M558 -54q-45 -13 -70.5 -32t-35 -38t-7 -36t13.5 -25q10 -8 23.5 -6.5t28 15.5t27 43.5t20.5 78.5zM399 391q-20 15 -33 37.5t-17 49.5t1.5 56.5t23.5 58.5l87 -50q-19 -48 -19 -76t11 -40t29 -11t36 10t31.5 23.5t15.5 29.5q5 -2 19.5 -10t28 -18t21.5 -20t1 -16
q-28 -41 -48 -74q-18 -28 -32 -51.5t-12 -25.5q68 -65 102 -137t28 -166q-5 -50 -25.5 -91.5t-49.5 -70t-62 -42t-64 -7.5q-22 4 -38.5 20.5t-24 39t-4 48.5t20.5 50.5t50.5 44.5t85.5 30q-2 49 -22.5 85.5t-45 61t-44 36.5t-19.5 14q5 18 20 45t33 57t35 60t26 55
q-35 -24 -67 -27t-58 8q-4 -50 -15.5 -107t-31 -108t-48.5 -91t-68 -57q-61 -26 -109 -10t-79.5 62t-44 116t-2.5 152q4 34 11.5 70.5t16.5 73.5q-11 2 -20.5 4.5t-15.5 4.5q-8 2 -13 4l-1 28q7 -1 16 -3q8 -2 18 -4t24 -4q13 48 26.5 91t25.5 75q34 -11 54.5 -22.5t31 -22
t13.5 -19t2 -12.5q-7 -26 -14 -51l-14 -50q28 -1 56 1t54 8l2 -44q-29 -7 -60.5 -7.5t-62.5 2.5q-9 -35 -17.5 -71t-13.5 -74q-17 -111 -4.5 -179t58.5 -88q27 -12 52 -0.5t46.5 39t40 66t32 81t22 84t11.5 75.5z" />
    <glyph glyph-name="u_z" unicode="uz" horiz-adv-x="827" 
d="M700 -50q-46 -13 -71 -32t-34.5 -38.5t-6 -36.5t14.5 -25q10 -7 23.5 -5t27.5 16.5t26 43.5t20 77zM548 391q-21 14 -36 37t-20 50.5t0.5 58.5t23.5 61l88 -51q-19 -48 -19 -75.5t11 -40t29 -11t35.5 10t31 23t15.5 29.5q6 -2 20 -10t27.5 -18t22 -20t1.5 -15l-48 -74
q-18 -28 -32 -51.5t-12 -25.5q68 -65 101.5 -137t28.5 -166q-6 -50 -26.5 -91.5t-49 -70t-62 -42t-64.5 -7.5q-22 4 -38.5 20.5t-24 39t-4 48.5t21 50.5t50.5 44t85 29.5q-1 50 -22 86.5t-45 60.5t-44 36t-20 14q5 19 20 46t33 56.5t35 59.5t26 55q-32 -22 -62.5 -26
t-55.5 5q-2 -30 -5 -69t-8.5 -79t-15 -78t-25.5 -68t-40 -48t-57 -17q-39 0 -72 18t-56.5 52t-35 83.5t-8.5 113.5q-25 -131 -59.5 -199t-68.5 -84t-62.5 15.5t-43.5 100.5t-10.5 170t36.5 225q34 -11 56 -19.5t34 -15.5t16 -13t3 -10q-18 -68 -26.5 -133t-8 -115t8 -79
t21.5 -26q12 3 24 29.5t24.5 65t24 85.5t21.5 91.5t18.5 81.5t14.5 57q34 -11 55.5 -19.5t34 -15.5t16.5 -12.5t3 -10.5q-36 -150 -35 -249t48 -133q32 -23 55.5 -13.5t40.5 38.5t28 71t18 85t10.5 80t4.5 55z" />
    <glyph glyph-name="v_z" unicode="vz" horiz-adv-x="673" 
d="M95 122q6 22 18.5 55t27.5 71t32 78t34 76t32.5 64t27.5 43q16 4 34 -1.5t16 -24.5q-4 -31 -0.5 -54.5t11.5 -35.5t19 -10t23 23q-15 16 -23.5 38t-10.5 46.5t4.5 50.5t21.5 51l88 -51q-18 -48 -18.5 -75.5t10.5 -40t29 -11t35.5 10t31 23t15.5 29.5q6 -2 20 -10
t27.5 -18t22 -20t1.5 -15q-28 -41 -48 -74q-18 -28 -32 -51.5t-12 -25.5q68 -65 101.5 -137t28.5 -166q-6 -50 -26.5 -91.5t-49 -70t-61.5 -42t-64 -7.5q-22 4 -38.5 20.5t-24 39t-4.5 48.5t20.5 50.5t50.5 44t85 29.5q-1 50 -22 86.5t-45 60.5t-44 36t-20 14q5 19 20 46
t33 56.5t35 59.5t26 55q-42 -29 -80 -27.5t-66 22.5q-21 -32 -40 -34t-34 11.5t-24 36t-9 40.5q-24 -36 -49 -86.5t-48.5 -109t-43 -121t-31.5 -120.5q-3 -6 -15.5 -7t-27 3t-27 12t-16.5 19q-12 37 -17 94t-3.5 122t9 131.5t21.5 120.5q69 -21 92.5 -35t19.5 -22
q-7 -19 -15 -56t-15 -82t-12.5 -93.5t-6.5 -91.5zM546 -56q-43 -12 -68 -29.5t-35.5 -36t-9 -35t10.5 -26.5t23 -10.5t29 13t28.5 43.5t21.5 81z" />
    <glyph glyph-name="w_z" unicode="wz" horiz-adv-x="888" 
d="M331 122q5 22 15 55.5t23 71.5t28 78t29.5 75.5t28.5 63.5t25 43q7 2 16.5 2t18 -3t13.5 -9t4 -16q-4 -31 -0.5 -54.5t11.5 -35t19 -9.5t23 23q-15 16 -23.5 38t-10.5 46t4.5 50t21.5 51l88 -50q-19 -49 -19 -76.5t11 -39.5t29 -11t35.5 10t31 23.5t15.5 29.5
q6 -2 20 -10t27.5 -18t22 -20t1.5 -16l-48 -74q-18 -28 -32 -51.5t-12 -25.5q68 -65 101.5 -137t28.5 -166q-6 -50 -26.5 -91.5t-49 -70t-62 -42t-64.5 -7.5q-22 4 -38.5 20.5t-24 39t-4 48.5t21 50.5t50.5 44.5t85 30q-1 49 -22 85.5t-45 61t-44 36.5t-20 14q5 18 20 45
t33 57t35 60t26 55q-42 -29 -80 -28t-66 22q-21 -31 -40 -34t-33.5 10t-23.5 35t-10 41q-22 -36 -43.5 -86.5t-41 -108.5t-35 -120t-24.5 -120q-3 -6 -15.5 -7t-27 3t-27.5 12t-17 19q-11 27 -18 65t-11.5 82.5t-5.5 93t1 95.5q-17 -38 -33 -82t-30 -91.5t-25.5 -95.5
t-18.5 -94q-3 -6 -15.5 -7t-26.5 3t-27.5 12t-17.5 19q-15 37 -23.5 94.5t-11 122.5t1 131t14.5 120q35 -11 58 -19.5t36.5 -15t18 -12.5t3.5 -10q-6 -19 -12 -55.5t-10.5 -81.5t-6.5 -94t-1 -92q5 21 14.5 52t21.5 67t26 74.5t28 73.5t27.5 64.5t24.5 48.5q35 -11 58 -19.5
t36.5 -15t18 -12.5t3.5 -10q-6 -19 -12 -55.5t-10.5 -81.5t-6.5 -94t-1 -92zM761 -55q-43 -12 -67.5 -29.5t-35.5 -36t-10 -35t10 -26.5t23 -11t29 12.5t29 43.5t22 82z" />
    <glyph glyph-name="y_z" unicode="yz" horiz-adv-x="741" 
d="M614 -52q-42 -12 -66 -28.5t-35.5 -34.5t-11.5 -34.5t8 -26.5q8 -11 22.5 -13t30 11t29.5 43t23 83zM236 486q0 5 18.5 0.5t41 -12t40.5 -16t18 -12.5q0 -8 -1.5 -27.5t-3.5 -47.5q30 -10 56.5 0t42.5 29q-18 15 -29 37.5t-14.5 48.5t2.5 54.5t23 55.5l88 -51
q-19 -48 -19 -75.5t11 -40t29 -11t35.5 10t31 23t15.5 29.5q5 -2 19.5 -10t28 -18t21.5 -20t1 -15q-28 -41 -48 -74q-18 -28 -32 -51.5t-12 -25.5q68 -65 102 -137t29 -166q-6 -50 -26.5 -91.5t-49.5 -70t-62 -42t-64 -7.5q-22 4 -38.5 20.5t-24 39t-4 48.5t20.5 50.5
t50.5 44t85.5 29.5q-1 50 -22 86.5t-45 60.5t-44 36t-20 14q5 19 20 46t33 56.5t35 59.5t26 55q-35 -24 -67.5 -27t-58.5 10q-10 -11 -23 -21t-29.5 -16t-35.5 -7t-40 7q-3 -35 -7.5 -80.5t-11 -95.5t-15.5 -101.5t-21.5 -99t-29 -88.5t-38.5 -69q-34 -44 -71 -54t-66.5 2.5
t-46.5 41.5t-10.5 62.5t41.5 66t109 51.5q11 42 18.5 90t14.5 101q-27 -90 -59 -130t-61 -37.5t-52.5 42.5t-33.5 110.5t-4 166t36 208.5q34 -11 55.5 -19.5t34 -15t16.5 -12.5t3 -10q-19 -68 -28 -136t-9.5 -121.5t6.5 -85.5t21 -28q9 2 20 21.5t21 50.5t20 69.5t17.5 80.5
t12.5 83t7 77zM169 -60q-42 -14 -66 -32.5t-34 -37t-7.5 -33t12.5 -18.5q8 -3 19.5 0.5t24 17.5t26 39t25.5 64z" />
    <glyph glyph-name="B_z" unicode="Bz" horiz-adv-x="1001" 
d="M860 254q68 -65 102 -137t28 -166q-5 -50 -25.5 -91.5t-49.5 -70t-62 -42t-64 -7.5q-22 4 -38.5 20.5t-24 39t-4 48.5t20.5 50.5t50.5 44t85.5 29.5q-2 50 -22.5 86.5t-45 60.5t-44 36t-19.5 14q5 19 20 46t33 56.5t34.5 59.5t25.5 55q-28 -19 -54 -24.5t-49 -0.5
q-14 -24 -34.5 -49t-46.5 -48q2 -20 -3 -45t-20 -56q-22 -45 -62 -81t-87.5 -57.5t-97.5 -25.5t-92 15.5t-71.5 65.5t-35.5 124q-85 42 -133.5 98.5t-65 117t-4 120.5t49 109t94.5 81.5t133 39.5q110 10 178 -16t92 -79.5t2 -131t-91 -171.5q14 3 41.5 2t58 -8.5t59 -23.5
t43.5 -43v1q18 17 32.5 37t24.5 40q-21 14 -35.5 36.5t-19.5 50.5t0.5 58.5t23.5 60.5l87 -51q-18 -48 -18.5 -75.5t10.5 -40t29 -11t36 10t31.5 23t15.5 29.5q5 -2 19.5 -10t28 -18t21.5 -20t1 -15q-28 -41 -48 -74q-18 -28 -32 -51.5t-12 -25.5zM217 302q7 39 19.5 86
t27.5 93.5t31 87.5t29 69q34 -9 54.5 -18.5t31 -18.5t13.5 -16t2 -11q-5 -14 -18.5 -54.5t-29 -94.5t-29.5 -116t-19 -118q72 -13 136.5 2t117.5 44q-14 25 -56.5 37t-123.5 1q-19 9 -19.5 30.5t10.5 35.5q120 165 111 248t-146 82q-80 0 -141.5 -25t-101 -64t-56 -87.5
t-6.5 -96.5t48 -90.5t107 -69.5q2 13 4 34t4 30zM436 36q30 10 58 29t49 42t34 49t13 49q-26 -14 -59 -23.5t-68.5 -14t-71 -3.5t-66.5 8q-1 -39 4 -69t17.5 -49t34.5 -24t55 6zM772 -192q9 -10 23 -10.5t29 13t29 43.5t22 81q-44 -12 -68.5 -29.5t-35 -36t-9.5 -35
t10 -26.5z" />
    <glyph glyph-name="C_z" unicode="Cz" horiz-adv-x="877" 
d="M750 -62q-47 -14 -72 -33.5t-34.5 -39.5t-5.5 -36.5t16 -23.5q10 -6 23.5 -4t27 17t25.5 44t20 76zM585 388q-18 16 -29.5 38.5t-14.5 48.5t2.5 54.5t22.5 56.5l88 -51q-18 -48 -18.5 -75.5t10.5 -40t29 -11t35.5 10t31 23t15.5 29.5q5 -2 19.5 -10t28 -18t21.5 -20
t1 -16q-28 -41 -48 -74q-18 -28 -32 -51.5t-12 -25.5q68 -65 102 -137t29 -166q-6 -50 -26.5 -91.5t-49.5 -70t-62 -42t-64 -7.5q-22 4 -38.5 20.5t-24 39t-4 48.5t20.5 50.5t50.5 44.5t85.5 30q-1 49 -22 85.5t-45 61t-44 36.5t-20 14q5 19 20 46t33 56.5t35 59.5t26 55
q-35 -24 -67 -27t-58 9q-16 -71 -47 -135.5t-76.5 -115.5t-104.5 -83.5t-131 -39.5q-62 -6 -109 14.5t-78 60t-47.5 93t-17.5 114t12 124.5t40 122.5t68 108.5t96 84q37 23 74 33t72 8q57 -2 95 -29t55 -64t11.5 -77t-35.5 -69.5t-85.5 -41.5t-137.5 9q64 8 107 27.5
t68.5 44.5t34.5 52t3.5 49t-24.5 36t-48 14q-48 -1 -90 -32t-75 -80.5t-55.5 -111.5t-31.5 -125t-3 -121.5t29.5 -101t66 -63.5t106.5 -8q53 11 92.5 42.5t67 75.5t45 97t26.5 106z" />
    <glyph glyph-name="D_z" unicode="Dz" horiz-adv-x="1059" 
d="M412 575q-5 -14 -17.5 -55.5t-27.5 -96t-28.5 -115.5t-20.5 -115q31 -9 67 -14q31 -5 70 -7t82 3q17 48 24 105t2.5 113t-22 108t-50 90.5t-81 59.5t-114.5 17q-73 -5 -125.5 -30.5t-84 -64t-41.5 -85t3.5 -93t50 -88.5t98.5 -70q1 6 2 15.5l2 19t2 18t2 12.5
q7 40 19.5 87t27.5 93t30.5 87t28.5 69q34 -9 54.5 -18.5t31.5 -18t13.5 -15.5t1.5 -11zM933 -66q-46 -13 -71 -32t-34.5 -38t-6.5 -36t14 -25q10 -7 23.5 -5.5t27.5 16t26.5 43.5t20.5 77zM1048 -50q-5 -50 -25.5 -91.5t-49.5 -70t-62 -42t-64 -7.5q-22 4 -38.5 20.5
t-24 39t-4 48.5t20.5 50.5t50.5 44t85.5 29.5q-2 50 -22.5 86.5t-45 60.5t-44 36t-19.5 14q5 19 20 46t33 57t35 60t26 54q-28 -19 -54 -24.5t-49 -0.5q-23 -74 -73.5 -116t-112.5 -63q-32 -66 -85.5 -113.5t-128.5 -63.5q-53 -12 -93 -0.5t-67.5 39.5t-42.5 70t-18 91
q-84 42 -130 98.5t-59.5 117.5t1 121.5t51 109.5t91 81.5t120.5 37.5q92 7 162.5 -15.5t120 -65.5t79 -102t40 -124.5t2.5 -133t-33 -126.5h1q48 21 86 61t58 108q-23 13 -39 36t-22 51t-0.5 60t24.5 63l87 -51q-18 -48 -18.5 -75.5t10.5 -40t29 -11t36 10t31.5 23
t15.5 29.5q5 -2 19.5 -10t28 -18t21.5 -20t1 -15q-28 -41 -48 -74q-18 -28 -32 -51.5t-12 -25.5q68 -65 102 -137t28 -166zM530 158q-20 -3 -48 -4.5t-58 -1.5t-59 2t-51 7q-2 -35 3 -63t17.5 -45.5t34.5 -22.5t55 6q34 11 60.5 43.5t45.5 78.5z" />
    <glyph glyph-name="E_z" unicode="Ez" horiz-adv-x="799" 
d="M672 -64q-43 -12 -67.5 -29.5t-35 -35.5t-9.5 -34.5t9 -26.5q9 -10 23 -11t29 12t29 43t22 82zM557 362q-3 -34 -14 -78.5t-33 -90t-54.5 -87.5t-78 -69.5t-104.5 -36t-133 11.5q-49 13 -81 44.5t-46.5 73t-12 89t21 92.5t52.5 83.5t84 62.5q-43 38 -57.5 81.5t-7 84
t34.5 74.5t66.5 55t87.5 25t99 -16q27 -11 46.5 -36t21.5 -51.5t-18 -48.5t-72 -27q21 28 31.5 55.5t7.5 48.5t-21.5 34.5t-55.5 13.5q-36 0 -63.5 -14.5t-43.5 -39t-19 -57t10 -68t43.5 -72t81.5 -69.5q-42 -3 -79.5 -27t-66.5 -60t-46 -80t-17.5 -87t19 -81t63.5 -62
q26 -14 59.5 -10.5t69 21.5t69.5 49.5t60.5 74.5t43 96t16.5 113q-22 13 -36.5 36t-20 50.5t0 59t23.5 61.5l88 -51q-19 -48 -19 -75.5t11 -40t29 -11t35.5 10t31 23t15.5 29.5q6 -2 20 -10t27.5 -18t22 -20t1.5 -15l-48 -74q-18 -28 -32 -51.5t-12 -25.5q68 -65 101.5 -137
t28.5 -166q-6 -50 -26.5 -91.5t-49 -70t-62 -42t-64.5 -7.5q-22 4 -38.5 20.5t-24 39t-4 48.5t21 50.5t50.5 44t85 29.5q-1 50 -22 86.5t-45 60.5t-44 36t-20 14q5 19 20 46t33 56.5t35 59.5t26 55q-27 -19 -53 -24.5t-49 -0.5z" />
    <glyph glyph-name="G_z" unicode="Gz" horiz-adv-x="920" 
d="M793 -61q-50 -14 -75 -35t-33 -41.5t-1.5 -37.5t20.5 -22q10 -3 22.5 1.5t25 20t23.5 43t18 71.5zM218 72q39 -19 68 -5.5t49 46t32.5 78.5t19.5 92.5t10 87.5t3 65q24 -5 45.5 -10t37.5 -10t25.5 -10t9.5 -10q-5 -95 -16 -192.5t-29 -191.5q30 30 58.5 74t51 94
t36.5 102.5t16 101.5q-20 15 -33 37.5t-17.5 49.5t1 57t23.5 59l88 -51q-19 -48 -19 -75.5t11 -40t29 -11t35.5 10t31 23t15.5 29.5q6 -2 20 -10t27.5 -18t22 -20t1.5 -15q-28 -41 -48 -74q-18 -28 -32 -51.5t-12 -25.5q68 -65 102 -137t28 -166q-6 -50 -26.5 -91.5t-49 -70
t-61.5 -42t-64 -7.5q-22 4 -38.5 20.5t-24 39t-4.5 48.5t20.5 50.5t50.5 44t86 29.5q-2 50 -22.5 86.5t-45 60.5t-44.5 36t-20 14q5 19 20.5 46t33.5 56.5t34.5 59.5t25.5 55q-29 -20 -57 -25t-52 1q-3 -54 -23 -112t-49 -112t-65 -99t-70 -72q-1 -5 -2 -10.5t-2 -10.5
q-20 -80 -50.5 -126t-62.5 -65.5t-63 -17t-53 19.5t-31.5 44t1.5 55.5t45 55.5t100 43q10 38 17.5 79t12.5 85q-14 -24 -31.5 -47.5t-39.5 -41.5t-48.5 -28t-57.5 -7q-53 5 -91.5 33.5t-63 73t-35 101t-8 117t18.5 122t45 115.5q37 68 80.5 108.5t88 59t87 18t78.5 -15.5
q50 -21 74.5 -53t27.5 -66t-13.5 -66t-49 -52.5t-79 -25.5t-102.5 14q41 1 75.5 17.5t59.5 40t40 51t16.5 52.5t-12 43.5t-43.5 23.5q-32 5 -64 -10t-60 -40.5t-50 -56.5t-34 -59q-14 -34 -26 -78t-18.5 -91.5t-7 -95.5t8 -89t27 -72.5t49.5 -45.5zM337 -74
q-45 -14 -69.5 -34.5t-32.5 -39.5t-3.5 -33t17.5 -15q8 -1 19 5t22.5 20t23.5 38t23 59z" />
    <glyph glyph-name="H_z" unicode="Hz" horiz-adv-x="933" 
d="M807 -67q-48 -14 -73.5 -34t-34.5 -40t-4 -37t18 -23q10 -5 23 -2t26.5 18t25 43.5t19.5 74.5zM500 177q1 -64 14 -95.5t35 -41t52 -1.5t64 23q1 1 1.5 -7.5t0.5 -11.5q-69 -38 -124.5 -44.5t-93 17t-55.5 77t-14 136.5q1 20 2 36.5t5 42.5q-6 1 -20.5 4.5t-32 9
t-36.5 11t-34 11.5q-5 -20 -14 -62t-19 -88.5t-19.5 -90.5t-14.5 -68q-3 -14 -16.5 -22.5t-33.5 -12t-43.5 -2.5t-45.5 5q15 48 32.5 106.5t32.5 114t26.5 100.5t15.5 65q-68 36 -105 78t-50.5 82.5t-8 78t22.5 64.5q17 28 48.5 43.5t66.5 17.5t68 -10.5t53 -40.5
q19 -26 26.5 -59t8 -71.5t-5.5 -83.5t-14 -95q30 -13 60 -22t58 -16q8 59 19 122t21.5 115.5t18 89t8.5 43.5q34 -11 57.5 -22.5t38 -23t20.5 -20.5t5 -13q-13 -49 -25 -103q-11 -46 -23 -102t-20 -112q35 -9 59.5 -8t40.5 8.5t25 19.5t14 26q-21 14 -35 37t-19 50.5t0.5 58
t23.5 60.5l88 -51q-19 -48 -19 -75.5t11 -40t29 -11t35.5 10t31 23t15.5 29.5q6 -2 20 -10t27.5 -18t22 -20t1.5 -16q-28 -41 -48 -74q-18 -28 -32 -51.5t-12 -25.5q68 -65 102 -137t28 -166q-6 -50 -26.5 -91.5t-49 -70t-61.5 -42t-64 -7.5q-22 4 -38.5 20.5t-24 39
t-4.5 48.5t20.5 50.5t50.5 44.5t86 30q-2 49 -22.5 85.5t-45 61t-44.5 36.5t-19 14q5 19 20 46t33 56.5t34.5 59.5t25.5 55q-32 -23 -62.5 -27t-56.5 6q-9 -17 -23 -32t-34.5 -26t-47.5 -16t-62 -2q-5 -33 -6.5 -58.5t-0.5 -51.5zM174 431q15 88 9.5 144.5t-23 86.5t-42 37
t-45.5 -3q-22 -11 -35 -38t-6 -63t39.5 -79t102.5 -85z" />
    <glyph glyph-name="I_z" unicode="Iz" horiz-adv-x="719" 
d="M593 -66q-47 -13 -72.5 -33t-34.5 -39.5t-5 -36.5t16 -24q10 -6 23.5 -3.5t27 17.5t25.5 43.5t20 75.5zM174 179q-1 -59 9.5 -91t29.5 -46q15 -12 35 0.5t41 41t41.5 67.5t39 81.5t32.5 83.5t22 72q-17 16 -27.5 38.5t-13.5 48t3 53t23 54.5l87 -51q-18 -48 -18.5 -75.5
t10.5 -40t29 -11t36 10t31.5 23t15.5 29.5q5 -2 19.5 -10t28 -18t21.5 -20t1 -15q-28 -41 -48 -74q-18 -28 -32 -51.5t-12 -25.5q67 -65 101.5 -137.5t28.5 -165.5q-5 -50 -25.5 -91.5t-49.5 -70t-62 -42t-64 -7.5q-22 4 -38.5 20.5t-24 39t-4 48.5t20.5 50.5t50.5 44
t85.5 29.5q-2 50 -22.5 86.5t-45 60.5t-44 36t-19.5 14q5 19 20 46t33 56.5t34.5 59.5t25.5 55q-34 -23 -65 -26.5t-57 7.5q-9 -26 -24.5 -62.5t-34.5 -76.5t-42 -79.5t-47 -71.5t-49.5 -53t-49.5 -24q-81 -9 -122.5 49t-32.5 183q2 23 6.5 54.5t9 60t7.5 48.5l3 20
q-29 -2 -60 0q-2 0 -5 10.5t-6 23t-5.5 23.5t-4.5 12q52 -9 92 -12q19 74 38 133.5t51 110.5q28 32 56 41.5t53 1t44.5 -30.5t30 -52t9 -64.5t-18.5 -67.5t-52 -61.5t-91 -46.5q-8 -33 -14.5 -67.5t-12 -67.5t-8.5 -64t-3 -57zM222 481q54 14 83 45t40 63.5t6.5 59.5
t-18.5 34q-10 5 -23 -1.5t-28 -29.5t-30.5 -65t-29.5 -106z" />
    <glyph glyph-name="J_z" unicode="Jz" horiz-adv-x="819" 
d="M146 -66q7 21 12.5 38.5t10 34.5t9 35t9.5 40q-16 -12 -36.5 -30t-41 -40t-38 -47t-29 -49t-14 -46.5t8.5 -40.5q7 -13 20 -12.5t28.5 13.5t31.5 39t29 65zM692 -56q-44 -12 -69 -30.5t-35 -37.5t-8 -35.5t12 -25.5q9 -9 23 -8.5t28.5 14.5t27.5 43.5t21 79.5zM808 -40
q-6 -50 -26.5 -91.5t-49 -70t-61.5 -42t-64 -7.5q-22 4 -38.5 20t-24 38.5t-4.5 49t20.5 51t50.5 44t85 29.5q-1 50 -22 86.5t-45 60.5t-44 36t-20 14q5 19 20.5 46t33.5 56.5t34.5 59.5t25.5 55q-45 -32 -85.5 -28t-68.5 30q-26 -26 -68.5 -30.5t-87.5 9.5
q-16 -90 -34 -184.5t-42.5 -178t-56.5 -148t-75 -93.5q-23 -16 -46 -20t-43 1t-35.5 17t-24.5 29q-13 29 -10.5 64t16.5 70.5t36 71t48 66t52 54t48 37.5q9 27 17.5 69t15.5 82t12 70t5 33q-52 32 -78 75.5t-30 88t11 85.5t45 66.5t71.5 31t90.5 -19.5q19 -10 28 -32
t11.5 -51.5t0 -62.5t-7 -64.5t-9.5 -58.5t-8 -44q4 -4 20 -10t36.5 -9.5t41.5 -3t33 8.5q-24 33 -26.5 80.5t26.5 95.5l88 -51q-18 -48 -18.5 -75.5t10.5 -40t29 -11t35.5 10t31 23t15.5 29.5q6 -2 20 -10t27.5 -18t22 -20t1.5 -15q-28 -41 -48 -74q-18 -28 -32 -51.5
t-12 -25.5q67 -65 101.5 -137.5t28.5 -165.5zM260 475q6 25 12 67t6 82.5t-9 69t-33 27.5q-19 -2 -33 -16.5t-21.5 -36.5t-7.5 -49.5t9 -54.5t27.5 -50.5t49.5 -38.5z" />
    <glyph glyph-name="M_z" unicode="Mz" horiz-adv-x="1245" 
d="M1103 252q68 -65 102 -137t29 -166q-6 -50 -26.5 -91.5t-49.5 -70t-62 -42t-64 -7.5q-22 4 -38.5 20.5t-24 39t-4 48.5t20.5 50.5t50.5 44.5t85.5 30q-1 49 -22 85.5t-45 61t-44 36.5t-20 14q5 19 20 46t33 56.5t35 59.5t26 55q-30 -21 -58 -26t-52 2q-4 -29 -15 -70.5
t-27.5 -85.5t-38.5 -86t-50 -72t-61 -42.5t-70 1.5q-48 18 -73 73.5t-23 149.5q1 55 7.5 109t17.5 128q-9 -9 -28 -35t-43 -56.5t-50 -60.5t-50 -48.5t-43.5 -20.5t-28.5 24q-31 84 -50.5 158t-30.5 122q-11 -73 -22.5 -146t-25.5 -145q17 -5 27.5 -11t16 -14.5t6.5 -20.5
t-1 -30q-29 16 -59 27q-9 -39 -19.5 -73.5t-23.5 -57.5q-25 -48 -55.5 -67t-60.5 -16.5t-56.5 22t-43 48t-20 61.5t11.5 63t52.5 52.5t102.5 29.5q23 105 37 213.5t25 214.5q1 7 22.5 16t47 14t47.5 2.5t24 -17.5q3 -23 8 -54t12 -66.5t15 -72t16 -69.5t15.5 -60t13.5 -43
q2 -6 19 11t41.5 48t53.5 72t56 84t48 82.5t31 68.5q4 13 25 7t44 -20.5t40.5 -31t16.5 -23.5q-19 -93 -34 -182q-6 -38 -12 -78.5t-10.5 -80t-6.5 -76t-1 -66.5q3 -79 18 -107.5t35.5 -20.5t44 44t45 86t37.5 106t22 104q-21 14 -35 37t-19 50.5t0.5 58t23.5 60.5l88 -51
q-19 -48 -19 -75.5t11 -40t29 -11t35.5 10t31 23t15.5 29.5q5 -2 19.5 -10t28 -18t21.5 -20t1 -16q-28 -41 -48 -74q-18 -28 -32 -51.5t-12 -25.5zM63 64q20 -3 36 17.5t28 49t20 57t11 42.5q-45 -2 -73.5 -14t-43.5 -29.5t-19 -38t0.5 -38.5t15.5 -31t25 -15zM1013 -191
q8 -11 22.5 -13t30 11t29.5 43.5t23 83.5q-42 -12 -66 -29t-35.5 -35t-11.5 -34.5t8 -26.5z" />
    <glyph glyph-name="P_z" unicode="Pz" horiz-adv-x="1043" 
d="M917 -60q-41 -11 -65.5 -27.5t-35.5 -34t-11.5 -33.5t6.5 -27q7 -12 21.5 -14.5t30.5 9.5t30.5 42.5t23.5 84.5zM185 159q11 29 20.5 67t18.5 82q-25 13 -33.5 29t-4.5 31t19 26.5t38 15.5q8 50 14.5 96t11.5 82q5 42 10 79q0 4 8.5 10.5t25.5 11.5t43 8t62 1
q-1 -6 -5.5 -34.5t-12 -72t-17 -98t-20.5 -110.5q8 -4 18.5 -10.5t18.5 -13.5q10 -8 19 -17q46 17 77.5 51t46.5 76.5t12.5 88.5t-24 85.5t-64 68.5t-106.5 38q-58 8 -105.5 -16.5t-76.5 -68t-35 -99.5t20 -113q-19 5 -32.5 13.5t-22.5 17.5t-13 16.5t-5 11.5
q-12 55 9 103.5t63 85.5t99 60t118.5 27t120.5 -13t106 -61q42 -39 56 -92.5t2.5 -109t-47 -106t-92.5 -83.5q-17 -9 -34.5 -16t-36.5 -12q49 -55 96.5 -68.5t88 3.5t71 59t45.5 98q-19 15 -31.5 37.5t-16.5 49.5t1.5 56t23.5 58l87 -50q-19 -48 -19 -76t11 -40t29 -11
t36 9.5t31.5 23t15.5 29.5q5 -2 19 -10t27.5 -18t22 -20t1.5 -15q-28 -41 -48 -74q-18 -28 -32 -51.5t-12 -25.5q68 -65 102 -137t28 -166q-5 -50 -25.5 -91.5t-49.5 -70t-62 -42t-64 -7.5q-22 4 -38.5 20.5t-24 39t-4 48.5t20.5 50.5t50.5 44.5t85.5 30q-2 49 -22.5 85.5
t-45 61t-44 36.5t-19.5 14q5 18 20 45t33 57t34.5 60t25.5 55q-35 -25 -68 -28t-59 11q-21 -65 -64 -113t-97 -66t-112 0.5t-109 87.5q-13 -1 -25.5 -1.5t-25.5 0.5q-15 -70 -29 -116q-22 -76 -55 -116.5t-74 -49.5t-88 13t-97 71q1 3 8.5 10t8.5 6q27 -25 48.5 -40t41 -12
t38.5 28t40 82zM228 329q3 14 6 29t5 30q-14 -5 -23 -12.5t-11.5 -15.5t3 -16.5t20.5 -14.5zM367 326q-2 2 -3 4l-2 4q-2 2 -3.5 4.5t-3.5 4.5q-1 -5 -1.5 -9.5t-2.5 -9.5q4 1 8 1t8 1z" />
    <glyph glyph-name="S_z" unicode="Sz" horiz-adv-x="761" 
d="M634 -64q-48 -14 -73.5 -34t-34 -40t-3.5 -37t17 -23q10 -5 23.5 -2t26.5 18t25 44t19 74zM298 740q-52 -2 -78.5 -29t-33.5 -64.5t2 -79t27 -73.5q18 -30 38.5 -54t41 -47t39 -49t32.5 -60q0 -1 2 -5q1 -2 2 -5q38 7 68.5 33t45.5 68q-22 13 -37 36t-20.5 51t-0.5 59.5
t24 62.5l88 -51q-18 -48 -18.5 -75.5t10.5 -40t29 -11t35.5 10t31 23t15.5 29.5q6 -2 20 -10t27.5 -18t21.5 -20t1 -15q-27 -41 -47 -74q-9 -14 -17 -27.5t-14.5 -24t-10 -17.5t-2.5 -8q67 -65 101 -137t29 -166q-6 -50 -26.5 -91.5t-49.5 -70t-62 -42t-64 -7.5
q-22 4 -38.5 20.5t-24 39t-4 48.5t20.5 50.5t50.5 44t85.5 29.5q-1 50 -22 86.5t-45 60.5t-44 36t-20 14q5 19 20 46t33 56.5t35 59.5t26 55q-29 -20 -57 -25t-51 1q-19 -42 -53.5 -73t-83.5 -35q14 -51 7 -96.5t-31.5 -79.5t-65.5 -55.5t-95 -24.5q-55 -4 -97 16t-66 51.5
t-27.5 68.5t20 68.5t76 51t140.5 15.5q-16 23 -38.5 44t-41.5 44q-25 31 -44 65.5t-29.5 71.5t-11 75.5t12.5 77.5q10 33 30 56t46 38t56.5 22t62.5 6q47 -2 78 -25t44.5 -55.5t9 -67t-27 -58t-64 -29.5t-102.5 18q70 19 106 51t42.5 62.5t-12 52.5t-56.5 21zM248 251
q-69 -1 -111.5 -21t-63.5 -48.5t-22 -60.5t14 -56t43 -35.5t66 1.5q30 10 51.5 33.5t32 54.5t8.5 65.5t-18 66.5z" />
    <glyph glyph-name="T_z" unicode="Tz" horiz-adv-x="818" 
d="M692 -64q-46 -13 -71 -32t-34.5 -38.5t-6.5 -36.5t14 -25q9 -7 22.5 -5.5t28 16t27 44t20.5 77.5zM355 180q1 -80 13 -109t29 -22t37.5 42.5t40.5 84.5t36 103.5t24 100.5q-20 15 -33.5 37.5t-18 50t1 57.5t23.5 59l87 -51q-19 -48 -19 -75.5t11 -40t29 -11t36 10
t31.5 23t15.5 29.5q5 -2 19 -10t27.5 -18t22 -20t1.5 -16q-28 -41 -48 -74q-18 -28 -32 -51.5t-12 -25.5q68 -65 102 -137t28 -166q-5 -50 -25.5 -91.5t-49.5 -70t-62 -42t-64 -7.5q-22 4 -38.5 20.5t-24 39t-4 48.5t20.5 50.5t50.5 44.5t85.5 30q-2 49 -22.5 85.5t-45 61
t-44 36.5t-19.5 14q5 19 20 46t33 56.5t34.5 59.5t25.5 55q-30 -21 -58.5 -26t-52.5 3q-7 -36 -21 -80t-32.5 -88t-40.5 -83.5t-46.5 -67.5t-51 -40t-52.5 -1q-45 19 -69 77.5t-19 150.5q2 30 8 70.5t15.5 83.5t20.5 87t22 82t20.5 66.5t15.5 42.5q-38 12 -73.5 24.5
t-67.5 19t-60.5 4t-51.5 -19.5q-37 -27 -42.5 -66.5t17 -76t72 -63t121.5 -27.5q4 0 -1.5 -10.5t-19 -22.5t-35 -20t-48.5 -3q-44 8 -75.5 31.5t-49.5 55t-21.5 68.5t8 71t39.5 62.5t73 43.5q46 15 93 14t95.5 -10t99.5 -21.5t105 -19.5t112 -4t121 24q-13 -25 -31 -52
t-43 -38q-26 -11 -56.5 -13t-62.5 1.5t-63 10.5t-59 14q-3 -12 -10 -41t-16 -68.5t-18.5 -85.5t-17 -93.5t-12.5 -92t-4 -80.5z" />
    <glyph glyph-name="U_z" unicode="Uz" horiz-adv-x="1031" 
d="M904 -64q-51 -14 -76 -36t-32.5 -43t-0.5 -37.5t21 -20.5q10 -3 23 2t25 21t22.5 43.5t17.5 70.5zM564 180q-1 -51 7.5 -82t23.5 -47q10 -11 32 6t46 59.5t46 108.5t31 153q-21 14 -35 36.5t-19 50.5t0.5 58.5t23.5 60.5l88 -51q-19 -48 -19 -75.5t11 -40t29 -11t35.5 10
t31 23t15.5 29.5q6 -2 20 -10t27.5 -18t22 -20t1.5 -16l-48 -74q-18 -28 -32 -51t-12 -25q68 -66 101.5 -138t28.5 -166q-6 -50 -26.5 -91.5t-49 -70t-62 -42t-64.5 -7.5q-22 4 -38.5 20.5t-24 39t-4 49t21 51t50.5 44t85 29.5q-1 50 -22 86.5t-45 60.5t-44 36t-20 14
q5 19 20 46t33 56.5t35 59.5t26 55q-29 -20 -57 -25.5t-52 1.5q-5 -30 -16.5 -70t-28 -81t-36.5 -80.5t-43 -69.5t-47.5 -47t-49.5 -14q-95 11 -114 132q-35 -48 -75 -79.5t-79 -45t-74.5 -8t-61 32.5t-39 76.5t-7.5 123.5q3 41 10.5 91.5t18.5 107.5q-38 8 -64.5 25.5
t-43 40.5t-24.5 49t-8 50q0 48 25.5 85t62.5 56t78 17.5t72 -29t45 -85t-4 -149.5l22 8q8 3 16.5 5.5t11.5 3.5q2 0 3 -11t-4 -25.5t-19.5 -27.5t-42.5 -16q-16 -68 -26 -131.5t-11 -117.5q-1 -75 14 -108.5t37.5 -36.5t49.5 19.5t51.5 58.5t43.5 80t25 85q3 20 10 59.5
t16.5 87.5t19.5 99.5t19 95t15 73.5t7 36q34 -11 57 -23t37.5 -23.5t20 -20.5t4.5 -13q-26 -90 -46 -175q-9 -36 -17 -75.5t-14.5 -78t-10.5 -74.5t-4 -66zM151 492q12 74 9.5 120t-14 69.5t-29 28t-34.5 -4.5q-22 -12 -38 -39.5t-14.5 -59.5t26.5 -63t85 -49z" />
    <glyph glyph-name="Y_z" unicode="Yz" horiz-adv-x="914" 
d="M411 715q24 -5 45.5 -10t37.5 -10t25.5 -10t9.5 -10q-4 -81 -12.5 -168.5t-20.5 -176t-28 -176t-34 -168.5q63 19 101 63.5t59.5 100.5t30 118t10.5 117q-21 14 -35.5 37t-19.5 50.5t0.5 58.5t23.5 61l87 -51q-19 -48 -19 -75.5t11 -40t29 -11t36 10t31.5 23t15.5 29.5
q5 -2 19.5 -10t28 -18t21.5 -20t1 -15q-28 -41 -48 -74q-18 -28 -32 -51.5t-12 -25.5q68 -65 102 -137t28 -166q-5 -50 -25.5 -91.5t-49.5 -70t-62 -42t-64 -7.5q-22 4 -38.5 20.5t-24 39t-4 48.5t20.5 50.5t50.5 44t85.5 29.5q-2 50 -22.5 86.5t-45 60.5t-44 36t-19.5 14
q5 19 20 46t33 56.5t34.5 59.5t25.5 55q-29 -20 -55.5 -25t-50.5 1q-6 -57 -20 -121.5t-42 -123t-72 -105.5t-109 -69l-2 -9q-21 -77 -51 -120.5t-62 -61.5t-62.5 -14.5t-51.5 20.5t-30 44t2 55.5t45.5 55t99.5 42.5q4 19 10.5 51.5t13 68.5t11.5 70t8 55q-5 -29 -19 -65.5
t-35 -67.5t-48.5 -51.5t-58.5 -17.5q-52 5 -79.5 37.5t-39 79.5t-10 102t8 104t14 85t8.5 47q-46 33 -68.5 71t-27 74.5t6.5 67.5t31 50q25 23 61 33t70 8.5t58.5 -14.5t26.5 -37q1 -22 -2.5 -49t-9 -57.5t-12.5 -62.5t-12 -63q16 -5 30 -9q12 -4 24.5 -7t20.5 -5
q-10 -22 -24 -30.5t-27 -10t-22.5 1t-11.5 3.5q-7 -26 -13 -60.5t-10 -71.5t-5 -73.5t2 -66t10.5 -50t21.5 -24.5q26 -8 48 11t40.5 56.5t33.5 89.5t27 109t20.5 115.5t14.5 109t9 89t3 55.5zM108 524q0 -1 3.5 17.5t8 42t8.5 43.5t4 21q9 38 4 57.5t-17.5 25t-30 -2.5
t-32.5 -25q-14 -15 -19.5 -38.5t-0.5 -49t22.5 -50t49.5 -41.5zM788 -56q-50 -14 -75.5 -35t-33.5 -42t-1 -38t21 -21q10 -3 23 2t25.5 20.5t23 43t17.5 70.5zM304 -69q-37 -12 -60 -27.5t-34.5 -32t-13 -30.5t4.5 -23t17.5 -9.5t25.5 11.5t30 39t30 72z" />
    <glyph glyph-name=".notdef" horiz-adv-x="300" 
 />
    <glyph glyph-name=".null" horiz-adv-x="0" 
 />
    <glyph glyph-name="nonmarkingreturn" horiz-adv-x="230" 
 />
    <glyph glyph-name="space" unicode=" " horiz-adv-x="230" 
 />
    <glyph glyph-name="space" unicode="&#xa0;" horiz-adv-x="230" 
 />
    <glyph glyph-name="exclam" unicode="!" horiz-adv-x="237" 
d="M234 662q-2 -18 -11.5 -61.5t-23 -99t-30 -115t-31.5 -109.5t-27 -83.5t-17 -35.5q-3 -2 -10 -1t-14.5 2t-13.5 2.5t-7 1.5q8 31 16.5 78t16.5 100t14.5 108t12 104t8.5 86.5t3 55.5q53 -8 83.5 -16.5t30.5 -16.5zM74 87q21 -7 30 -28t1 -44t-29 -34.5t-42 -4.5
t-29.5 27.5t-0.5 43.5t29 35t41 5z" />
    <glyph glyph-name="quotedbl" unicode="&#x22;" horiz-adv-x="95" 
d="M40 643l64 -13q-2 -4 -8.5 -22.5t-17 -44.5t-23.5 -56.5t-27 -58.5l-28 7q7 31 15 64q6 28 13 60.5t12 63.5zM128 643q-5 -31 -12 -63.5t-13 -60.5q-8 -33 -15 -64l28 -7q14 28 27 58.5t23.5 56.5t17 44.5t8.5 22.5z" />
    <glyph glyph-name="numbersign" unicode="#" horiz-adv-x="599" 
d="M486 540q-20 -51 -36 -96t-30 -89q32 -1 65.5 -1t68.5 -1l-16 -41q-35 3 -67 5t-63 4q-13 -42 -25 -83t-24 -83q94 -2 195 -3l-16 -41q-52 5 -98 7.5t-90 4.5q-11 -40 -21.5 -81.5t-21.5 -86.5l-51 -10q14 46 28 90t28 89q-40 1 -79.5 0.5t-81.5 -1.5q-11 -40 -22 -81.5
t-22 -86.5l-50 -10q14 45 27.5 88.5t27.5 88.5l-46 -2t-48 -2l-18 43q32 -1 62 -1.5t61 -0.5l51 165q-37 -1 -75 -2t-81 -3l-18 43q48 -2 93.5 -2.5t90.5 -1.5l32 104t33 107l37 -29q-19 -50 -35 -94.5t-30 -87.5q41 -1 80.5 -1.5t81.5 -1.5q16 53 32 105.5t33 108.5z
M322 155l51 168q-42 2 -81.5 2h-81.5q-14 -42 -26 -83t-24 -84z" />
    <glyph glyph-name="dollar" unicode="$" horiz-adv-x="423" 
d="M281 568q-8 -32 -14 -63t-12 -61q48 16 70.5 37.5t24 41t-16 33t-48.5 12.5h-4zM216 433q5 32 11 63.5t11 63.5q-30 -10 -44 -30.5t-16 -45t6 -50t23 -45.5l2 -2l7 43q-2 0 -3 0.5t-3 0.5q2 1 3 1t3 1zM251 421q-3 -17 -6.5 -34t-6.5 -34q15 -14 30 -27t29.5 -26.5
t27 -29.5t22.5 -35q20 -41 17.5 -77t-24 -63.5t-60 -45.5t-90.5 -21q-4 -27 -7 -54t-7 -56l-50 -14q6 31 11.5 62t10.5 62q-53 4 -86.5 26t-48.5 51.5t-11.5 61t23 53.5t55.5 30t87 -9q-38 -6 -63 -24t-37.5 -41t-13 -48t10 -44.5t32.5 -30.5t55 -6q9 54 18 106.5t18 105.5
q-30 24 -54.5 52.5t-39.5 59.5t-18 64t11 66q18 43 61 64.5t96 23.5l15 92l40 -35q-3 -14 -6 -29t-7 -29q37 -4 61 -20.5t35 -37.5t8.5 -43.5t-18.5 -39.5t-46 -25.5t-74 -0.5zM219 234q-7 -42 -13 -85t-12 -89q24 12 39.5 33t19.5 45t-4 49t-30 47z" />
    <glyph glyph-name="uni0025" unicode="%" horiz-adv-x="490" 
d="M444 451q-65 -74 -116.5 -126.5t-98 -98t-91 -92t-95.5 -108.5l-23 36q30 38 69 75t82.5 79t90 92t92.5 113q-31 -11 -56 -4.5t-42 17.5q-5 -26 -17.5 -51t-32.5 -43.5t-47 -29t-60 -8.5q-38 3 -60.5 23.5t-31.5 50t-4.5 63.5t20.5 64t43 51.5t64 25.5q13 1 24 -2
t16 -8.5t3 -10.5t-13 -8q-5 -1 -10.5 1t-13 3.5t-15.5 2t-17 -2.5q-29 -9 -46.5 -43t-12.5 -78q2 -24 11 -45t22 -36t29 -23t34 -7q17 1 31.5 12t24 28t14 39t2.5 46q-2 13 -5 25t-8 23q3 13 10 20.5t15 8.5t15.5 -4.5t12.5 -18.5q13 -29 32 -44q17 -14 42 -15.5t60 25.5
q6 9 12 18.5t12 19.5q12 19 23.5 19t18.5 -11.5t5.5 -29t-14.5 -33.5zM375 242q41 -3 65 -26t32 -55t1.5 -68t-27 -65.5t-53 -48t-76.5 -15.5q-40 3 -63.5 26t-31 55t-0.5 68t26.5 66t51.5 48t75 15zM358 -14q18 1 32.5 11.5t24 27.5t14 39t2.5 46q-3 24 -11.5 44.5
t-21.5 35.5t-29.5 23t-33.5 7q-17 -2 -31.5 -12t-24.5 -27t-14.5 -39t-1.5 -46q2 -24 11 -45t21.5 -36t29 -23t33.5 -6z" />
    <glyph glyph-name="ampersand" unicode="&#x26;" horiz-adv-x="644" 
d="M484 325q37 -11 54 -45t13 -75.5t-30 -85t-74.5 -74t-121.5 -42t-171 10.5q-54 12 -88.5 39t-50.5 62.5t-14 76.5t22 79.5t57 72t91 54.5q-40 33 -53.5 70.5t-6 72.5t32.5 64.5t61 48t81 21.5t92 -14q25 -9 43.5 -30.5t20 -44.5t-17 -42.5t-66.5 -23.5q19 25 29 48.5
t7 42t-20 29.5t-51 11q-33 0 -61 -11t-45.5 -29.5t-22 -43t8 -51.5t45 -54t89.5 -50q-33 -2 -68 -15.5t-66.5 -35t-56 -50t-36 -60.5t-7.5 -65.5t31 -66.5q36 -44 79.5 -62t87 -16.5t82.5 18.5t66 41.5t36.5 54t-6 56t-60 46.5t-126.5 26q-4 0 -3.5 8.5t-0.5 12.5
q46 3 97 18.5t95 41t76.5 59t41.5 72t-10.5 80t-78.5 82.5q63 -3 100.5 -24t52 -51.5t8.5 -68t-29.5 -73t-64 -66.5t-93.5 -49z" />
    <glyph glyph-name="quotesingle" unicode="'" horiz-adv-x="79" 
d="M40 643l64 -13q-2 -4 -8.5 -22.5t-17 -44.5t-23.5 -56.5t-27 -58.5l-28 7q7 31 15 64q6 28 13 60.5t12 63.5z" />
    <glyph glyph-name="parenleft" unicode="(" horiz-adv-x="211" 
d="M160 -143q-17 -2 -20 3.5t-5 7.5q-84 115 -112.5 219t-20 194.5t44 165.5t79.5 132t87 94t67 51q2 1 5.5 -3t4.5 -3q-105 -117 -161 -255q-24 -59 -40 -128t-16.5 -146.5t19.5 -161t68 -170.5z" />
    <glyph glyph-name="parenright" unicode=")" horiz-adv-x="289" 
d="M131 724q8 1 12.5 -0.5t7 -3t3 -3.5t1.5 -3q63 -86 94 -166.5t38 -154t-5.5 -138.5t-37.5 -121t-58 -102.5t-66.5 -81.5t-62.5 -58.5t-47 -34.5q-2 -1 -5 3t-5 3q104 117 161 255q24 59 40 128t16.5 146t-19 160.5t-67.5 171.5z" />
    <glyph glyph-name="asterisk" unicode="*" horiz-adv-x="313" 
d="M359 657l8 -55q-42 -2 -79 -3.5t-75 -3.5q20 -30 40.5 -59.5t42.5 -61.5l-52 -26q-9 22 -16 40t-15 34t-18 31t-25 31q-18 -14 -31.5 -27t-25 -28t-22 -31.5t-23.5 -37.5l-46 34q30 30 57.5 58t56.5 57q-34 14 -67 28t-69 30l29 48q19 -14 35.5 -25.5t32 -20.5t32 -16.5
t37.5 -13.5q10 32 11.5 62t0.5 71l59 -8q-8 -35 -15.5 -67t-15.5 -64q20 -1 38 0.5t35.5 4.5t37 8t42.5 11z" />
    <glyph glyph-name="plus" unicode="+" horiz-adv-x="493" 
d="M277 488q-26 -83 -41 -154q43 4 87 9.5t97 11.5l5 -58q-51 -1 -99.5 -2t-96.5 -2q-8 -40 -13 -81.5t-10 -89.5l-48 -13q9 48 18 93l18 90l-96 -2t-98 -3l21 43q51 -3 94.5 -2.5t86.5 3.5q8 42 16 83t16 86l43 -12v0z" />
    <glyph glyph-name="comma" unicode="," horiz-adv-x="121" 
d="M67 99q18 -6 24 -19.5t4 -31t-10 -36.5t-18 -35.5t-19.5 -28.5t-13.5 -15q-5 -3 -4 7t3 22.5t3 24t-4 13.5q-19 6 -27.5 25t-0.5 39t26.5 30.5t36.5 4.5z" />
    <glyph glyph-name="hyphen" unicode="-" horiz-adv-x="306" 
d="M249 350l11 -55q-69 -2 -131.5 -4.5t-128.5 -5.5l13 42q34 -3 62 -2t55 4t55.5 8.5t63.5 12.5z" />
    <glyph glyph-name="period" unicode="." horiz-adv-x="124" 
d="M67 101q19 -6 27.5 -25t0.5 -39t-26 -30.5t-37 -4.5t-27.5 24.5t-0.5 39.5q8 20 26 30t37 5z" />
    <glyph glyph-name="slash" unicode="/" horiz-adv-x="289" 
d="M385 696q-53 -96 -95.5 -179t-81 -164t-76 -166.5t-80.5 -185.5l-52 -1q45 94 89 184.5t87.5 181.5t88 184t91.5 191l29 -45v0z" />
    <glyph glyph-name="zero" unicode="0" horiz-adv-x="515" 
d="M245 40q30 3 52.5 21.5t37 49.5t19.5 71.5t1 85.5t-17 85t-32.5 69t-45.5 45t-56 13t-52 -21.5t-35.5 -49t-18 -70.5t0.5 -85q4 -45 16 -85.5t30.5 -69.5t44 -45.5t55.5 -13.5zM274 521q54 -5 90.5 -30.5t57.5 -64.5t26.5 -87t-3 -97t-31 -94.5t-57 -79.5t-81.5 -53
t-104 -14q-53 4 -88.5 29.5t-55.5 64.5t-25 87t3.5 97t31 94.5t56.5 80t79 53.5t101 14z" />
    <glyph glyph-name="one" unicode="1" horiz-adv-x="336" 
d="M38 358l-38 6l138 181q2 2 20 -3t39 -13.5t37.5 -17.5t14.5 -15q-7 -22 -15.5 -66t-18 -97.5t-18 -110.5t-15.5 -105t-11.5 -80.5t-4.5 -36.5q-29 7 -46.5 15t-27 15t-12 13t-2.5 9q3 55 10 121q6 57 17 132.5t28 165.5z" />
    <glyph glyph-name="two" unicode="2" horiz-adv-x="515" 
d="M136 328q-26 8 -44 21q-16 11 -28 29.5t-7 44.5q8 44 38 72t71 41.5t85.5 12t81.5 -18t59.5 -47t19.5 -75.5q-5 -60 -28.5 -98.5t-59 -66t-77.5 -49.5t-82 -48q49 -6 90 -11q35 -5 69.5 -11t48.5 -14t21 -12.5t9 -6.5q3 -3 2 -3l-55 -88q-57 29 -108 49q-22 9 -44.5 16
t-44 11.5t-39.5 5t-31 -5.5q-28 -12 -45.5 -12.5t-26.5 6t-10 18t4.5 22.5t16 19.5t24.5 9.5q29 5 62 20q28 13 64 37t75 65q44 47 58 87t7.5 71t-28.5 52t-49 30t-54.5 4t-45 -25.5t-20 -57.5t20.5 -94z" />
    <glyph glyph-name="three" unicode="3" horiz-adv-x="537" 
d="M75 169q-10 -13 -13.5 -34.5t0 -46t16 -48.5t34.5 -42t54.5 -27.5t77.5 -3.5q39 5 66.5 25.5t41 47.5t13 57t-17.5 54t-50.5 38t-85.5 10q-11 -1 -13.5 12t-1.5 30q1 19 5 44q57 12 90 35t47.5 50t13 55t-13.5 51t-32.5 38t-44.5 16q-23 1 -45.5 -11t-37.5 -34t-19.5 -52
t9.5 -65q-49 10 -61.5 37t-0.5 57.5t44 56.5t73 34q55 11 100 1.5t75 -32t43 -54.5t3 -66t-44.5 -67t-99.5 -57q64 -16 100.5 -49.5t48 -73t-1.5 -80.5t-48.5 -73.5t-92 -51.5t-132.5 -15q-53 3 -88.5 18t-55.5 37.5t-26 49t0.5 51.5t24.5 46t46 32z" />
    <glyph glyph-name="four" unicode="4" horiz-adv-x="470" 
d="M59 236q22 -5 48 -7t51.5 -3.5t48.5 -3t39 -4.5q4 21 13.5 62.5t20 87.5t19 88t9.5 64zM242 171q-24 0 -55 -0.5t-60 -1t-52 -1.5t-33 -2q-15 -2 -24.5 8t-14 25t-3.5 30.5t8 23.5l295 317q2 2 19.5 -1.5t37.5 -9.5t35.5 -14t14.5 -14q-9 -35 -18.5 -75t-18.5 -83
t-17.5 -86t-14.5 -83q11 -3 25 -7.5t25 -9.5v-11q-1 -5 -2 -8.5t-3 -2.5q-16 2 -28.5 2.5t-22.5 1.5q-13 -81 -22.5 -135t-11.5 -62q-32 9 -51.5 17.5t-29 16.5t-12 14.5t-1.5 10.5q5 16 10 37q5 18 11 44t14 59z" />
    <glyph glyph-name="five" unicode="5" horiz-adv-x="560" 
d="M464 543q10 -24 8 -43.5t-8 -33.5q-7 -17 -20 -30q-10 14 -25 25q-13 9 -32.5 16.5t-48.5 6.5q-29 -2 -53.5 -3t-42.5 -3q-21 -2 -39 -4l-46 -146q73 12 133 1q25 -5 50 -15.5t46 -29.5t35.5 -47.5t19.5 -68.5q6 -55 -18.5 -99.5t-66.5 -75.5t-94.5 -46.5t-103 -13
t-91 24.5t-58.5 66q-13 31 -8 56.5t17 43.5t26 28.5t19 11.5q-4 -35 2.5 -71t22 -66t40.5 -48.5t58 -16.5q55 2 93.5 27t57.5 59.5t15.5 73.5t-33.5 69.5t-88.5 46.5t-149.5 6l40 130q7 24 14 47.5t12.5 42.5t8 30.5t2.5 12.5q-20 19 -25 34.5t-0.5 26.5t15 17t21.5 6
t20 -7.5t11 -22.5q13 -2 36 0.5t50 6.5t55.5 6.5t53.5 1.5t43.5 -8.5t25.5 -24.5z" />
    <glyph glyph-name="six" unicode="6" horiz-adv-x="537" 
d="M417 433q-5 20 -21 46.5t-41 46.5t-58.5 26t-75.5 -14q-52 -26 -84 -67.5t-46.5 -90.5t-13.5 -101.5t12.5 -100t32.5 -85t48 -56.5q33 -24 64.5 -15.5t55.5 34t38.5 60t13.5 62.5q-1 33 -14.5 62t-34.5 49t-46.5 27t-51 -4.5t-48 -44.5t-36.5 -94q-2 53 12 91t37 62.5
t53 35.5t60 10t57 -14t46 -37q23 -30 28.5 -66.5t-3.5 -74.5t-30.5 -74t-52 -64.5t-68.5 -46t-80 -17.5q-32 0 -60 10.5t-49.5 31t-36 49t-19.5 63.5q-10 74 3.5 142t43 124.5t72 99.5t90.5 69q47 25 94.5 28t80 -14.5t43 -55t-14.5 -92.5z" />
    <glyph glyph-name="seven" unicode="7" horiz-adv-x="426" 
d="M289 470q-2 -1 -18.5 0t-42 3.5t-56.5 6.5t-61 9.5t-56.5 12t-42.5 13.5q-9 4 -10.5 15.5t4 26.5t17.5 31t30 30q97 -46 159.5 -61.5t100 -15t53.5 10t21 12.5q14 13 27 12.5t21 -7.5t8 -17.5t-12 -16.5q-45 -28 -79.5 -64t-59.5 -73.5t-42 -72.5t-26 -59q11 -1 28 -2
t33.5 -2.5t30 -2.5t18.5 -1q0 -7 -12.5 -11t-31 -6t-39.5 -3t-37 -1q-12 -36 -25 -78.5t-22.5 -82.5t-15 -74t-3.5 -53q-25 4 -42.5 11.5t-28 15.5t-15.5 15.5t-4 10.5q4 20 14 50t22.5 62.5t26 65.5t25.5 59q-10 1 -29 2t-38.5 2t-36 1.5t-20.5 0.5q0 7 15.5 11t37 6.5
t45 3.5t39.5 1q13 28 34 62.5t41 64.5t35.5 51.5t19.5 24.5z" />
    <glyph glyph-name="eight" unicode="8" horiz-adv-x="436" 
d="M270 335q29 24 40.5 51t10 52t-14 46t-31.5 33.5t-43.5 14.5t-48.5 -11q-29 -16 -34.5 -34.5t4.5 -40t31.5 -46t47 -51.5t51 -57.5t43.5 -64t24.5 -70t-5.5 -76.5q-13 -42 -46.5 -75t-95.5 -41q-61 -8 -104 4t-67.5 37t-30 60t9 73t48.5 75.5t89 68.5q-22 23 -38 49
q-14 22 -24.5 50t-6.5 59q6 48 43.5 83.5t106.5 41.5q37 3 71 -9.5t56 -36t28.5 -55.5t-11.5 -69q-11 -22 -28 -34t-34 -18q-19 -7 -41 -9zM167 261q-23 -17 -46.5 -39t-39.5 -47.5t-21.5 -53t6.5 -54.5q15 -35 43.5 -51t59 -17t58.5 12t42.5 36t11.5 55.5t-35 70.5
q-18 22 -38.5 44t-40.5 44z" />
    <glyph glyph-name="nine" unicode="9" horiz-adv-x="526" 
d="M26 122q3 -20 16 -48t35.5 -50.5t55.5 -32.5t77 6q55 20 90.5 58t55 85.5t24.5 99.5t-1.5 100.5t-24 88t-41.5 61.5q-30 27 -62 22t-59 -27.5t-45 -55.5t-19 -61q-2 -33 8 -63.5t29 -52t43.5 -31.5t50.5 -1.5t52 39t47 89.5q-6 -79 -41.5 -122t-80.5 -55t-89 3.5
t-68 54.5q-20 32 -21.5 69.5t11.5 74t38 70.5t58.5 58.5t73 38t81.5 9.5q31 -3 57.5 -17t46 -36.5t31 -52.5t12.5 -65q3 -75 -17.5 -140.5t-56 -119t-82.5 -92t-97 -58.5t-97 -18t-78 23t-37.5 59t24.5 90z" />
    <glyph glyph-name="colon" unicode=":" horiz-adv-x="158" 
d="M67 267q19 -6 27 -24.5t0 -39.5q-8 -20 -26 -30.5t-37 -4.5t-27 25t0 39t26 30.5t37 4.5zM67 442q19 -6 27 -25t0 -39t-26 -30.5t-37 -4.5t-27 24.5t0 39.5q8 20 26 30.5t37 4.5z" />
    <glyph glyph-name="semicolon" unicode=";" horiz-adv-x="169" 
d="M69 267q18 -6 24 -19.5t4 -31t-10.5 -36.5t-18 -35.5t-19 -28.5t-14.5 -15t-4 7t3 22.5t3 24t-4 13.5q-19 6 -27 25t0 39t26 30.5t37 4.5zM67 442q19 -6 27 -25t0 -39t-26 -30.5t-37 -4.5t-27 24.5t0 39.5q8 20 26 30.5t37 4.5z" />
    <glyph glyph-name="less" unicode="&#x3c;" horiz-adv-x="317" 
d="M0 316q38 17 69 30.5t59 28t54 31t55 39.5v-54q-26 -15 -43 -25.5t-32.5 -20t-32.5 -20t-42 -26.5q28 -14 46.5 -23.5t36 -18t36 -18t46.5 -22.5l7 -53q-32 21 -60 35.5t-58 26.5t-63 23t-73 24l-5 43v0z" />
    <glyph glyph-name="equal" unicode="=" horiz-adv-x="398" 
d="M316 285l14 -55q-88 -2 -166.5 -4t-163.5 -6l16 43q41 1 76 3.5t69.5 5.5t71.5 6.5t83 6.5zM336 389l13 -55q-85 -2 -161.5 -4.5t-157.5 -5.5l15 42q40 2 74 4.5t67 5.5t69 6.5t81 6.5z" />
    <glyph glyph-name="greater" unicode="&#x3e;" horiz-adv-x="310" 
d="M259 316l-5 -43q-41 -13 -73.5 -24t-62.5 -23t-58.5 -26.5t-59.5 -35.5l7 53q28 13 47 22.5l36 18t35.5 18t46.5 23.5q-25 16 -42 26.5t-32.5 20t-32.5 20t-43 25.5v54q28 -23 54.5 -39.5t54 -31t59 -28t69.5 -30.5z" />
    <glyph glyph-name="question" unicode="?" horiz-adv-x="434" 
d="M179 342q45 21 74 44.5t45.5 48t22 49.5t1.5 48q-10 57 -42 82t-70 26.5t-73.5 -16.5t-52.5 -46t-7 -62.5t64 -66.5q-63 -10 -96.5 6t-41 45t9 65t53.5 65.5t92 46t124 7.5q49 -7 83 -27.5t51 -51t15 -67t-24 -74t-66 -74t-111 -65.5q-57 -25 -77.5 -56.5t-20 -60.5
t14 -50t24.5 -25q-30 -6 -54.5 1t-40 23t-19.5 38.5t7 47.5t38.5 51t76.5 48zM111 87q21 -7 29.5 -28t0.5 -44t-28.5 -34.5t-41.5 -4.5t-30 27.5t-1 43.5t29 35t42 5z" />
    <glyph glyph-name="at" unicode="@" horiz-adv-x="764" 
d="M375 399q-17 -6 -30 -23.5t-22 -40.5t-14 -48.5t-5 -48t5 -39t15 -20.5q21 -10 37.5 4.5t28 41.5t17 59.5t4.5 60.5t-10 44t-26 10zM616 153q-27 -21 -55.5 -31t-55 -5.5t-48 23.5t-35.5 55q-11 -21 -24.5 -39t-30.5 -30.5t-37 -18.5t-43 -4q-26 3 -43 24.5t-24.5 54.5
t-5 72t14.5 76t34 67.5t55 46.5q29 14 58 12t49 -26l3 -3q2 7 4 13.5t4 14.5q51 -15 67 -24t14 -16q-25 -98 -24 -156.5t17 -85t41.5 -24t51.5 25.5q44 40 61 91.5t11 105.5t-32 104.5t-67 88t-95.5 56.5t-117.5 10q-62 -9 -114.5 -47t-90 -93t-58 -122.5t-19.5 -135.5
t23 -124.5t57.5 -97t81 -62t93 -20t93.5 28.5t84 85q-5 -41 -31.5 -73.5t-66 -53.5t-88 -28.5t-97 0.5t-93.5 33.5t-77.5 71.5t-48.5 114t-7 161q6 63 35 124.5t73.5 114t101.5 92.5t119 60q66 22 122 18.5t101.5 -24.5t79 -57.5t54 -81t27.5 -94.5t-1.5 -98.5t-33 -92
t-66.5 -76.5z" />
    <glyph glyph-name="A" unicode="A" horiz-adv-x="714" 
d="M574 224q0 -47 4.5 -87.5t22 -65.5t51 -29.5t91.5 21.5l0.5 -4t0.5 -10v-11.5v-6.5q-91 -50 -149.5 -48t-91 40.5t-42 105.5t-0.5 148q-19 8 -39.5 14t-49.5 9q-25 -59 -51.5 -114t-57.5 -97t-69 -66.5t-87 -21.5q-31 2 -58 27.5t-40 62.5t-6.5 80.5t41 81.5t102.5 64
t179 30q32 71 62 141.5t58 128t53.5 95t48.5 43.5q13 3 30 -5t31 -21.5t23.5 -28t7.5 -23.5q-14 -58 -25 -120q-11 -53 -21 -116.5t-15 -123.5q7 -2 21.5 -9.5t24.5 -21.5t9.5 -35t-22.5 -51q-9 7 -18.5 12.5t-18.5 11.5zM309 307q-91 1 -148 -16.5t-86.5 -43t-35.5 -54.5
t6 -51q13 -24 42 -35t66 3.5t78 60.5t78 136zM388 347q11 0 24 -1t26 -3q14 -2 30 -3q5 36 12 78t14.5 84t14.5 80.5t13 66.5q-29 -60 -55 -116q-11 -24 -23 -49.5t-22.5 -50t-19 -47t-14.5 -39.5z" />
    <glyph glyph-name="B" unicode="B" horiz-adv-x="724" 
d="M426 574q-4 -14 -16.5 -52t-27.5 -88t-28.5 -107.5t-20.5 -111.5q28 -2 51 -0.5t37 6.5q8 2 4.5 -7.5t-12.5 -22t-21 -23.5t-20 -12q-13 -2 -44 6q-2 -35 3 -63t17.5 -46t34.5 -23.5t55 5.5q36 12 69.5 37.5t55 55.5t28.5 60.5t-9 53t-58.5 33t-118.5 0.5q-9 4 -14 12.5
t-5.5 18t2 19t7.5 16.5q121 165 112 248t-146 82q-80 0 -142 -25.5t-102.5 -65.5t-58 -89.5t-7.5 -97.5t49 -90t111 -66q2 14 4 35t4 30q7 39 19.5 86t27.5 93.5t30.5 87.5t29.5 69q34 -9 54.5 -18.5t31 -18.5t13 -16t1.5 -11zM210 204q-11 5 -19 10q-83 40 -127.5 95
t-57.5 114.5t2.5 119t53.5 108t95 81t127 38.5q110 9 178 -16.5t92 -79t2 -131t-92 -171.5q14 2 40.5 1.5t55.5 -7.5t57 -21t45 -38t17.5 -59.5t-23.5 -84.5q-22 -45 -62 -81t-87.5 -57.5t-97.5 -25.5t-92 15.5t-71.5 65.5t-35.5 124z" />
    <glyph glyph-name="C" unicode="C" horiz-adv-x="511" 
d="M541 92q-100 -70 -183.5 -91t-149 -6t-111.5 60.5t-70.5 109t-26 138t22 149t73.5 142t128 115.5q73 44 145 41q57 -2 95 -29t55 -64t11.5 -77.5t-35.5 -70t-85.5 -41t-137.5 8.5q64 8 107 28t68.5 44.5t34.5 51.5t3.5 49t-24.5 36t-48 14q-44 -1 -82.5 -27t-70 -68.5
t-55 -97.5t-36 -113.5t-13.5 -116t11.5 -105t39.5 -81.5t71 -45t105.5 5t143.5 68z" />
    <glyph glyph-name="D" unicode="D" horiz-adv-x="711" 
d="M416 572q-5 -14 -17.5 -52t-27.5 -88.5t-28.5 -108t-20.5 -111.5q29 -2 52 -0.5t37 5.5q8 2 4.5 -7.5t-12.5 -21.5t-20.5 -23t-19.5 -12q-14 -2 -46 6q-1 -35 3.5 -63t17.5 -45.5t34.5 -22.5t54.5 6q35 12 62.5 46t46.5 82t27.5 105t4.5 114.5t-21 111t-50 93.5t-82 62
t-116 18q-58 -4 -106.5 -24.5t-83.5 -52t-54.5 -71.5t-18.5 -83t24 -86.5t73 -81.5q31 -20 67 -32q2 13 4 34.5t4 30.5q7 39 19.5 86t27.5 93.5t31 87.5t29 69q34 -9 54.5 -18.5t31 -18.5t13.5 -16t2 -11zM199 202q-13 5 -27 14q-79 41 -119.5 96.5t-49 115t10 118.5
t56 106.5t90.5 79t113 36.5q97 8 170.5 -17.5t123.5 -73.5t77.5 -112.5t34.5 -134.5t-6.5 -140t-46.5 -129t-84.5 -101.5t-120.5 -57.5q-54 -12 -94 -0.5t-67.5 39.5t-42.5 70t-18 91z" />
    <glyph glyph-name="E" unicode="E" horiz-adv-x="523" 
d="M408 256q10 1 26 -6.5t29.5 -21.5t22 -34.5t3.5 -46t-26 -55.5t-66 -63q-26 -19 -59.5 -28.5t-68.5 -12.5t-69 0.5t-60 10.5q-49 13 -80.5 44.5t-46 73t-12.5 89t20.5 92.5t53 83.5t84.5 62.5q-44 38 -58 81.5t-6.5 84t34.5 74.5t66.5 55t87.5 25t99 -16q27 -11 46.5 -36
t21.5 -51.5t-18 -48.5t-72 -27q21 28 31.5 55.5t7.5 48.5t-21.5 34t-55.5 13q-36 0 -63.5 -14t-43.5 -38.5t-19 -57t10 -68t43.5 -72t81.5 -69.5q-42 -3 -79.5 -27t-66.5 -60t-46 -80.5t-17.5 -87.5t19 -81t63.5 -62q28 -15 57 -12t55 19t48 42.5t35 57.5t16.5 65t-7.5 65z
" />
    <glyph glyph-name="F" unicode="F" horiz-adv-x="540" 
d="M431 642q-1 -6 -3 -30.5t-6 -61t-9 -81.5t-12 -92q42 -2 76 -4t50 -2q0 -10 -10 -16.5t-28 -10.5t-42.5 -6t-51.5 -2q-7 -45 -14.5 -87.5t-17.5 -75.5q-22 -79 -56 -122.5t-76.5 -51t-92.5 19.5t-104 89q0 1 2.5 5.5t4.5 9t4.5 7.5l2.5 3q27 -27 52 -47t48 -21t44 22.5
t42 82.5q11 32 21.5 76t19.5 93q-35 2 -62.5 3t-40.5 1q-1 18 31 25.5t79 9.5q8 50 15 98.5t12 88.5t8 67.5t4 36.5q-36 12 -69.5 23.5t-64.5 17t-58 2.5t-49 -19q-36 -27 -40.5 -66.5t19 -76t73.5 -63t122 -27.5q4 0 -1 -10.5t-18.5 -22.5t-34.5 -20t-48 -3
q-44 8 -76.5 31.5t-51 55t-23 68.5t6 71t37.5 62t72 43q46 16 93 14.5t96 -10t100 -21t105.5 -19.5t112 -4t120.5 24q-6 -13 -13.5 -26.5t-16.5 -26t-19.5 -22.5t-22.5 -16q-26 -11 -56.5 -13t-62 2t-63 11t-59.5 14z" />
    <glyph glyph-name="G" unicode="G" horiz-adv-x="557" 
d="M218 83q39 -19 68 -5.5t49 46.5t32.5 78.5t19.5 92t10 88t3 64.5q24 -5 45.5 -10t37.5 -10t25.5 -10t9.5 -10q-6 -110 -20 -224t-38 -222q-20 -80 -50.5 -126t-62.5 -65.5t-63 -17t-53 19.5t-31.5 44t1.5 56t45 55.5t100 42.5q10 38 17.5 79t12.5 85q-14 -24 -31.5 -47.5
t-39.5 -41.5t-48.5 -28t-57.5 -7q-53 5 -91.5 33.5t-63 73t-35 101t-8 117.5t18.5 122.5t45 115.5q37 68 80.5 108.5t88 59t87 17.5t78.5 -16q50 -21 74.5 -52.5t27.5 -66t-13.5 -66t-49 -52t-79 -26t-102.5 14.5q41 2 75.5 17.5t59.5 39t40 51t16.5 52.5t-12 43.5
t-43.5 23.5q-32 6 -64 -9t-60 -40.5t-50 -57t-34 -58.5q-14 -34 -26 -78t-18.5 -92t-7 -96t8 -89t27 -72.5t49.5 -45.5zM337 -63q-38 -12 -61 -28.5t-34.5 -33t-12 -30.5t5.5 -22t17.5 -7.5t25.5 12.5t29.5 38.5t29.5 70.5z" />
    <glyph glyph-name="H" unicode="H" horiz-adv-x="638" 
d="M500 175q1 -64 14 -94t35.5 -37.5t52 2.5t63.5 25l0.5 -4.5t1 -9.5t1 -10.5t0.5 -6.5q-69 -38 -124.5 -44.5t-93 17t-56 77.5t-14.5 137q2 20 3 36t5 42q-7 1 -21 4.5t-31.5 9t-36.5 11t-34 11.5q-5 -20 -14 -61.5t-19 -88.5t-19.5 -90.5t-14.5 -68.5q-3 -14 -16.5 -22.5
t-33.5 -12t-43.5 -2.5t-45.5 6q15 47 32.5 105.5t32.5 114t26 100.5t15 65q-68 36 -104.5 78t-50 82.5t-8.5 78t22 64.5q17 28 48.5 44t66.5 18t68 -11t54 -41q19 -26 26.5 -59t7.5 -71.5t-5.5 -83.5t-14.5 -95q31 -13 60.5 -22t58.5 -16q8 59 19 122t21 116t17.5 89.5
t8.5 43.5q69 -22 96 -46t25 -34q-12 -48 -24 -99q-11 -45 -22.5 -99t-19.5 -110q10 -1 18 -0.5t14 1.5q5 -23 1 -34t-11.5 -15t-16 -3.5t-12.5 0.5q-5 -33 -6.5 -58t-1.5 -51zM175 428q16 91 9 148.5t-26 87.5t-44.5 34.5t-46.5 -8.5q-20 -13 -31 -40.5t-2.5 -63t41.5 -76.5
t100 -82z" />
    <glyph glyph-name="I" unicode="I" horiz-adv-x="317" 
d="M174 171q-1 -64 11 -94t33.5 -37t51 2.5t63.5 24.5q1 0 1.5 -4t1.5 -9.5t1.5 -11t0.5 -6.5q-70 -38 -125.5 -44.5t-92.5 17t-54 77.5t-11 137q2 23 6.5 54.5t9 60t7.5 48.5l3 20q-29 -2 -60 0q-2 0 -5 10.5t-6 23t-5.5 23.5t-4.5 12q26 -5 48.5 -7.5t43.5 -4.5
q19 74 38 133.5t51 110.5q28 32 56 41t53 1t44.5 -30t30 -52t9 -64.5t-18.5 -67.5t-52 -61.5t-91 -46.5q-15 -67 -26.5 -135.5t-11.5 -120.5zM222 473q48 13 77 39.5t41.5 56t12 56.5t-10.5 41q-8 12 -21.5 11t-30 -22t-34.5 -65t-34 -117z" />
    <glyph glyph-name="J" unicode="J" horiz-adv-x="412" 
d="M146 -71q7 22 12.5 39.5t10 34.5t9 34.5t9.5 40.5q-16 -11 -36.5 -29.5t-41 -41t-38 -47t-29 -49t-14 -47t8.5 -40.5q7 -12 20 -12t28 13.5t31 39t30 64.5zM369 371q-16 -90 -34 -184.5t-42.5 -178t-56.5 -148t-75 -93.5q-23 -16 -46 -20t-43 1t-35.5 17t-24.5 29
q-13 29 -10.5 64t16.5 70.5t36 71t48 66t52 54t48 37.5q9 27 17.5 69t15.5 82t12 70t5 33q-52 32 -78 75.5t-30 88.5t11 85.5t45 66.5t71.5 31t90.5 -20q19 -10 28 -31.5t12 -50t0.5 -60.5t-7 -62.5t-9.5 -57t-7 -43.5q8 -3 19 -7q9 -3 20 -6.5t24 -5.5q-13 -23 -22.5 -33.5
t-18 -13.5t-16 -0.5t-16.5 4.5zM260 470q3 17 7.5 42t7 53t3 55t-3.5 49t-13 35t-25 12q-28 -2 -45 -32t-17 -70t20 -80.5t66 -63.5z" />
    <glyph glyph-name="K" unicode="K" horiz-adv-x="635" 
d="M147 173q6 17 11.5 38t10.5 45q-45 -23 -72 -47.5t-40.5 -47.5t-15 -42t4.5 -31q6 -11 17.5 -14t26 6t29.5 31.5t28 61.5zM304 314q-5 -26 -11.5 -58.5t-15.5 -65.5t-21 -65.5t-28.5 -58.5t-38 -44t-49.5 -23q-18 -3 -38.5 -0.5t-39 11t-33 22t-21.5 32.5q-15 42 -1 78.5
t42.5 67t64.5 54t65 39.5q13 66 23 139.5t16 135.5q7 72 12 142q1 10 34 24.5t104 12.5q-1 -6 -5.5 -44.5t-12 -94t-17 -121.5t-19.5 -128q46 43 76.5 81t53 80t40 93t38.5 120q1 3 11.5 4t24.5 2t29.5 1.5t26.5 2.5q-16 -90 -44 -156t-64 -114.5t-77.5 -83.5t-84.5 -62
q50 -19 87 -60t72 -88t73 -92.5t89 -73.5q-28 -9 -54 -14q-22 -5 -45 -6t-37 7q-34 18 -60 56t-50.5 82.5t-51.5 89t-63 76.5z" />
    <glyph glyph-name="L" unicode="L" horiz-adv-x="416" 
d="M649 -19q-12 -27 -22 -44.5t-21.5 -28.5t-26 -16.5t-35.5 -7.5q-50 -4 -99.5 11.5t-91 35.5t-72.5 38t-45 19q-23 -54 -51.5 -82t-58 -36.5t-55.5 -1.5t-44 23t-24 38.5t5 44.5t43 40t90 26q15 53 28 117t23 131t18 134t13.5 126.5t8 107.5t3.5 79q24 -5 47 -12
t40.5 -14.5t28 -14.5t10.5 -12q-2 -40 -8 -94t-14.5 -114t-19 -123.5t-22.5 -123t-24 -112t-24 -91.5q56 -24 106 -37.5t98 -18t96 -0.5t100 13zM129 -5q-34 -4 -55.5 -13.5t-33 -20.5t-14 -22t2.5 -18q4 -7 14.5 -9t24 5.5t29.5 26t32 51.5z" />
    <glyph glyph-name="M" unicode="M" horiz-adv-x="902" 
d="M762 168q3 -64 17 -91t36.5 -31t52.5 8.5t63 27.5q1 0 0.5 -4.5t-1 -11t-1 -12.5t-0.5 -7q-68 -38 -123 -44.5t-93 17t-58 77t-18 136.5q1 28 3 54.5t5 54.5t7 59t10 69q-9 -10 -28 -35.5t-43 -56t-50 -60.5t-50 -49t-43.5 -21t-28.5 24q-31 85 -50.5 158.5t-30.5 121.5
q-11 -72 -22.5 -145t-25.5 -146q17 -5 27.5 -11t16 -14t6.5 -20t-1 -30q-32 16 -59 26q-9 -38 -19.5 -73t-23.5 -58q-25 -48 -55.5 -66.5t-60.5 -16t-56.5 22t-43 47.5t-20 61.5t11.5 63t52.5 52t102.5 29.5q23 106 37 214t25 214q1 7 22.5 16t47 14t47.5 3t24 -17
q3 -23 8 -54t12 -66.5t15 -72.5t16 -70t15.5 -60t13.5 -43q2 -6 19 11t41.5 48t53.5 72t56 84t48 82.5t31 68.5q4 13 25 7t44 -20t40.5 -30.5t16.5 -24.5q-19 -93 -34 -182q-6 -38 -12 -78.5t-10.5 -80t-6.5 -75.5t-1 -66zM158 233q-45 -2 -73.5 -14t-43.5 -29.5t-19 -38
t0.5 -38t15.5 -30.5t25 -15q20 -3 36 17t28 48.5t20 57t11 42.5z" />
    <glyph glyph-name="N" unicode="N" horiz-adv-x="664" 
d="M215 685q1 27 23 43t48 20t48 -3t22 -26q0 -95 12.5 -180t32.5 -160t45 -138.5t51 -114.5q1 54 3 113.5t6 119.5t10.5 119t17.5 114q15 80 50 116.5t80 37.5t96 -29.5t100 -83.5q-2 -8 -4 -6q-28 26 -59 44t-60 17t-54 -27t-41 -88q-9 -35 -16 -88t-12.5 -112t-9 -118.5
t-5.5 -106.5t-3 -77l-1 -30q2 -8 -9.5 -18.5t-29 -17.5t-38 -7.5t-35.5 13.5q-11 9 -25.5 41t-31.5 76t-34 94.5t-31.5 97t-25.5 84.5t-15 57q-4 -29 -8 -62q-4 -28 -9 -63.5t-13 -73.5q34 -11 43.5 -25.5t5.5 -50.5q-16 8 -30.5 15t-28.5 12q-9 -39 -20 -73.5t-23 -58.5
q-25 -48 -55.5 -66.5t-60.5 -16t-56.5 22t-43 48t-20 61.5t11.5 63t52.5 52.5t103.5 29.5q11 52 19 108.5t13.5 111.5t8.5 104t5 86zM116 107q25 48 44 127q-59 -2 -90.5 -21t-42.5 -44.5t-5 -51t21 -39t35 -9.5t38 38z" />
    <glyph glyph-name="O" unicode="O" horiz-adv-x="596" 
d="M98 584q6 38 25.5 72t50 59t71 38t87.5 8q70 -7 119 -45.5t78.5 -95.5t38.5 -127.5t-1 -142.5t-40 -139t-79 -117.5t-117 -78t-155 -20.5q-43 4 -74 29t-52.5 64t-33 88t-14.5 101t2.5 102.5t18 92.5t31.5 72t44 40zM377 424q-17 -26 -45 -44.5t-59.5 -26t-63.5 -2
t-56 29.5q-28 28 -40 64q-20 -72 -20.5 -144t17 -129.5t51.5 -94t83 -36.5q38 0 71 29t59 76t44.5 107.5t27.5 124t7.5 124t-14 109t-38 78.5t-65.5 32q-36 2 -66 -15.5t-52 -45.5t-35 -63t-14.5 -69t9 -63.5t35.5 -46.5t65.5 -17.5t98.5 23.5z" />
    <glyph glyph-name="P" unicode="P" horiz-adv-x="626" 
d="M185 158q11 28 21 66t18 82q-25 13 -33.5 29.5t-4 31.5t19.5 26.5t37 15.5q8 49 14.5 95t11.5 82q5 42 10 79q0 4 8.5 10.5t25.5 11.5t43 8t62 1q-1 -6 -5.5 -34.5t-12 -72t-17 -97.5t-20.5 -110q8 -4 18.5 -11t18.5 -14q10 -8 20 -17q46 17 77.5 51t46.5 76.5t12.5 88.5
t-24.5 86t-64 69t-106 38q-58 8 -105.5 -16.5t-76.5 -68t-35 -99.5t20 -113q-20 4 -33.5 12.5t-22.5 17.5t-13 17t-5 12q-12 54 9 102.5t63 85.5t99 60.5t118.5 27.5t121 -13t106.5 -61q41 -39 55 -92.5t2.5 -109t-46.5 -106t-92 -83.5q-42 -24 -89 -33.5t-95 -7.5
q-8 -34 -14.5 -63.5t-13.5 -52.5q-23 -75 -56 -116t-74 -49.5t-88 13t-97 70.5q1 3 8 11.5t8 7.5q27 -25 49 -40.5t41.5 -13t38.5 27.5t40 82zM229 327q2 15 5 29.5t5 29.5q-13 -4 -22 -11.5t-11.5 -16t2.5 -17t21 -14.5zM367 325q-2 2 -2.5 3.5t-2.5 3.5q-2 4 -6 10
q-2 -8 -4 -20z" />
    <glyph glyph-name="Q" unicode="Q" horiz-adv-x="591" 
d="M97 584q6 38 25.5 72t50 59t71 38t87.5 8q65 -7 112.5 -41t77.5 -85.5t42 -116t7 -132t-27 -132.5t-60.5 -118.5t-94.5 -90.5t-128 -47q28 -17 57.5 -35t64 -27.5t75 -7.5t88.5 26q-51 -58 -94 -77t-82 -13.5t-75.5 27.5t-74 44.5t-78 38.5t-86.5 10q24 24 50 37
q-38 27 -61.5 76t-34 108t-9 121t13 115.5t33 92t50.5 50.5zM376 424q-17 -26 -45 -44.5t-59.5 -26t-63.5 -2t-56 29.5q-28 28 -40 64q-20 -72 -20.5 -144t17 -129.5t51.5 -94t83 -36.5q38 0 71 29t59 76t44.5 107.5t27.5 124t7.5 124t-14 109t-38 78.5t-65.5 32
q-36 2 -66 -15.5t-52 -45.5t-35 -63t-14.5 -69t9 -63.5t35.5 -46.5t65.5 -17.5t98.5 23.5z" />
    <glyph glyph-name="R" unicode="R" horiz-adv-x="722" 
d="M183 154q10 29 18 67t16 83q-26 13 -35 29t-5 31t18.5 27t36.5 16q7 50 12 96t9 82q4 42 7 80q0 4 8 10.5t25 12t43 8.5t61 2q-1 -6 -4.5 -35t-9.5 -73t-13.5 -98.5t-16.5 -110.5q8 -4 18.5 -11t19.5 -14q11 -8 20 -17q45 17 75.5 52t44 77.5t9.5 89t-27 86.5t-66 69
t-108 37q-39 5 -73.5 -5t-62.5 -30.5t-47.5 -50.5t-27 -65t-2.5 -73.5t26 -76.5q-20 4 -33.5 12.5t-22.5 17.5t-13.5 17t-5.5 12q-13 55 6 104t59.5 86.5t97 61.5t117.5 28.5t121 -12.5t108 -60q32 -30 49 -68.5t19.5 -80t-10 -84t-38.5 -80t-65 -67t-91 -45.5
q29 -33 57 -69.5t62.5 -71.5t78 -67t104.5 -57q-51 -21 -92.5 -20t-75 17t-61 44.5t-51 63.5t-45 74t-42.5 75q-24 -1 -49 0q-6 -35 -12 -65t-12 -53q-20 -76 -51.5 -117t-72 -50t-88.5 12t-100 70q0 1 2.5 5t5.5 7.5t6 6l3 2.5q28 -25 50 -40.5t41.5 -13.5t37 27.5
t37.5 82.5zM220 325q2 14 4.5 29t4.5 30q-13 -5 -22 -12.5t-11 -16t3.5 -16.5t20.5 -14zM359 323q-2 2 -3 4l-2 4q-3 3 -7 9q-1 -5 -1.5 -9.5t-1.5 -9.5q5 0 15 2z" />
    <glyph glyph-name="S" unicode="S" 
d="M307 730q-52 -2 -78.5 -28.5t-34 -64t1.5 -79t27 -73.5q18 -30 38.5 -54t41.5 -47.5t39.5 -49t31.5 -59.5q22 -57 19 -107t-27 -88.5t-66.5 -62.5t-100.5 -28q-68 -4 -112 23t-65 68t-21 87t21 80t61 47t98 -12q-43 -8 -70.5 -34t-41 -59.5t-12.5 -69t15.5 -62t42 -38.5
t67.5 2q37 12 60.5 43.5t30 71t-6 81t-47.5 74.5q-36 33 -66 73.5t-48.5 85t-23 92.5t11.5 97q10 32 30 55.5t46 38.5t56.5 21.5t62.5 5.5q47 -1 78 -24.5t44.5 -56t9 -67t-27 -58t-64 -29.5t-102.5 18q47 12 78.5 31t48.5 40.5t21.5 42.5t-2 37.5t-23.5 26.5t-42 9z" />
    <glyph glyph-name="T" unicode="T" horiz-adv-x="503" 
d="M355 179q1 -64 15 -93.5t36.5 -36t53 4t64.5 25.5v-5v-11t-0.5 -12t-0.5 -7q-69 -38 -124.5 -44.5t-93 17t-56 77.5t-14.5 137q2 30 8 70t15.5 83.5t20.5 87t21.5 81.5t20 66.5t15.5 42.5q-37 12 -72.5 24.5t-68 19t-61 4t-51.5 -19.5q-24 -18 -34.5 -42t-8 -49.5
t17.5 -50.5t42 -45t65 -32.5t87 -13.5q4 0 -1.5 -10.5t-19.5 -22t-35 -20t-48 -3.5q-44 8 -75.5 31.5t-49.5 55t-22 68.5t8 71t39.5 62.5t72.5 43.5q46 15 93 14t95.5 -10t99.5 -21.5t105 -19.5t112 -4t121 24q-12 -25 -30 -52t-44 -38t-56.5 -13t-62 1.5t-63 10.5t-58.5 14
q-3 -12 -10.5 -41t-16.5 -68t-18 -85.5t-17 -93.5t-12.5 -91.5t-3.5 -80.5z" />
    <glyph glyph-name="U" unicode="U" horiz-adv-x="699" 
d="M564 176q0 -64 14 -93.5t37 -36t52.5 4t59.5 26.5q1 0 1.5 -5t0.5 -11v-12v-8q-118 -63 -191.5 -40.5t-89.5 127.5q-35 -48 -75.5 -79.5t-79.5 -45t-74.5 -7.5t-61 33t-39 76t-7.5 123q3 42 11 92t19 108q-38 7 -65 24.5t-43.5 40.5t-24 49t-7.5 50q0 48 25.5 85t62 56.5
t77.5 18t72.5 -29.5t45 -85t-3.5 -150l22 8q8 3 16.5 5.5t11.5 3.5q2 0 3 -11t-4.5 -25t-20 -27t-42.5 -16q-15 -69 -25.5 -132t-10.5 -117q-1 -76 13.5 -109.5t37 -36.5t49.5 19.5t51.5 58.5t43.5 80t25 85q3 20 10.5 59.5t16.5 87.5t19.5 99.5t19 95t14.5 73.5t7 36
q68 -21 95 -45.5t24 -34.5q-26 -89 -46 -174q-9 -36 -17 -75.5t-14.5 -78t-10.5 -74.5t-4 -66zM143 490q6 -3 7 -3h1q13 77 9.5 123.5t-15.5 69.5t-30.5 25.5t-35.5 -8.5q-21 -13 -35.5 -40.5t-12 -59t27.5 -61t84 -46.5z" />
    <glyph glyph-name="V" unicode="V" horiz-adv-x="326" 
d="M180 146q6 23 22 73t37 112t45 130t46.5 127.5t42 104.5t31.5 61q11 2 22 2q10 0 21 -2.5t21 -10.5q-18 -17 -42 -64.5t-51 -112.5t-54.5 -141.5t-51.5 -152t-43 -144.5t-29 -119q-4 -7 -16.5 -8.5t-26.5 1t-26.5 10t-16.5 18.5q-8 25 -19 70t-22.5 103.5t-23.5 127.5
t-21.5 141t-16 144t-8.5 136h46t41.5 -6t30.5 -19.5t12 -39.5v-85.5t3.5 -117.5t14 -151t32.5 -187z" />
    <glyph glyph-name="W" unicode="W" horiz-adv-x="514" 
d="M361 143q6 24 22.5 73.5t39 111.5t48.5 129t50.5 126.5t44.5 104t32 61.5q13 2 25 2q11 0 22.5 -3t21.5 -11q-17 -18 -43 -64.5t-55 -111t-59.5 -140t-57 -150.5t-46.5 -144.5t-29 -120.5q-4 -7 -16.5 -9t-26.5 1t-26.5 10t-16.5 19q-10 28 -13 87.5t-2.5 130.5t4 142
t7.5 122q-12 -28 -25.5 -68.5t-27 -87.5t-26 -97.5t-24 -99.5t-20.5 -92.5t-14 -76.5q-4 -7 -16.5 -8.5t-26.5 1.5t-27 10t-17 19q-9 25 -18.5 80t-18 125t-15 149.5t-9.5 154t-1 138.5t10 103q22 -6 42.5 -9.5t36 -10.5t24 -19t6.5 -35q-2 -26 -2 -70.5t1.5 -99.5t4 -114.5
t5 -115t4 -102t1.5 -74.5q6 22 17.5 69t27.5 106t34 123.5t36 122.5t34 104t28 67q69 -17 92.5 -30t20.5 -23q-4 -14 -10.5 -48t-13.5 -80t-13.5 -99.5t-12.5 -105t-9.5 -97t-3.5 -75.5z" />
    <glyph glyph-name="X" unicode="X" horiz-adv-x="450" 
d="M426 71q-18 -22 -34 -37q-14 -13 -28.5 -19.5t-22.5 4.5q-23 31 -50 81.5t-55 113.5q-18 -20 -43.5 -49.5t-54 -60.5t-58.5 -59.5t-56 -44.5l-24 30q15 8 32 22t35 32t35.5 38t34.5 40q39 47 79 100q-23 55 -44 115t-39.5 120t-32.5 118.5t-23 111.5q42 12 70 17.5
t45 5.5t24.5 -4.5t8.5 -12.5q8 -85 27.5 -174t45.5 -172q67 112 92 197.5t20 140.5q13 5 26 8q11 2 23.5 3t21.5 -2q5 -17 -2 -57.5t-27 -96t-53 -122t-79 -136.5q24 -67 50.5 -129.5t55.5 -121.5z" />
    <glyph glyph-name="Y" unicode="Y" horiz-adv-x="531" 
d="M215 85q26 -8 48 11t40.5 56.5t34 89.5t27.5 109t20.5 115.5t14 109t8.5 89t3 55.5q24 -5 45.5 -10t38 -10t26 -10t9.5 -10q-5 -86 -14.5 -179.5t-23 -188t-31 -187.5t-37.5 -177q-21 -77 -51.5 -120.5t-62.5 -61.5t-62.5 -14.5t-51.5 20.5t-30 44t2 55.5t45.5 55
t99.5 42.5q5 19 11.5 51.5t12.5 68.5t11.5 70t8.5 55q-5 -29 -19 -65.5t-35.5 -67.5t-49 -51.5t-58.5 -17.5q-51 5 -79 37.5t-39 79.5t-9.5 102t8 104t14 85t8.5 47q-46 33 -68.5 71t-27 74.5t6 67.5t30.5 50q25 23 61.5 33t70 8.5t58 -14.5t26.5 -37q1 -22 -2 -49t-9 -57.5
t-12.5 -62.5t-11.5 -63q16 -5 30 -9q12 -4 24.5 -7t20.5 -5q-11 -22 -24.5 -30.5t-26.5 -10t-22.5 1t-11.5 3.5q-7 -26 -13 -60.5t-10 -71.5t-5 -73.5t1.5 -66t10 -50t21.5 -24.5zM109 529q0 -1 3 17.5t7.5 42t8.5 43.5t4 21q9 38 4.5 57.5t-17.5 25t-30 -2.5t-33 -25
q-14 -15 -19.5 -38.5t0 -49t23 -50t49.5 -41.5zM304 -64q-38 -12 -61 -28.5t-34 -33t-11.5 -31t5.5 -22.5t17.5 -7.5t25.5 13t29 39t29 70.5z" />
    <glyph glyph-name="Z" unicode="Z" horiz-adv-x="574" 
d="M561 98q-25 -50 -44 -73t-45 -25q-42 -2 -81 8t-71.5 23.5t-56.5 25.5t-36 13q-39 -60 -81 -79.5t-75.5 -12.5t-53.5 31.5t-16 52.5t38 51t108 27q34 56 70.5 123.5t71.5 136t67 134t56 118.5q-28 -29 -65.5 -45t-76 -19.5t-75.5 5.5t-64 30.5t-41 54t-7 77.5
q60 -38 109 -54t88 -17.5t69 7t50.5 19t33 19t17.5 7.5q18 -5 39 -14t38.5 -19.5t28 -20t8.5 -13.5q-5 -9 -20.5 -38.5t-39.5 -74t-54 -99.5t-63.5 -114t-68 -118.5t-67.5 -112.5q28 -9 64 -15.5t76 -9t83.5 -0.5t86.5 11zM120 100q-30 -1 -50 -6.5t-31 -13t-14.5 -15.5
t-0.5 -15q3 -8 12.5 -11.5t23 1t29.5 18.5t31 42z" />
    <glyph glyph-name="bracketleft" unicode="[" horiz-adv-x="263" 
d="M355 682q-7 -1 -23.5 0.5t-37.5 3t-43.5 3t-41.5 2t-31.5 -0.5t-13.5 -5q-20 -97 -35.5 -187t-28 -179.5t-24 -180t-22.5 -189.5q-1 -4 13 -8t34.5 -8t45.5 -7.5t46.5 -6.5t37 -4.5t18.5 -0.5l-3 -57q-8 2 -30 5t-49.5 7t-57 8.5t-54 9.5t-40 10t-14.5 10
q32 199 65 410.5t65 422.5l227 14l-3 -72v0z" />
    <glyph glyph-name="backslash" unicode="\" horiz-adv-x="264" 
d="M0 739l35 41q33 -103 64.5 -201t62.5 -193.5l62 -191t63 -194.5l-51 7q-29 105 -55 194t-53 175t-58 173.5t-70 189.5z" />
    <glyph glyph-name="bracketright" unicode="]" horiz-adv-x="355" 
d="M3 -71q7 0 23.5 -1t38 -2.5t44 -3t41.5 -2t31.5 0.5t13.5 5q20 97 35 187t28 179t24 180t22 190q0 3 -12.5 7.5t-32.5 8.5t-43.5 7.5t-44.5 6.5t-36 4t-17 1l3 57q9 -2 30 -5.5t47.5 -7t55 -8t51.5 -9.5t38 -10t14 -10q-31 -199 -64 -410.5t-65 -422.5l-228 -14l3 72v0z
" />
    <glyph glyph-name="asciicircum" unicode="^" horiz-adv-x="263" 
d="M158 689q16 -38 31.5 -68t32.5 -57.5t36.5 -53.5t43.5 -55l-51 -7q-15 25 -26.5 44t-22.5 36.5t-23 36t-28 43.5q-16 -26 -27.5 -44t-22 -35t-22 -35.5t-27.5 -44.5l-52 4q23 29 43.5 55t39 53.5t35.5 58t33 68.5l7 1v0z" />
    <glyph glyph-name="underscore" unicode="_" horiz-adv-x="355" 
d="M318 -33l14 -55q-88 -2 -167.5 -4.5t-164.5 -5.5l16 42q43 -3 79 -2t70.5 4t71 8.5t81.5 12.5z" />
    <glyph glyph-name="a" unicode="a" horiz-adv-x="534" 
d="M217 427q-23 -9 -40.5 -34t-29.5 -58t-18.5 -70t-6.5 -69t6.5 -55.5t20.5 -30.5q21 -10 39 -0.5t32.5 32t24.5 54.5t15.5 66t6 67t-4.5 57t-16 36t-29 5zM614 73q-66 -39 -120 -51.5t-96 -2.5t-71.5 39.5t-45.5 75.5q-14 -31 -33 -57t-41.5 -44t-49.5 -26.5t-58 -5.5
q-35 3 -58 35t-33 79t-7 103.5t19.5 110t46 97.5t73.5 66q40 20 79.5 17.5t65.5 -37.5q1 -2 1.5 -2.5t1.5 -2.5q3 11 6 20.5t6 20.5q34 -11 55.5 -19.5t34 -15.5t16.5 -12.5t3 -10.5q-29 -120 -34 -208t17 -136t74 -52.5t139 42.5z" />
    <glyph glyph-name="b" unicode="b" horiz-adv-x="432" 
d="M252 444q-14 15 -30 7.5t-31.5 -29.5t-29.5 -56t-24 -71t-14.5 -74t-1.5 -67t15.5 -48t35.5 -18q15 0 31.5 22t31.5 55.5t25.5 74.5t14.5 80.5t-1 72.5t-22 51zM150 459q29 38 60 54q38 20 75 6.5t65 -48.5q27 -35 36.5 -81t5 -96t-20.5 -99t-39.5 -89t-52.5 -67.5
t-59 -33.5q-54 -11 -92 1t-63.5 40t-39.5 67.5t-19.5 84.5t-4 90.5t6.5 84.5q7 48 19 102t26 106.5t29 100t28 80.5q34 -11 54.5 -22.5t31 -22t13.5 -19t2 -12.5q-14 -52 -30.5 -109.5t-30.5 -117.5z" />
    <glyph glyph-name="c" unicode="c" horiz-adv-x="348" 
d="M408 127q-1 -1 -11.5 -8.5t-22.5 -16.5t-22.5 -16.5t-11.5 -8.5q-72 -52 -128.5 -67.5t-97.5 -5t-67 42.5t-37.5 76.5t-8 96.5t20.5 102t47.5 93.5t74.5 71.5q43 27 91 27.5t88 -22.5l-59 -95q-34 8 -62.5 -9.5t-49.5 -49.5t-32.5 -73t-11.5 -81t11.5 -73t38 -49
t68.5 -9.5t101 45.5q1 1 11.5 8.5t23.5 16.5t23.5 16.5t11.5 8.5z" />
    <glyph glyph-name="d" unicode="d" horiz-adv-x="536" 
d="M217 427q-23 -9 -40.5 -34t-29.5 -58t-18.5 -70t-6.5 -69t6.5 -55.5t20.5 -30.5q28 -14 51 7t38.5 59.5t23 86t6 87.5t-14 63.5t-36.5 13.5zM616 75q-66 -39 -120.5 -52t-96.5 -3t-71.5 40t-45.5 76q-14 -31 -33 -57.5t-42 -44.5t-50 -27t-58 -6q-35 3 -58 35t-33 79
t-7 103.5t19.5 110t46 97.5t73.5 66q40 20 79.5 17.5t65.5 -37.5q1 -1 1.5 -2t1.5 -2q9 40 19 81t21 78.5t22 71t21 58.5q34 -11 54.5 -22.5t31 -22t13.5 -19t2 -13.5q-20 -75 -44 -160t-39 -170q-16 -94 -13 -161t29 -101.5t75.5 -33.5t126.5 43z" />
    <glyph glyph-name="e" unicode="e" horiz-adv-x="344" 
d="M404 123q-1 -1 -11.5 -8.5t-22.5 -16.5t-22.5 -16.5t-11.5 -8.5q-72 -52 -128.5 -66t-97.5 -0.5t-66.5 49t-36 82.5t-6 101t23 104t51.5 91t80 63q41 19 78 19.5t61.5 -15.5t32.5 -46.5t-9.5 -73.5t-64.5 -97t-131 -117q0 -57 13 -87.5t38.5 -38t62.5 6.5t86 46
q1 1 11.5 8.5t23.5 16.5t23.5 16.5t11.5 8.5zM126 209q55 51 87.5 89.5t47.5 64t15 39t-10 15.5q-12 3 -33.5 -10t-43.5 -39.5t-40 -66.5t-23 -92z" />
    <glyph glyph-name="f" unicode="f" horiz-adv-x="410" 
d="M264 -40q-20 -80 -50.5 -126t-62.5 -65.5t-63 -17t-53 19.5t-31 44t1.5 55.5t45 55.5t100.5 43q14 56 24 124.5t18 138.5q-31 -3 -47 -3.5t-24 4.5t-12.5 17.5t-13.5 36.5q11 -7 27 -11q13 -5 31.5 -8t41.5 -4q2 19 3 56t4.5 81t11.5 89.5t22.5 81t37.5 56t58 14.5
q31 -5 48 -25t23.5 -50t3 -66.5t-14.5 -75.5t-28 -77t-37 -70q23 5 43.5 10.5t37.5 10.5q1 -9 0 -15.5t-6 -8.5q-23 -8 -45 -14.5t-48 -12.5q-8 -73 -18.5 -144.5t-27.5 -143.5zM312 293q30 50 45 102.5t20 95t1 69t-11 24.5q-9 -2 -16 -21.5t-13 -48.5t-10.5 -63.5
t-7.5 -66t-5 -56.5t-3 -35zM142 -64q-38 -12 -60.5 -28t-34 -32t-13 -30.5t4.5 -23.5q6 -8 17.5 -8t25.5 12t30 38.5t30 71.5z" />
    <glyph glyph-name="g" unicode="g" horiz-adv-x="432" 
d="M217 427q-23 -9 -40.5 -34t-29.5 -58t-18.5 -70t-6.5 -69t6.5 -55.5t20.5 -30.5q21 -10 39.5 -0.5t33 32.5t25.5 55t17 66t6.5 67t-5 57t-17.5 36t-31 4zM337 -52q-20 -80 -50.5 -126t-62.5 -65.5t-63 -17t-53 19.5t-31.5 44t1.5 55.5t45 55.5t100 43q6 26 12 55.5
t11 61.5q-28 -37 -65 -57.5t-82 -15.5q-35 3 -58 35t-33 79t-7 103.5t19.5 110t46 97.5t73.5 66q39 20 77 18t65 -34v16t1 15q24 -5 45.5 -10t37.5 -10t25.5 -10t9.5 -10q-3 -62 -8.5 -128t-13 -133t-18 -132t-24.5 -126zM214 -76q-36 -12 -59 -27.5t-34.5 -31.5t-13.5 -30
t3 -23q6 -9 17.5 -10t26 10.5t30.5 38.5t30 73z" />
    <glyph glyph-name="h" unicode="h" horiz-adv-x="481" 
d="M561 75q-71 -42 -123.5 -54.5t-90 -4.5t-61.5 32.5t-38.5 56.5t-21 67.5t-8.5 66t-1 52t1 24.5q-29 -48 -55 -124.5t-61 -183.5q-3 -6 -15 -7t-26.5 3t-27.5 12t-16 19q-13 47 -15 107.5t3.5 127t18 135.5t28.5 133.5t33.5 121t33.5 98.5q34 -11 55 -22.5t31.5 -22
t13.5 -19t1 -12.5q-11 -26 -23.5 -69.5t-26 -96t-26 -109.5t-23 -110.5t-18 -99t-9.5 -74.5q9 26 22.5 63t29.5 77t33.5 80t34.5 71.5t32.5 51t27.5 19.5q9 0 23.5 -3.5t27.5 -8.5t22 -11t8 -10q-29 -120 -34 -208t17 -136t74.5 -52.5t139.5 42.5z" />
    <glyph glyph-name="i" unicode="i" horiz-adv-x="275" 
d="M346 81q-87 -47 -139 -42.5t-74.5 53t-17 136.5t33.5 208q1 4 -3 10t-16 12.5t-34 15t-56 19.5q-27 -88 -35.5 -167t1 -142.5t36.5 -108t71 -63t104.5 -8.5t137.5 55zM165 481q-27 7 -44.5 20.5t-26.5 31t-12 37t-1 38.5q4 45 26 97q34 -11 54.5 -22.5t31 -22t13.5 -19
t2 -13.5q-4 -16 -9.5 -35t-11.5 -38.5t-12 -38.5t-10 -35z" />
    <glyph glyph-name="j" unicode="j" horiz-adv-x="357" 
d="M329 496q-28 3 -47 14t-30.5 27t-17 35t-6.5 38q-4 45 12 100q35 -6 57 -14.5t34 -17.5t16 -17t4 -13q-3 -33 -10 -76t-12 -76zM264 -40q-20 -80 -50.5 -126t-62.5 -65.5t-63 -17t-53 19.5t-31 44t1.5 55.5t45 55.5t100.5 43q15 57 25.5 129t17.5 143t10.5 134.5
t3.5 102.5q24 -5 45.5 -10t37.5 -10t25.5 -10t9.5 -10q-6 -117 -21 -240.5t-41 -237.5zM142 -64q-35 -11 -57.5 -26t-34.5 -30.5t-14.5 -29.5t1.5 -23q4 -11 15.5 -13t26.5 9.5t31.5 38t31.5 74.5z" />
    <glyph glyph-name="k" unicode="k" horiz-adv-x="402" 
d="M321 483q-20 -22 -38 -48q-16 -22 -33.5 -51t-31.5 -61q-4 -40 1.5 -82.5t20 -80t38.5 -66t58 -40.5t78.5 -4t99.5 44l8 -19q-58 -34 -105 -49t-84.5 -15t-66.5 12t-51 32t-37.5 46t-25.5 53q-12 -34 -24.5 -70.5t-25.5 -76.5q-2 -6 -14.5 -7t-27 3t-27.5 12t-16 19
q-13 47 -15 107.5t3.5 127t18 135.5t28.5 133.5t33.5 121t33.5 98.5q34 -11 55 -22.5t31.5 -22t13.5 -19t1 -12.5q-11 -26 -23.5 -69.5t-26 -96t-26 -109.5t-23 -110.5t-18 -99t-9.5 -74.5q9 26 22.5 63t29.5 77t33.5 80t34.5 71.5t32.5 51t27.5 19.5q19 1 28 0t19 -1z" />
    <glyph glyph-name="l" unicode="l" horiz-adv-x="275" 
d="M355 59q-99 -59 -171.5 -59t-116 43.5t-59 124t-0.5 184.5q7 48 19.5 104.5t27.5 112t31 105t29 82.5q34 -11 54.5 -22.5t31 -22t13.5 -19t2 -12.5q-10 -38 -22 -80.5t-24 -87.5t-23.5 -90.5t-18.5 -87.5q-16 -94 -13 -161t29 -101.5t75.5 -33.5t126.5 43z" />
    <glyph glyph-name="m" unicode="m" horiz-adv-x="685" 
d="M479 484q9 0 23.5 -3.5t27.5 -8.5t22 -10.5t8 -9.5q-29 -120 -34 -208t17 -136.5t74 -53t139 42.5l9 -22q-51 -30 -92.5 -44.5t-74.5 -17t-58 5.5t-44 24q-5 5 -10 10.5t-10 11.5q-25 31 -36.5 72.5t-15.5 80t-3 66t1 31.5q-18 -29 -30 -55.5t-21.5 -53t-18 -54.5
t-19.5 -59q-5 -15 -10 -28t-11.5 -19.5t-15.5 -5t-22 16.5q-27 30 -40 72.5t-17.5 82.5t-3.5 69.5t1 33.5q-29 -48 -55 -124t-61 -184q-7 -6 -20 -7t-26 3t-24 12t-14 19q-11 37 -13.5 94.5t2 122.5t15.5 131.5t28 120.5q68 -22 90.5 -35.5t19.5 -22.5q-8 -19 -18 -55.5
t-19 -81.5t-17 -94t-11 -92q9 26 22.5 63t29.5 77t33.5 80t34.5 71.5t32 51t27 19.5q10 0 24 -3.5t27.5 -8.5t22.5 -10.5t8 -9.5q-20 -86 -29 -155t-5 -120q16 45 37.5 98.5t44 99.5t43.5 77.5t36 31.5z" />
    <glyph glyph-name="n" unicode="n" horiz-adv-x="477" 
d="M557 75q-71 -42 -123.5 -54.5t-89.5 -4.5t-61.5 32.5t-39 56.5t-21 67.5t-8.5 66t-1 52t1 24.5q-29 -48 -55 -124.5t-61 -183.5q-2 -6 -14.5 -7t-27 3t-27 12t-15.5 19q-11 37 -13 94.5t2.5 122.5t15.5 131.5t28 120.5q67 -22 89.5 -35.5t19.5 -22.5q-8 -19 -18 -55.5
t-19 -81.5t-17 -94t-11 -92q9 26 22.5 63t29.5 77t33.5 80t34.5 71.5t32 51t27 19.5q10 0 24 -3.5t27.5 -8.5t22.5 -11t8 -10q-29 -120 -34 -208t17 -136t74 -52.5t139 42.5z" />
    <glyph glyph-name="o" unicode="o" horiz-adv-x="395" 
d="M339 431q-46 18 -82 11.5t-63 -29t-45 -57.5t-27 -73.5t-9.5 -77.5t7.5 -69t24.5 -48t40.5 -15q34 4 60.5 31.5t42.5 63t22 73t0 63.5q-33 1 -50 11t-23 24t-2 29t15 26.5t26.5 16t32.5 -2.5q28 -12 39 -39t11 -59t-7 -64.5t-14 -55.5q-12 -39 -32 -74.5t-47.5 -62
t-62 -41t-75.5 -12.5q-40 2 -67 32.5t-40.5 77t-12.5 103t16.5 110.5t47 99.5t79.5 70.5q44 23 88 22t76 -34q9 -11 17 -23t14 -27z" />
    <glyph glyph-name="p" unicode="p" horiz-adv-x="452" 
d="M276 440q-14 15 -30.5 7.5t-32 -30t-29.5 -56t-23.5 -70.5t-14 -74.5t-1.5 -67t15 -48t35 -17.5q15 0 31.5 21.5t31.5 55t25.5 74.5t14.5 80.5t-0.5 73t-21.5 51.5zM89 -257q1 -5 -11 -4t-27.5 6.5t-29.5 15t-16 21.5q-5 27 -5 83.5t5 129t13 153.5t19 157.5t24 140.5
t26 102q17 -2 38 -6t38.5 -10t28.5 -12t9 -11q-5 -11 -12 -36q21 23 44 35q39 20 75.5 6.5t64.5 -48.5q30 -39 38.5 -91t1 -107.5t-28.5 -108t-50 -91t-63 -57.5t-67 -8t-55 34t-35 54q-10 -62 -16 -120.5t-9 -106t-3 -80t3 -41.5z" />
    <glyph glyph-name="q" unicode="q" horiz-adv-x="438" 
d="M217 442q-23 -9 -40.5 -34t-29.5 -58t-18.5 -70t-6.5 -69t6.5 -55.5t20.5 -30.5q27 -13 50 8t39 59.5t24.5 86.5t7 87.5t-14.5 62.5t-38 13zM448 -257q-65 -18 -109.5 1.5t-71.5 65.5t-37.5 112.5t-5.5 141.5q-26 -26 -57 -39t-68 -9q-35 3 -58 35t-33 79t-7 103.5
t19.5 110t46 97.5t73.5 66q40 20 79.5 17.5t65.5 -37.5q14 -19 23 -44q6 20 12.5 37.5t11.5 31.5q34 -11 54.5 -22.5t31 -22t13.5 -19t2 -12.5q-20 -75 -44 -160.5t-39 -170.5q-12 -71 -13.5 -134t9.5 -109.5t34.5 -73t62.5 -24.5z" />
    <glyph glyph-name="r" unicode="r" horiz-adv-x="406" 
d="M486 59q-69 -41 -125 -53t-98.5 0t-71.5 46t-43.5 84.5t-15 116t14.5 140.5q-22 -10 -46 -8q-2 -18 -8 -49t-17 -68t-26.5 -76.5t-35.5 -74.5q-3 8 -6.5 16.5t-7.5 16.5q13 28 25 60t21 64t14.5 63t7.5 58q-20 11 -34.5 31.5t-20.5 48t-1.5 62t22.5 72.5l88 -50
q-17 -47 -21 -77.5t0.5 -46.5t15 -18.5t21.5 6t21 26.5t13 44q6 -2 24.5 -7.5t38 -14t34 -17.5t12.5 -18q-29 -120 -34 -208t17 -136.5t74 -53t139 42.5z" />
    <glyph glyph-name="s" unicode="s" horiz-adv-x="363" 
d="M119 244q-3 23 -4.5 53t0 61t8 60t19 50.5t33 33t51.5 7.5q16 -2 33.5 -7.5t32.5 -15t26 -23t15 -31.5q6 -30 3.5 -63t-10.5 -66t-19.5 -63t-22 -53.5t-17.5 -38t-7 -15.5q12 -94 4 -161.5t-39 -99t-86 -21.5t-139 70l21 19q52 -36 81 -39.5t41.5 15.5t12.5 56.5
t-6.5 83.5t-16 95t-14.5 93zM252 176q25 60 37 105t15 75.5t-1.5 47t-12.5 18.5q-9 3 -19.5 -11t-17.5 -45t-8.5 -78.5t7.5 -111.5z" />
    <glyph glyph-name="t" unicode="t" horiz-adv-x="291" 
d="M371 59q-97 -57 -168 -59t-115.5 39t-61 118t-4.5 177q4 34 11 70.5t17 72.5q-11 3 -20.5 5.5t-15.5 4.5q-8 2 -13 4l-1 27q7 -1 16 -3q8 -2 18 -3.5t23 -3.5q14 48 27.5 91t24.5 75q34 -11 54.5 -22.5t31.5 -22t13.5 -19t1.5 -13.5q-7 -26 -13.5 -50.5t-13.5 -49.5
q28 -1 56 1t54 7l2 -44q-29 -6 -60.5 -6.5t-62.5 2.5q-10 -35 -18 -71.5t-14 -74.5q-13 -88 -8 -150t31 -93.5t75 -29.5t124 43z" />
    <glyph glyph-name="u" unicode="u" horiz-adv-x="503" 
d="M142 105q12 3 24 29t24.5 65t24 86t21.5 91t18.5 81t14.5 57q34 -11 55.5 -19.5t34 -15.5t16.5 -12.5t3 -10.5q-29 -120 -34 -208t17 -136t74 -52.5t139 42.5l9 -22q-68 -40 -130.5 -48t-110 17.5t-74 84.5t-22.5 153q-25 -131 -59.5 -199t-68 -83.5t-62.5 16.5
t-43.5 101t-10.5 170.5t37 224.5q34 -11 56 -19.5t34 -15.5t16 -12.5t3 -10.5q-18 -68 -26.5 -133t-8.5 -115.5t7.5 -80t21.5 -25.5z" />
    <glyph glyph-name="v" unicode="v" horiz-adv-x="258" 
d="M95 122q6 22 18.5 55.5t27.5 71.5t32 78t34 75.5t32.5 63.5t27.5 43q8 2 17 1q8 -1 17.5 -5t19.5 -12q-27 -23 -57.5 -75t-60 -119.5t-55 -143.5t-40.5 -148q-3 -6 -15.5 -7t-27 3t-27 12t-16.5 19q-12 37 -17 94.5t-3.5 122.5t9 131t21.5 120q69 -21 92.5 -34.5
t19.5 -22.5q-7 -19 -15 -55.5t-15 -81.5t-12.5 -94t-6.5 -92z" />
    <glyph glyph-name="w" unicode="w" horiz-adv-x="470" 
d="M331 122q5 22 15 55.5t22.5 71.5t27.5 78t29.5 75.5t28.5 63.5t25 43q8 2 17 1q8 -1 17.5 -5t19.5 -12q-25 -23 -52.5 -75t-53 -119.5t-46 -143.5t-30.5 -148q-4 -6 -16.5 -7t-27 3t-27.5 12t-17 19q-11 27 -18 65t-11.5 82.5t-5.5 93t1 95.5q-17 -38 -33 -82t-30 -91.5
t-25 -95.5t-18 -94q-3 -6 -15.5 -7t-27 3t-28 12t-17.5 19q-14 37 -22.5 94.5t-11 122.5t1 131t14.5 120q70 -21 94 -34.5t21 -22.5q-6 -19 -11.5 -56t-10 -82t-7 -93.5t-0.5 -91.5q7 31 23.5 84t37 109.5t42.5 107.5t39 79q70 -21 94 -34.5t21 -22.5q-6 -19 -11.5 -56
t-10 -82t-7 -93.5t-0.5 -91.5z" />
    <glyph glyph-name="x" unicode="x" horiz-adv-x="352" 
d="M3 47q29 38 56.5 78.5t53.5 84.5q-35 52 -58.5 101t-36.5 89t-16 68.5t2 39.5q8 2 18.5 -0.5t19.5 -4.5q11 -4 22 -7q-8 -38 7.5 -99t65.5 -144q28 54 51.5 114t36.5 118q1 5 8 7.5t22 1t38.5 -8t58.5 -18.5q-11 -36 -27.5 -75t-37 -78.5t-43 -79t-46.5 -75.5
q25 -28 51 -54q23 -22 49.5 -45t50.5 -37l-23 -18q-43 27 -81.5 60t-66.5 63q-29 -42 -55.5 -74t-49.5 -51q-8 -7 -20 -1t-23 16q-13 11 -27 29z" />
    <glyph glyph-name="y" unicode="y" horiz-adv-x="385" 
d="M354 433q-2 -39 -6 -96.5t-11.5 -124t-19 -136t-29 -131.5t-41 -111t-54.5 -75q-33 -28 -66.5 -29t-58.5 14t-37.5 42.5t-3.5 57.5t43.5 58.5t103.5 45.5q11 42 21.5 100t17.5 111q-27 -90 -59 -130t-61 -37.5t-52.5 42.5t-33.5 110.5t-4 166t36 208.5q34 -11 55.5 -19.5
t34 -15t16.5 -12.5t3 -10q-19 -68 -28 -136t-9.5 -121.5t6.5 -85.5t21 -28q9 2 20 21.5t21 50.5t20 69.5t17.5 80.5t12.5 83t7 77q0 5 18.5 0.5t41 -12t40.5 -16t18 -12.5zM165 -85q-37 -12 -59.5 -27.5t-34 -32t-13 -30.5t3.5 -23q6 -9 17.5 -9.5t26 11.5t30 38.5
t29.5 72.5z" />
    <glyph glyph-name="z" unicode="z" horiz-adv-x="343" 
d="M214 -52q-58 -16 -84 -41t-29.5 -48t9.5 -37.5t32.5 -9t40 36.5t31.5 99zM332 -37q-6 -50 -26.5 -91t-50 -69t-63.5 -41.5t-65 -7.5q-22 4 -39 20t-24.5 38.5t-4 48.5t21 50.5t51 44t86.5 29.5q-1 49 -22 85.5t-46 60.5t-45 36t-20 14q5 18 20.5 45t33.5 56.5t35.5 59.5
t26.5 54q-34 -23 -66 -26.5t-58 7.5t-45 33.5t-27 52t-3.5 63t25.5 66.5l89 -50q-19 -48 -19 -75.5t11 -39.5t29.5 -11t36 10t31.5 23t16 29q6 -2 20.5 -10t28.5 -18t22 -20t1 -15l-48 -74q-18 -28 -32.5 -51t-12.5 -25q68 -65 103 -137t29 -165z" />
    <glyph glyph-name="braceleft" unicode="{" horiz-adv-x="342" 
d="M105 282q-11 10 -22 13.5t-22 4t-24 -1t-28 -2.5q-5 0 -6.5 4.5t-1.5 9.5t1.5 10t4.5 5q26 1 57 -1t53 10q23 13 34 32.5t15.5 43.5t5 52.5t2.5 59.5t9 63.5t24 65.5q13 24 41.5 36t60.5 16.5t61 3t44 -2.5l1 -11q-27 -1 -53 -7q-22 -5 -44 -17.5t-33 -36.5
q-18 -38 -23.5 -74.5t-7 -70t-3 -63t-12 -53.5t-33 -41t-66.5 -25q27 -11 48 -26.5t26 -38.5q11 -45 6.5 -86.5t-12 -78t-13 -68.5t3.5 -58t38 -46t91 -33q-1 1 -6.5 -6.5t-8.5 -6.5q-7 1 -17 3.5t-19.5 4.5t-17 4t-9.5 2q-61 15 -91.5 35.5t-40.5 46.5t-5.5 56.5t12 66
t12.5 75.5t-4 84q-6 28 -28 47z" />
    <glyph glyph-name="braceright" unicode="}" 
d="M303 237q-26 -14 -37 -40q-18 -42 -21 -82t-3 -76.5t-2 -67t-17 -54t-48.5 -38.5t-97.5 -19q-2 0 -9.5 -0.5t-17.5 -1l-20 -1t-17 -0.5q-4 0 -8 8t-5 8q63 1 96 15.5t47 38.5t15.5 56t1 69.5t3.5 79t24 83.5q11 22 34 34t52 17q-41 16 -60 37t-24 46t-0.5 54t9.5 62.5
t7 70.5t-8 77q-6 26 -25 42t-39 25q-24 11 -51 16l3 11q15 -2 44 -6t60 -14t56 -26.5t33 -42.5q10 -36 10 -69t-4 -64t-9.5 -59t-6 -52t6.5 -45t27 -38q9 -8 22 -12.5t27.5 -7t29 -4.5t27.5 -5q3 -1 3.5 -5.5t-0.5 -10t-4 -9t-7 -2.5q-15 3 -27 6.5t-23.5 5t-22.5 0
t-24 -9.5z" />
    <glyph glyph-name="percent" horiz-adv-x="491" 
d="M443 451q-65 -74 -116.5 -126.5t-98 -98t-91 -92t-95.5 -108.5l-23 36q30 38 69 75t82.5 79t90 92t92.5 113q-31 -11 -56 -4.5t-42 17.5q-5 -26 -17.5 -51t-32.5 -43.5t-47 -29t-60 -8.5q-38 3 -60.5 23.5t-31.5 50t-4.5 63.5t20.5 64t43 51.5t64 25.5q13 1 24 -2
t16 -8.5t3 -10.5t-13 -8q-5 -1 -10.5 1t-13 3.5t-15.5 2t-17 -2.5q-29 -9 -46.5 -43t-12.5 -78q2 -24 11 -45t22 -36t29 -23t34 -7q17 1 31.5 12t24 28t14 39t2.5 46q-2 13 -5 25t-8 23q3 13 10 20.5t15 8.5t15.5 -4.5t12.5 -18.5q13 -29 32 -44q17 -14 42 -15.5t60 25.5
q6 9 12 18.5t12 19.5q12 19 23.5 19t18.5 -11.5t5.5 -29t-14.5 -33.5zM374 242q41 -3 65 -26t32 -55t1.5 -68t-27 -65.5t-53 -48t-76.5 -15.5q-40 3 -63.5 26t-31 55t-0.5 68t26.5 66t51.5 48t75 15zM357 -14q18 1 32.5 11.5t24 27.5t14 39t2.5 46q-3 24 -11.5 44.5
t-21.5 35.5t-29.5 23t-33.5 7q-17 -2 -31.5 -12t-24.5 -27t-14.5 -39t-1.5 -46q2 -24 11 -45t21.5 -36t29 -23t33.5 -6z" />
    <glyph glyph-name="a_alt1" horiz-adv-x="928" 
d="M217 430q-23 -9 -40.5 -34.5t-29.5 -58.5t-18.5 -70t-6.5 -69t6.5 -55.5t20.5 -30.5q28 -14 50.5 7t38 59.5t23 86t5.5 87.5t-14 63.5t-35 14.5zM515 0q-41 1 -74.5 8t-62 22.5t-52.5 41.5t-45 64q-14 -31 -33 -57t-41.5 -44t-49.5 -26.5t-58 -5.5q-35 3 -58 35t-33 79
t-7 103.5t19.5 110t46 97.5t73.5 66q40 21 79.5 18t65.5 -38q1 -2 1.5 -2.5t1.5 -2.5q3 11 6 20.5t6 20.5q34 -11 55.5 -19.5t34 -15.5t16.5 -12.5t3 -10.5q-7 -32 -17 -75.5t-15.5 -90.5t-4 -93.5t16 -83.5t45 -60.5t82.5 -24.5q42 1 85 24t81.5 61t68.5 87.5t45.5 104.5
t12.5 111t-30 107q60 -19 87 -65.5t24.5 -104.5t-30.5 -120.5t-77.5 -113.5t-118 -84t-149.5 -31z" />
    <glyph glyph-name="a_alt2" horiz-adv-x="1158" 
d="M217 429q-23 -9 -40.5 -34t-29.5 -58t-18.5 -70t-6.5 -69t6.5 -55.5t20.5 -30.5q21 -10 39 -0.5t32.5 32t24.5 54.5t15.5 66t6 67t-4.5 57t-16 36t-29 5zM1109 84q14 -17 11.5 -52t-28.5 -97q-42 72 -84.5 113.5t-85.5 61t-86.5 20.5t-86 -9t-84 -27t-81.5 -34
q-39 -18 -72 -28t-61 -13h-4q-1 -1 -4 -1h-5q-62 -3 -99 28t-58 89q-14 -30 -33 -56t-41.5 -44t-49.5 -26.5t-58 -5.5q-35 3 -58 35t-33 79t-7 103.5t19.5 110t46 97.5t73.5 66q40 20 79.5 17.5t65.5 -37.5q1 -2 1.5 -2.5t1.5 -2.5q3 11 6 20.5t6 20.5q34 -11 55.5 -19.5
t34 -15.5t16.5 -12.5t3 -10.5q-34 -141 -35 -237t37 -135q2 -2 2 -3q40 -37 116 -13h1q37 14 81 36t92 42.5t100 35t104 12t103 -26.5t99 -79z" />
    <glyph glyph-name="b_alt1" horiz-adv-x="428" 
d="M250 437q-14 15 -30 7.5t-31.5 -29.5t-29.5 -56t-24 -71t-14.5 -74t-1.5 -67t15.5 -48t35.5 -18q15 0 31.5 22t31 55.5t25.5 74.5t14.5 80.5t-1 72.5t-21.5 51zM148 452q29 38 59 54q39 20 76 6.5t64 -48.5t36.5 -81t5.5 -96t-20 -99t-39.5 -89t-52.5 -67.5t-59 -33.5
q-54 -11 -92.5 1t-64 40t-39.5 67.5t-19.5 84.5t-4 90.5t7.5 84.5q6 40 16 84t21 89q-75 0 -152 11.5t-155 23.5t-156 21t-156 4t-155 -29t-153 -76q11 45 40.5 81t69 61t84.5 38.5t89 13.5q55 0 115 -10.5t120 -25.5t119 -31.5t113 -30t101 -20.5t84 -2q13 51 29 97
q9 23 18.5 41.5t19.5 34.5q30 47 63.5 67.5t65 22t57.5 -13t41 -39t16 -55.5t-17.5 -62.5t-60 -59.5t-111.5 -46v-1q-15 -51 -24 -102v0zM181 583q54 13 85.5 36.5t45 47.5t11.5 44t-14 28q-10 6 -24.5 2t-31.5 -21.5t-35.5 -50.5t-36.5 -86z" />
    <glyph glyph-name="b_alt2" horiz-adv-x="428" 
d="M250 437q-14 15 -30.5 7.5t-32 -29.5t-29.5 -56t-24 -71t-14.5 -74t-1.5 -67t15.5 -48t35.5 -18q15 0 31.5 22t31.5 55.5t25.5 74.5t14.5 80.5t-0.5 72.5t-21.5 51zM177 563q-8 -27 -15.5 -55t-14.5 -56q29 38 60 54q38 20 75 6.5t65 -48.5q27 -35 36.5 -81t5 -96
t-20 -99t-39 -89t-52.5 -67.5t-59 -33.5q-54 -11 -92.5 1t-64 40t-39.5 67.5t-19.5 84.5t-4 90.5t6.5 84.5q8 54 20 105.5t28 103.5q-56 37 -80 88t-24 106t22 109.5t58 99.5t84.5 75.5t101.5 37.5q72 9 134 -12t105.5 -64.5t64 -106t10.5 -134.5q-63 107 -127.5 163
t-124 72.5t-112 0.5t-92.5 -52t-65 -86t-29 -101t15 -97.5t67 -75.5q7 21 13.5 41t14.5 37q31 71 67.5 107.5t72.5 47t67 -0.5t50.5 -35t24.5 -57t-13 -66t-61.5 -62.5t-119.5 -46.5zM186 591q52 10 84 30t47.5 41.5t16.5 42t-8 31.5q-8 10 -22.5 10.5t-32.5 -13.5
t-38.5 -45t-40.5 -83z" />
    <glyph glyph-name="c_alt" horiz-adv-x="966" 
d="M150 63q25 -20 64 -22t86.5 6t101.5 23t110.5 30.5t112.5 28.5t108.5 15.5t98 -8t80.5 -40.5q15 -14 21.5 -29.5t8.5 -32.5t1.5 -36.5t1.5 -40.5q-61 60 -128.5 86t-137 30t-140 -8t-138 -27.5t-131 -29t-119.5 -12.5q-51 0 -84 27.5t-49.5 72t-16.5 99.5t16 109
t48 101.5t79 77.5q43 27 91 27.5t88 -22.5l-59 -96q-33 8 -61.5 -8.5t-48.5 -47t-32.5 -70t-13.5 -79t8.5 -73t33.5 -51.5z" />
    <glyph glyph-name="d_alt1" horiz-adv-x="533" 
d="M217 416q-23 -9 -40.5 -34t-29.5 -58t-18.5 -70t-6.5 -69t6.5 -55.5t20.5 -30.5q28 -14 50.5 7t38.5 59.5t23.5 86t6 87.5t-14 63.5t-36.5 13.5zM438 551q-17 -53 -28.5 -105t-20.5 -107q-15 -94 -12 -161t28.5 -101.5t74.5 -33.5t126 43l9 -22q-66 -39 -120.5 -52
t-96.5 -3t-71 40t-45 76q-14 -31 -33 -57.5t-42 -44.5t-50.5 -27t-58.5 -6q-35 3 -57.5 35t-32.5 79t-7 103.5t19.5 110t46 97.5t73.5 66q40 20 79 17.5t66 -37.5q0 -1 2 -3q5 21 10.5 41.5t10.5 40.5q-75 3 -151.5 17.5t-153.5 30t-154.5 27.5t-155.5 10t-156 -23t-156 -70
q13 44 43.5 79t71 58.5t86 35.5t89.5 10q55 -3 114.5 -15.5t119 -30t117.5 -36.5t111 -34.5t100 -24.5t84 -6q8 26 16.5 50t17.5 46t19 40.5t21 33.5v1q32 45 66.5 64.5t66 20t57 -15.5t39.5 -41t13.5 -56t-20.5 -61.5t-62.5 -56.5t-112.5 -42zM448 578q52 11 84 31.5t47 43
t16 42.5t-9 30q-9 9 -23.5 8t-33 -17t-39.5 -49.5t-42 -88.5z" />
    <glyph glyph-name="d_alt2" horiz-adv-x="534" 
d="M217 416q-23 -9 -40.5 -34t-29.5 -58t-18.5 -70t-6.5 -69t6.5 -55.5t20.5 -30.5q28 -14 51 7t38.5 59.5t23 86t6 87.5t-14 63.5t-36.5 13.5zM324 589q13 40 27 75q10 22 20 40.5t21 33.5v1q32 45 66.5 64.5t65.5 20t56.5 -15.5t39.5 -41t14 -56t-20 -61.5t-62.5 -56.5
t-113.5 -42q-17 -53 -28.5 -105t-20.5 -107q-15 -94 -11.5 -161t29 -101.5t74.5 -33.5t126 43l9 -22q-66 -39 -120.5 -52t-96.5 -3t-71.5 40t-45.5 76q-14 -31 -33 -57.5t-42 -44.5t-50 -27t-58 -6q-35 3 -58 35t-33 79t-7 103.5t19.5 110t46 97.5t73.5 66q40 20 79.5 17.5
t65.5 -37.5q2 -2 2 -3q5 21 10.5 41.5t11.5 40.5l8 27q-52 38 -74 88.5t-20 105t24 107.5t58.5 96.5t84 73t100.5 36.5q72 9 134 -12t105.5 -64.5t64 -105.5t10.5 -135q-62 106 -125.5 162t-122.5 73.5t-111 3t-92.5 -49t-66 -83t-32 -99t9.5 -97.5t60 -78zM448 578
q51 10 82.5 29.5t47 41t17.5 41.5t-6 32q-8 10 -22.5 10.5t-33.5 -14.5t-41 -48.5t-44 -91.5z" />
    <glyph glyph-name="e_alt" horiz-adv-x="971" 
d="M177 29q31 -9 80.5 1.5t110 29t128 40.5t134 36.5t128 16.5t110.5 -19q23 -10 38.5 -30t25 -44t14 -50.5t4.5 -50.5q-65 63 -140.5 89t-153.5 28t-156 -12.5t-147.5 -31t-127.5 -28t-97 -3.5q-45 9 -74 42.5t-42 81t-10.5 103t20.5 108t51.5 95t82.5 65.5q41 19 78 19.5
t61.5 -15.5t32.5 -46.5t-9.5 -73.5t-64.5 -97t-131 -117q-1 -58 13.5 -94t40.5 -43zM125 208q52 49 84 85.5t48 62t17.5 40t-5.5 19.5q-10 5 -31.5 -6.5t-45 -38t-42.5 -67.5t-25 -95z" />
    <glyph glyph-name="f_alt1" horiz-adv-x="400" 
d="M269 -20q82 5 159.5 -2.5t154 -20.5t152 -28t152.5 -24q71 -9 138 -9.5t132.5 8t130 27.5t130.5 50q-41 -80 -96 -120.5t-115.5 -56.5t-121.5 -13.5t-113 9.5q-83 12 -175.5 38t-186 52t-183 44.5t-165.5 15.5q-21 -78 -51 -122t-62 -62t-62.5 -14.5t-52 20.5t-30.5 44
t2 55.5t45.5 55t99.5 42.5q14 56 24.5 124.5t17.5 138.5q-31 -3 -46.5 -3.5t-24 4.5t-13 17.5t-12.5 36.5q12 -7 27 -11q13 -5 31 -8t41 -4q2 19 3 56t5 81t11.5 89.5t22.5 81t38 56t58 14.5q31 -5 48.5 -25.5t23.5 -50.5t2 -67t-15 -76t-28 -77.5t-38 -70.5l38 9.5t34 9.5
q0 -8 -0.5 -14.5t-5.5 -8.5q-20 -8 -40 -14t-43 -12q-7 -67 -17 -133t-24 -132zM314 291q30 50 45 103t19.5 96t0.5 69.5t-12 24.5q-9 -2 -15.5 -22t-12.5 -49t-10 -63.5t-7 -66t-5 -57t-3 -35.5zM142 -64q-36 -12 -59 -27.5t-34.5 -31.5t-13 -30t3.5 -23t16.5 -10t26 10.5
t30.5 38.5t30 73z" />
    <glyph glyph-name="f_alt2" horiz-adv-x="402" 
d="M265 -39q-1 -2 -1 -3t-1 -3q45 -14 66.5 -42t23.5 -64t-12.5 -76.5t-41.5 -78.5t-64.5 -70t-80 -51t-88.5 -22.5t-91 15.5q-24 10 -47.5 28.5t-42 43t-30.5 55.5t-15 66q50 -56 103.5 -81t105.5 -28t99.5 13t84.5 42.5t61.5 59.5t30 65.5t-10 60t-57.5 41.5
q-22 -72 -52.5 -112t-62 -55.5t-61 -11t-50 22.5t-28 44.5t4 54.5t45.5 54t98 42q14 55 24.5 124t17.5 138q-31 -3 -46.5 -3.5t-24 5t-13 18t-12.5 36.5q12 -7 27 -11q13 -5 31 -8t41 -4q2 19 3 56t5 81t11.5 89t22.5 81t38 56.5t58 14.5q31 -5 48.5 -25.5t23.5 -50t2.5 -67
t-14.5 -76t-28.5 -77t-37.5 -70.5l38 9.5t33 9.5q1 -9 0 -15.5t-6 -8.5q-20 -7 -40 -13t-43 -12q-8 -73 -18 -144t-27 -143zM314 294q30 50 45 103t19.5 95.5t0.5 69t-12 24.5q-9 -2 -15.5 -21.5t-12.5 -48.5t-10 -63.5t-7 -66t-5 -57t-3 -35.5zM142 -62q-39 -12 -62 -29.5
t-34 -34.5t-11 -31.5t8 -21.5q7 -6 18.5 -4.5t25 14t28 38.5t27.5 69z" />
    <glyph glyph-name="g_alt1" 
d="M217 427q-23 -9 -40.5 -34t-29.5 -58t-18.5 -70t-6.5 -69t6.5 -55.5t20.5 -30.5q21 -10 39.5 -0.5t33 32.5t25.5 55t17 66t6.5 67t-5 57t-17.5 36t-31 4zM337 -52q-20 -80 -50.5 -126t-62.5 -65.5t-63 -17t-53 19.5t-31.5 44t1.5 55.5t45 55.5t100 43q6 26 12 55.5
t11 61.5q-28 -37 -65 -57.5t-82 -15.5q-35 3 -58 35t-33 79t-7 103.5t19.5 110t46 97.5t73.5 66q39 20 77 18t65 -34v16t1 15q24 -5 45.5 -10t37.5 -10t25.5 -10t9.5 -10q-1 -10 -2.5 -38.5t-5 -68.5t-8.5 -88.5t-11 -99.5t-14 -101.5t-17 -93.5q101 10 196 -1t188.5 -28
t186.5 -33.5t189.5 -19.5t199.5 15t215 70q-30 -58 -67.5 -95t-79.5 -58t-87 -29t-88.5 -8t-84.5 5t-75 11q-97 15 -190 42t-180.5 52t-170 40.5t-158.5 7.5zM214 -76q-38 -12 -61 -28.5t-34.5 -33.5t-12 -31.5t6.5 -22.5q6 -7 17.5 -6.5t25.5 13.5t29 39t29 70z" />
    <glyph glyph-name="g_alt2" 
d="M217 427q-23 -9 -40.5 -34t-29.5 -58t-18.5 -70t-6.5 -69t6.5 -55.5t20.5 -30.5q21 -10 39.5 -0.5t33 32.5t25 55t16.5 66t7 67t-4.5 57t-17.5 36t-31 4zM332 -67q-21 -76 -51.5 -119t-62 -60.5t-62 -14t-51.5 21t-30 44t2 55t45.5 55t99.5 42.5q7 26 12.5 55.5
t10.5 61.5q-28 -37 -65 -57.5t-82 -15.5q-35 3 -57.5 35t-32.5 79t-7 103.5t19.5 110t46 97.5t73.5 66q38 20 76.5 18t64.5 -34q1 8 1 16v15q24 -5 45.5 -10t38 -10t25.5 -10t9 -10q-6 -124 -20.5 -257t-41.5 -254q50 -11 75 -38.5t29.5 -63t-9 -76.5t-40.5 -80t-64 -72.5
t-80.5 -54t-90.5 -24.5t-93 16q-24 10 -47 28.5t-41.5 43t-31 55t-15.5 65.5q51 -57 106 -82t108 -27t100.5 15.5t84.5 45t60.5 62t26.5 67t-16.5 59t-67.5 38.5zM213 -76q-38 -12 -61 -28.5t-34.5 -33.5t-12 -31.5t6.5 -22.5q7 -7 18.5 -6t25.5 13.5t28.5 38.5t28.5 70z
" />
    <glyph glyph-name="h_alt1" horiz-adv-x="486" 
d="M565 75q-71 -42 -123.5 -54.5t-89.5 -4.5t-61.5 32.5t-39 56.5t-21 67.5t-8.5 66t-1 52t1 24.5q-29 -48 -55 -124.5t-61 -183.5q-6 -6 -18.5 -7t-26 3t-25.5 12t-15 19q-16 58 -18 126.5t6 139.5t23.5 142t34.5 133q-56 38 -80.5 88.5t-24.5 105.5t21.5 109.5t58 99.5
t85 75t101.5 37q72 9 134.5 -12t106 -64.5t64 -105.5t9.5 -135q-63 107 -127 163t-124 73t-112.5 1t-92.5 -52t-65 -86t-29 -101t15 -97.5t67 -75.5q7 21 14 41t14 37q31 71 67.5 107.5t72.5 47t67 -0.5t51 -35t24 -57t-13.5 -66t-61.5 -62.5t-120 -46.5q-16 -49 -31 -109.5
t-27 -121t-20.5 -116t-11.5 -94.5q9 26 22.5 63t29 77t33.5 80t34.5 71.5t32 51t27.5 19.5q10 0 24 -3.5t27 -8.5t22 -11t8 -10q-28 -120 -33.5 -208t17 -136t74.5 -52.5t139 42.5zM199 591q52 10 84 30t47.5 41.5t16.5 42t-8 31.5q-8 10 -22.5 10t-32.5 -14t-38.5 -44.5
t-40.5 -82.5q-4 -10 -6 -14z" />
    <glyph glyph-name="h_alt2" horiz-adv-x="487" 
d="M567 75q-71 -42 -123.5 -54.5t-90 -4.5t-61.5 32.5t-38.5 56.5t-21 67.5t-8.5 66t-1 52t1 24.5q-29 -48 -55 -124.5t-61 -183.5q-5 -6 -18 -7t-26.5 3t-25.5 12t-15 19q-15 55 -18 119.5t4 133t20.5 136.5t31.5 129q-75 3 -151.5 17.5t-153.5 30t-154.5 27.5t-155.5 10
t-156 -23t-156 -70q13 44 43.5 79t71 58.5t86 35.5t89.5 10q55 -3 114.5 -15.5t119 -30t117.5 -36.5t111 -34.5t100 -24.5t84 -6q8 26 16.5 50t17.5 46q31 71 67.5 107.5t72.5 47t67 -0.5t51 -35t24 -57t-13.5 -66t-61.5 -62.5t-120 -46.5q-17 -49 -32 -109.5t-27 -121
t-20.5 -116t-11.5 -94.5q9 26 22.5 63t29.5 77t33.5 80t34.5 71.5t32.5 51t27.5 19.5q9 0 23.5 -3.5t27.5 -8.5t22 -11t8 -10q-29 -120 -34 -208t17 -136t74.5 -52.5t139.5 42.5zM201 591q51 10 82.5 29.5t47 41.5t17.5 42t-7 31q-8 10 -22.5 10t-33.5 -15.5t-40.5 -48.5
t-43.5 -90z" />
    <glyph glyph-name="i_alt1" horiz-adv-x="631" 
d="M107 709q34 -11 54.5 -22.5t31 -22t13.5 -19t2 -12.5q-4 -17 -9.5 -36t-11.5 -38.5t-12 -38.5t-10 -35q-27 7 -44.5 20.5t-26.5 31t-12 37t-1 38.5q4 45 26 97zM305 5q-34 -5 -72.5 -5.5t-74.5 7.5t-67 26t-51 51q-39 66 -39.5 174t40.5 240q34 -11 55.5 -19.5t34 -15.5
t16.5 -12.5t3 -10.5q-24 -100 -32 -178t3 -130q13 -45 44 -74.5t90 -30.5q42 1 85 23.5t81.5 60.5t68.5 87.5t45.5 104.5t13 111t-29.5 107q57 -18 83.5 -60.5t27.5 -97t-22 -113.5t-66 -110.5t-103 -88.5t-134 -46z" />
    <glyph glyph-name="i_alt2" horiz-adv-x="858" 
d="M180 41q-30 11 -45.5 43t-18.5 82.5t5.5 117.5t28.5 148q1 5 -3 10.5t-16.5 12.5t-34 15.5t-55.5 19.5q-27 -88 -36 -166.5t0 -141.5t35.5 -107t70.5 -63q40 -17 81.5 -12t85 20.5t88 37t90 37t92 20.5t93 -11.5t93.5 -60t94 -124.5q26 62 29 97t-11 52q-45 52 -91.5 76
t-94 29t-94 -5.5t-91.5 -28t-87 -38.5t-79.5 -37.5t-70 -24t-58.5 1.5zM165 477q-27 7 -44.5 20.5t-26.5 31t-12 37t-1 38.5q4 45 26 97q34 -11 54.5 -22.5t31 -22t13.5 -19t2 -12.5q-4 -17 -9.5 -36t-11.5 -38.5t-12 -38.5t-10 -35z" />
    <glyph glyph-name="j_alt1" horiz-adv-x="355" 
d="M330 497q-28 3 -47 14t-30.5 27t-17 35t-6.5 38q-4 45 12 100q35 -6 57 -14.5t34 -17.5t16 -17t4 -13q-3 -33 -10.5 -76t-11.5 -76zM262 -50q-21 -77 -51 -121t-62 -62t-62.5 -14.5t-52 20.5t-30.5 44t2 55.5t45.5 55t99.5 42.5q15 57 25.5 129t17.5 143t10.5 134.5
t3.5 102.5q24 -5 45.5 -10t38 -10t26 -10t9.5 -10q-6 -112 -20 -230.5t-38 -228.5q84 6 163.5 -1t157 -20t154.5 -28.5t156 -24.5q22 -3 44.5 -5t45.5 -3q103 -6 212 11t229 73q-41 -80 -96.5 -120.5t-116 -56.5t-121 -13.5t-112.5 9.5q-10 2 -19 3t-18 3q-12 2 -23.5 4
t-23.5 4q-88 17 -172.5 42t-164.5 47.5t-156 37t-146 8.5zM142 -63q-40 -13 -63.5 -30.5t-34 -34.5t-9.5 -31.5t9 -21.5q7 -6 18 -4t24.5 15t28 39t27.5 68z" />
    <glyph glyph-name="j_alt2" horiz-adv-x="356" 
d="M329 496q-28 3 -47 14t-30 27t-16.5 35t-6.5 38q-3 45 12 100q35 -6 56.5 -14.5t33.5 -17.5t16 -17t4 -13q-3 -33 -10 -76t-12 -76zM257 -68q-22 -72 -52 -112.5t-62 -56.5t-61.5 -11.5t-50 22t-28.5 44.5t3.5 55t46 54t98.5 42q15 57 25.5 129t17.5 143t10.5 134.5
t3.5 102.5q24 -5 45.5 -10t38 -10t25.5 -10t9 -10q-3 -56 -7.5 -118t-12 -125t-18.5 -124.5t-25 -115.5q47 -13 70 -40.5t26.5 -63.5t-11 -76.5t-41 -79t-64 -71t-80.5 -52t-89.5 -23.5t-91.5 16q-24 10 -47.5 28t-42 43t-30.5 55.5t-15 65.5q50 -56 104.5 -81t107 -27.5
t100 13.5t84.5 43t60.5 61t28.5 66.5t-12.5 59t-62.5 40.5zM142 -64q-38 -12 -61 -28.5t-34.5 -33t-12 -31t6.5 -22.5q6 -8 17.5 -7.5t25.5 13t29 39t29 70.5z" />
    <glyph glyph-name="k_alt1" horiz-adv-x="401" 
d="M187 563q-16 -49 -31 -105t-28 -113.5t-22 -114.5t-13 -108q9 26 22.5 63t29.5 77t33.5 80t34.5 71.5t32.5 51t27.5 19.5q20 1 29 0t18 -1q-20 -22 -38 -48q-16 -22 -33.5 -51t-31.5 -61q-3 -40 1.5 -81t18 -76.5t37 -62t58 -39.5t80 -8.5t104.5 32.5l5 -13
q-58 -34 -105 -49t-84.5 -15t-66.5 12t-51 32t-37.5 46t-25.5 53q-12 -34 -24.5 -70.5t-25.5 -76.5q3 -6 -8.5 -7t-27.5 3t-31 12t-18 19q-14 51 -15 118.5t6.5 139t21 139.5t28.5 121q-75 3 -151.5 17.5t-153.5 30.5t-155 27.5t-156 9.5t-156 -22.5t-156 -70.5
q13 45 43.5 80t71 58.5t86 35t89.5 9.5q56 -3 115 -15.5t119 -29.5t118 -36.5t111 -35t100 -24t84 -5.5q8 26 16.5 50t16.5 46q31 71 67.5 107t72.5 46.5t67.5 -0.5t51 -35t24 -57t-13 -66t-61.5 -62.5t-120 -46.5zM197 591q49 10 80.5 29t47 40t18 41t-4.5 32
q-7 11 -21.5 12.5t-33.5 -13.5t-41.5 -49t-44.5 -92z" />
    <glyph glyph-name="k_alt2" horiz-adv-x="399" 
d="M186 563q-16 -49 -31 -105t-27.5 -114t-21.5 -115t-13 -107q9 26 22.5 63t29.5 77t33.5 80t34.5 71.5t32 51t27 19.5q20 1 29 0t19 -1q-20 -22 -38 -48q-16 -22 -34 -51t-32 -61q-3 -40 2.5 -82.5t20.5 -79t39 -65t58.5 -41t78.5 -5.5t99 40l6 -15q-86 -51 -149 -60
t-107 8t-71.5 53.5t-42.5 76.5q-12 -34 -24.5 -70t-25.5 -76q-8 -6 -21 -7t-26 3t-23.5 12t-13.5 19q-15 53 -16.5 121.5t6.5 142.5t24.5 149.5t37.5 141.5q-46 39 -64.5 89.5t-15 103.5t26.5 104.5t59 94t82.5 70.5t97.5 35q72 9 134.5 -12t106 -64.5t64 -105.5t9.5 -135
q-61 104 -123 159.5t-120 74t-109.5 6t-92 -45t-67.5 -79t-35 -96t4.5 -96.5t50.5 -80q5 17 11 33t12 31q31 71 67.5 107.5t72.5 47t67 -0.5t51 -35t24 -57t-13.5 -66t-61.5 -62.5t-120 -46.5zM196 591q51 10 82.5 29.5t47 41.5t17.5 42t-7 31q-8 10 -22.5 10t-33.5 -15.5
t-40.5 -48.5t-43.5 -90z" />
    <glyph glyph-name="m_alt1" horiz-adv-x="1077" 
d="M933 517q60 -19 87 -65.5t24.5 -105t-30.5 -120.5t-77.5 -113.5t-118 -84t-149.5 -30.5q-30 0 -56.5 2t-49 7.5t-42.5 17t-38 31.5q-23 24 -35 56t-18 67.5t-7 70.5t-1 65q-18 -29 -30 -56t-21.5 -53.5t-18 -54.5t-19.5 -59q-5 -14 -10 -27t-11.5 -20t-15.5 -5t-22 17
q-18 20 -29.5 46.5t-18 54t-9.5 54.5t-3.5 49t0 36.5t0.5 17.5q-29 -48 -55 -124.5t-61 -183.5q-7 -6 -20 -7t-26 3t-24 12t-14 19q-11 37 -13 94t2.5 122t15.5 131.5t28 120.5q67 -21 90 -34.5t19 -22.5q-8 -19 -18 -56t-19 -82t-17 -93.5t-11 -91.5q9 26 22.5 63t29.5 77
t33.5 80t34.5 71.5t32.5 51t27.5 19.5q9 0 23.5 -3.5t27.5 -8.5t22 -11t8 -10q-20 -85 -29 -154t-4 -120q16 45 37.5 98.5t43.5 99.5t43 77.5t36 31.5q9 0 23.5 -3.5t27.5 -8.5t22 -11t8 -10q-8 -31 -17 -75t-14 -91t-3 -94t17 -84t45 -60.5t82 -24.5q42 1 85 23.5
t81.5 60.5t68.5 88t45.5 104.5t12.5 111t-30 107.5z" />
    <glyph glyph-name="m_alt2" horiz-adv-x="1298" 
d="M678 63q36 13 80 35.5t92.5 43t100 34.5t103.5 12t103.5 -26t99.5 -79q14 -17 11 -52.5t-29 -96.5q-46 79 -93.5 122t-95.5 60t-96 12.5t-94.5 -19.5t-92 -35t-88 -36t-82.5 -21.5t-75 9.5q-37 18 -57 52t-30 75t-11.5 84t-1.5 78q-18 -29 -30 -55.5t-21.5 -53t-18 -54.5
t-19.5 -59q-5 -15 -10 -28t-11.5 -19.5t-15.5 -5t-22 16.5q-27 30 -40 72.5t-17.5 82.5t-3.5 69.5t1 33.5q-29 -48 -55 -124.5t-61 -183.5q-7 -6 -20 -7t-26 3t-24 12t-14 19q-11 37 -13.5 94.5t2 122.5t15.5 131t28 120q68 -21 90.5 -34.5t19.5 -22.5q-8 -19 -18 -55.5
t-19 -81.5t-17 -94t-11 -92q9 26 22.5 63t29.5 77t33.5 80t34.5 71.5t32 51t27 19.5q10 0 24 -3.5t27.5 -8.5t22.5 -11t8 -10q-20 -85 -29 -154t-5 -120q16 45 37.5 98.5t44 99.5t43.5 77.5t36 31.5q9 0 23.5 -3.5t27.5 -8.5t22 -11t8 -10q-5 -19 -11 -49t-11.5 -65.5
t-9 -74t-1.5 -74t10 -65t25.5 -48.5t45.5 -23t70 11z" />
    <glyph glyph-name="n_alt1" horiz-adv-x="870" 
d="M352 452q-8 -35 -17 -80.5t-13.5 -92.5t-2.5 -91.5t15 -78.5q14 -38 44.5 -61.5t82.5 -24.5q42 1 85 23.5t81.5 60.5t69 87.5t46 104.5t12.5 111t-30 107q58 -18 84.5 -61.5t27 -98t-23.5 -114.5t-67.5 -111t-105 -87.5t-136.5 -44.5q-91 -10 -148 7.5t-88.5 58.5
t-42.5 104t-10 145q-29 -48 -55 -124.5t-61 -183.5q-3 -6 -15 -7t-26.5 3t-27.5 12t-16 19q-11 37 -13 94.5t2.5 122.5t15.5 131.5t28 120.5q68 -22 90.5 -35.5t18.5 -22.5q-8 -19 -17.5 -55.5t-19 -81.5t-17 -94t-11.5 -92q9 26 22.5 63t29.5 77t33.5 80t34.5 71.5t32.5 51
t27.5 19.5q10 0 24 -3.5t27 -8.5t22 -10.5t8 -9.5z" />
    <glyph glyph-name="n_alt2" horiz-adv-x="1096" 
d="M1031 -66q-46 79 -93 122t-95 60t-96 12.5t-95 -19.5t-92 -35t-88 -36t-82.5 -21.5t-75.5 9.5q-29 14 -47.5 40.5t-30 57.5t-16 63.5t-6 60t-0.5 46t1 21.5q-29 -48 -55 -124.5t-61 -183.5q-3 -6 -15 -7t-26.5 3t-27.5 12t-16 19q-11 37 -13 94.5t2.5 122.5t15.5 131.5
t28 120.5q67 -22 90 -35.5t19 -22.5q-8 -19 -18 -55.5t-19 -81.5t-17 -94t-11 -92q9 26 22.5 63t29.5 77t33.5 80t34.5 71.5t32.5 51t27.5 19.5q9 0 23.5 -3.5t27.5 -8.5t22 -10.5t8 -9.5q-6 -25 -15 -69.5t-14.5 -94.5t-4 -99.5t16.5 -84t47 -48.5t88 7q37 13 81 35.5
t92 43t100 34.5t104 12t103 -26t99 -79q14 -17 11 -52t-29 -97z" />
    <glyph glyph-name="o_alt1" horiz-adv-x="687" 
d="M338 431q-46 18 -82 11.5t-63 -29t-45 -57.5t-27 -73.5t-9.5 -77.5t7.5 -69t24.5 -48t40.5 -15q34 4 60.5 31.5t42.5 63t22 73t0 63.5q-32 1 -49.5 11t-23 24t-1.5 29t14.5 26.5t26 16t32.5 -2.5q26 -11 37 -33.5t13 -50.5q74 10 124.5 35t82 59.5t47 77.5t19.5 89
q10 -17 19.5 -42.5t13.5 -52t0.5 -52t-19.5 -42.5q-25 -27 -63.5 -45.5t-79.5 -30t-80 -16t-64 -4.5q-1 -31 -7.5 -59t-13.5 -51q-12 -39 -32 -74.5t-47.5 -62t-62 -41t-75.5 -12.5q-40 2 -67 32.5t-40.5 77t-12.5 103t16.5 110.5t47 99.5t79.5 70.5q44 23 88 22t76 -34
q9 -11 17 -23t14 -27z" />
    <glyph glyph-name="o_alt2" horiz-adv-x="971" 
d="M338 431q-46 18 -82 11.5t-63 -29t-45 -57.5t-27 -73.5t-9.5 -77.5t7.5 -69t24.5 -48t40.5 -15q34 4 60.5 31.5t42.5 63t22 73t0 63.5q-33 1 -50 11t-23 24t-2 29t15 26.5t26.5 16t32.5 -2.5q23 -10 34.5 -29.5t14.5 -44.5q49 12 101.5 28t104 29.5t101 22t93.5 7.5
t80.5 -15.5t62.5 -46.5q10 -13 16 -28.5t10 -32t7.5 -33t8.5 -32.5q-66 64 -138.5 90.5t-147.5 29.5t-150.5 -11.5t-147.5 -30.5q1 -32 -6 -65t-15 -56q-12 -39 -32 -74.5t-47.5 -62t-62 -41t-75.5 -12.5q-40 2 -67 32.5t-40.5 77t-12.5 103t16.5 110.5t47 99.5t79.5 70.5
q44 23 88 22t76 -34q9 -11 17 -23t14 -27z" />
    <glyph glyph-name="p_alt1" horiz-adv-x="454" 
d="M278 438q-14 15 -30.5 7.5t-32 -29.5t-29.5 -56t-23.5 -71t-14 -74t-1.5 -67t15 -48t35 -18q15 0 31.5 21.5t31.5 55.5t25.5 75t14.5 80.5t-0.5 72.5t-21.5 51zM7 -51q-2 52 1 111t10 118.5t16 116.5t18.5 106t19 87t17.5 59q17 -2 38 -6t38.5 -10t28.5 -12t9 -11
t-5 -14.5t-7 -21.5q21 23 44 35q39 20 75.5 6.5t64.5 -48.5q30 -39 38.5 -91.5t1 -107.5t-28.5 -108t-50 -91.5t-63 -58t-67 -7.5q-33 11 -55 34t-35 55q-1 -4 -4 -25.5t-6 -46t-5 -44.5t-1 -20q47 -22 69 -49t26.5 -54t-6 -51t-29 -40t-42.5 -20t-47 9q-29 17 -44 63.5
t-19 111.5q-74 -9 -152.5 -29.5t-158.5 -43.5t-160 -45.5t-156 -35t-148 -12.5t-135.5 22.5t-118 70t-96.5 129.5q67 -54 151 -78.5t178.5 -30.5t196.5 3.5t204.5 23.5t202.5 29t191 22zM92 -75q-6 -48 -3 -77.5t10.5 -44t18 -16.5t19.5 5q11 8 17.5 24t3.5 35.5t-18 39
t-48 34.5z" />
    <glyph glyph-name="q_alt1" horiz-adv-x="438" 
d="M217 443q-23 -9 -40.5 -34t-29.5 -58t-18.5 -70t-6.5 -69t6.5 -55.5t20.5 -30.5q27 -13 50 8t38.5 59.5t24 86.5t7 87.5t-14 62.5t-37.5 13zM-914 4q68 -55 153.5 -80.5t182 -31t200.5 3.5t208.5 23.5t205.5 29t192 19.5q-4 26 -5 50.5t1 46.5q-26 -26 -57 -39t-69 -9
q-35 3 -57.5 35t-32.5 79t-7 103.5t19.5 110t46 97.5t73.5 66q40 20 79 17.5t66 -37.5q12 -16 22 -44q7 20 13 37.5t12 31.5q34 -11 54.5 -22.5t31 -22t13.5 -19t2 -12.5q-20 -75 -44.5 -160.5t-38.5 -170.5q-7 -37 -10 -72.5t-4 -67.5q53 -14 78 -37t29 -46.5t-8.5 -45
t-35.5 -32.5t-51.5 -8.5t-56.5 26.5q-23 20 -37 52t-22 69q-75 -7 -154.5 -26t-161 -42l-163 -46t-159.5 -36.5t-151.5 -13.5t-138.5 21.5t-120.5 70t-97.5 132.5zM336 -61q1 -39 10 -60t20 -28.5t22.5 -4t18.5 13.5q6 9 6.5 20.5t-7 23t-24 21t-46.5 14.5z" />
    <glyph glyph-name="s_alt" horiz-adv-x="358" 
d="M114 244q-3 23 -4.5 53t0.5 61t8 60t19 50.5t33.5 33t50.5 7.5q17 -2 34 -7.5t32 -15t26 -23t15 -31.5q6 -30 3.5 -63t-10.5 -66t-19.5 -63t-21.5 -53.5t-17 -38t-7 -15.5q9 -76 5.5 -135t-21 -96t-50.5 -49t-84 6q-108 39 -226 54.5t-236.5 4.5t-232 -50t-212.5 -109
q9 62 32 102t60 51q94 28 194.5 40t202.5 8.5t202.5 -20.5t194.5 -45q29 -9 44 3t19.5 38.5t1.5 63.5t-9.5 78.5t-14.5 84.5t-12 81zM247 176q27 63 39 109.5t14 77.5t-3.5 46t-14.5 14t-18.5 -17t-16 -47t-8 -77t7.5 -106z" />
    <glyph glyph-name="t_alt1" horiz-adv-x="289" 
d="M371 59q-97 -57 -168 -59t-115.5 39t-61 118t-4.5 177q4 34 11 70.5t17 72.5q-11 3 -20.5 5.5t-15.5 4.5q-8 2 -13 4l-1 27q7 -1 16 -3q8 -2 18 -3.5t23 -3.5q14 48 27.5 91t24.5 75q34 -11 54.5 -22.5t31.5 -22t13.5 -19t1.5 -13.5q-7 -26 -13.5 -50.5t-13.5 -49.5
q75 -8 140 14.5t114 63.5t80 94.5t38 108t-12 104.5t-69 84q-5 3 7.5 4.5t35 -2t49.5 -12.5t50.5 -27t38.5 -45.5t14 -66.5q-2 -56 -42 -120.5t-107.5 -119t-156.5 -88t-190 -27.5q-10 -35 -18.5 -74t-14.5 -77q-13 -88 -8 -150t31 -93.5t75 -29.5t124 43z" />
    <glyph glyph-name="u_alt" horiz-adv-x="1025" 
d="M370 29q-35 16 -61 39t-43 54q-14 31 -20.5 70t-4.5 89q-25 -131 -59 -197.5t-67 -80.5t-61.5 20t-42.5 105t-9.5 173.5t37.5 225.5q34 -11 55.5 -19.5t34 -15.5t16.5 -12.5t3 -10.5q-19 -68 -28 -135.5t-9.5 -121t6.5 -85.5t21 -29q11 3 23.5 29t24.5 65t23.5 86
t21.5 91t18.5 81t14.5 57q34 -11 56 -19.5t34 -15t16 -12.5t3 -10q-8 -35 -17.5 -75.5t-14.5 -82.5t-4 -82.5t13 -76t38 -63.5t70 -44q67 -24 136 -22t130.5 20t111 47.5t78.5 61t32.5 60.5t-26.5 47q46 9 73 -7.5t28.5 -45.5t-24.5 -63.5t-85 -61.5q-59 -26 -130 -44
t-144.5 -23.5t-143 2t-124.5 32.5z" />
    <glyph glyph-name="y_alt1" horiz-adv-x="385" 
d="M297 -25q82 5 160 -2.5t154 -20.5t152 -28t153 -24q23 -3 45 -5t45 -3q103 -5 212 11.5t229 72.5q-41 -80 -96 -120.5t-115.5 -56.5t-121.5 -13.5t-113 10.5q-10 2 -19 2.5t-18 2.5q-12 2 -23.5 4t-23.5 4q-86 16 -169 41t-161.5 47.5t-153 37t-143.5 10.5
q-21 -78 -51 -122t-62.5 -62t-63 -14.5t-51.5 20.5t-30 44t2 55.5t45.5 55t99.5 42.5q11 42 19 91.5t15 102.5q-27 -90 -59 -129.5t-61 -37t-52.5 42.5t-33.5 110.5t-4 166t36 208.5q34 -11 55.5 -19.5t34 -15.5t16.5 -12.5t3 -10.5q-19 -68 -28 -135.5t-9.5 -121t6.5 -85.5
t21 -29q9 3 20 22t21 50t20 70t17.5 81t12.5 83t7 77q0 5 18.5 0.5t41 -12t40.5 -16t18 -12.5q-5 -112 -19 -230t-38 -228zM170 -69q-42 -13 -65.5 -31.5t-33.5 -36.5t-8 -32.5t11 -19.5q7 -4 18.5 -1t24.5 16.5t27 39t26 65.5z" />
    <glyph glyph-name="y_alt2" horiz-adv-x="385" 
d="M293 -44q62 -17 82 -60t8.5 -95t-48.5 -105t-89 -90.5t-114 -51.5t-122 12q-24 10 -47.5 28t-42 43t-30.5 55.5t-15 65.5q50 -56 104 -81.5t106.5 -28t100 14t85 43.5t61 60.5t28.5 66t-12 59.5t-61 41q-22 -74 -52 -115.5t-62 -58t-62 -12.5t-50.5 21.5t-29 44t3 55
t45.5 54.5t99 42q11 42 19 91.5t15 102.5q-27 -90 -59 -129.5t-61 -37t-52.5 42.5t-33.5 110.5t-4 166t36 208.5q34 -11 55.5 -19.5t34 -15t16.5 -12.5t3 -10q-19 -68 -28 -136t-9.5 -121.5t6.5 -85.5t21 -29q9 3 20 22.5t21 50t20 69.5t17.5 81t12.5 83t7 77q0 5 18.5 0.5
t41 -12t40.5 -16t18 -12.5q-6 -117 -20.5 -240t-40.5 -237zM170 -69q-41 -13 -64.5 -31t-34 -35.5t-9 -32t10.5 -20.5q7 -5 18.5 -2.5t24.5 16t27 39t27 66.5z" />
    <glyph glyph-name="l_alt1" horiz-adv-x="274" 
d="M355 59q-92 -54 -161 -58t-113.5 31t-64 104t-13.5 160q4 64 19 134t36 138q-51 38 -72 89t-19 105t24 107t58.5 96t84 72.5t99.5 36.5q72 9 134.5 -12t106 -64.5t64 -106t9.5 -134.5q-62 105 -125 161t-122 73.5t-111 3.5t-92 -48t-66 -82.5t-32.5 -98.5t9 -97t58.5 -78
q6 18 12 35t13 34q31 71 67.5 107t72.5 47t67.5 0t51 -35t24 -57t-13 -66.5t-61.5 -62.5t-120 -46v-1q-14 -53 -27.5 -105.5t-22.5 -106.5q-16 -94 -13 -161t28.5 -101.5t75 -33.5t126.5 43zM188 574q52 10 83.5 30.5t47 42.5t16.5 42t-8 31q-8 9 -22.5 8.5t-33 -16t-40 -49
t-43.5 -89.5z" />
    <glyph glyph-name="l_alt2" horiz-adv-x="270" 
d="M357 59q-92 -54 -161 -58t-113.5 31t-64 104t-13.5 160q4 60 16.5 121t29.5 118q-75 3 -151.5 17.5t-153.5 30.5t-155 28t-156 10t-156 -23t-156 -70q13 44 43.5 79t71 58.5t86 35.5t89.5 10q55 -3 114.5 -15.5t119 -30t117.5 -37t111.5 -35t100.5 -24t84 -5.5
q8 26 16.5 50t16.5 46q31 71 67.5 107t72.5 47t67.5 0t51 -35t24 -57t-13 -66.5t-61.5 -62.5t-120 -46v-1q-14 -53 -27.5 -105.5t-22.5 -106.5q-16 -94 -13 -161t28.5 -101.5t75 -33.5t126.5 43zM190 574q52 10 84 30.5t47 42.5t16 42t-8 31q-8 9 -23 8.5t-33.5 -16.5
t-40 -49t-42.5 -89z" />
    <glyph glyph-name="b_alt3" horiz-adv-x="807" 
d="M887 64q-69 -41 -125.5 -53t-99 0t-71 46t-43.5 84.5t-15.5 116t14.5 140.5q-28 -12 -54 -6q-15 -20 -43 -38t-64 -15q2 -54 -12 -110.5t-38 -103.5t-56 -80t-66 -40q-75 -15 -120 10t-68 74.5t-27 116.5t2 135.5t19.5 131.5t26.5 105q-55 37 -79.5 88t-24.5 106
t21.5 109.5t58.5 99.5t85 75t101 37q72 10 134 -11t105.5 -64.5t64 -106t10.5 -134.5q-63 107 -127.5 163t-124.5 72.5t-112.5 0.5t-92.5 -52t-64.5 -86t-29 -101t15 -97.5t67.5 -75.5q7 21 13.5 41t14.5 37q31 71 67.5 107.5t72 47t67 -0.5t51 -35t24 -56.5t-13 -66
t-60.5 -62.5t-119 -46q-8 -27 -15 -54t-13 -54q26 37 59 54q39 20 76 6.5t64 -48.5q17 -22 27 -48.5t14 -55.5q24 -1 44.5 10t33.5 27q-18 12 -31 32.5t-18 47.5t0 60t22 70l87 -50q-17 -47 -21 -77.5t0.5 -46.5t15 -18.5t21.5 6t21 26.5t13 44q6 -2 24.5 -7.5t38 -14
t34 -17.5t12.5 -18q-28 -120 -33.5 -208t17 -136.5t74.5 -53t139 42.5zM315 744q-9 7 -23.5 4t-32.5 -19.5t-38 -49.5t-41 -85q54 11 86.5 32.5t47 44.5t14 43.5t-12.5 29.5zM165 89q15 0 31.5 21.5t31.5 55t25.5 74.5t14.5 80.5t-0.5 73t-21.5 51.5q-14 15 -30.5 7.5
t-32 -30t-29.5 -56t-23.5 -70.5t-14 -74.5t-1.5 -67t15 -48t35 -17.5z" />
    <glyph glyph-name="b_alt4" horiz-adv-x="810" 
d="M249 445q-14 15 -30 7.5t-31.5 -30t-29.5 -56t-24 -70.5t-14.5 -74.5t-1.5 -67t15.5 -48t35.5 -17.5q15 0 31.5 21.5t31.5 55t25.5 74.5t14.5 80.5t-1 73t-22 51.5zM48 571q12 45 27.5 90t41.5 86q30 46 63.5 66t64.5 21t56.5 -14t40.5 -39.5t16 -55.5t-18 -62t-60 -59
t-111 -46q-6 -24 -11 -48.5t-11 -50.5q29 38 60 54q38 20 75 6.5t65 -48.5q17 -22 26.5 -48.5t13.5 -55.5q25 -1 45.5 10t32.5 27q-18 12 -31 32.5t-18 47.5t0 60t22 70l88 -50q-17 -47 -21 -77.5t0.5 -46.5t15 -18.5t21.5 6t21 26.5t13 44q6 -2 24.5 -7.5t38 -13.5
t34 -17.5t12.5 -18.5q-29 -120 -34 -208t17 -136.5t74 -53t139 42.5l9 -22q-69 -41 -125 -53t-98.5 0t-71.5 46t-43.5 84.5t-14.5 116t14 140.5q-29 -12 -54 -6q-16 -20 -43.5 -38t-63.5 -15q2 -54 -12 -110.5t-38.5 -103.5t-56.5 -80t-66 -40q-72 -15 -116 8t-67.5 68.5
t-29.5 107.5t-1.5 126.5t15.5 124.5t22 102q-75 0 -152 11.5t-155 24t-156 21t-156 3.5t-155 -28.5t-153 -76.5q11 45 40.5 81t69 61t84.5 38.5t89 13.5q55 0 115 -10.5t120 -25.5t119 -31.5t113 -30t101 -20.5t84 -2zM178 586q55 13 86.5 36.5t44.5 47.5t11 44t-15 28
q-10 6 -24.5 2t-31.5 -21.5t-35 -51t-36 -85.5z" />
    <glyph glyph-name="b_alt5" horiz-adv-x="751" 
d="M624 -56q-48 -13 -73.5 -33t-34 -40.5t-3.5 -37t17 -23.5q10 -5 23 -2t26.5 18t25 43.5t19.5 74.5zM180 594q55 11 87.5 33t47 45.5t13 44t-14.5 28.5q-9 6 -23.5 2.5t-32 -20.5t-37.5 -49.5t-40 -83.5zM170 566q-8 -27 -14 -53t-13 -54q29 38 60 54q38 20 75 6.5
t65 -48.5q17 -22 26.5 -48.5t13.5 -55.5q22 -1 41 8t32 23q-17 16 -28 38t-14 47.5t3 53.5t23 55l88 -50q-18 -49 -18.5 -76.5t10.5 -39.5t29 -11t35.5 9.5t31 23t15.5 29.5q5 -2 19.5 -10t28 -18t21.5 -20t1 -15q-28 -41 -48 -74q-18 -28 -32 -51.5t-12 -25.5
q68 -65 102 -137t29 -166q-6 -50 -26.5 -91.5t-49.5 -70t-62 -42t-64 -7.5q-22 4 -38.5 20.5t-24 39t-4 48.5t20.5 50.5t50.5 44t85.5 29.5q-1 50 -22 86.5t-45 60.5t-44 36t-20 14q5 19 20 46t33 57t35 60t26 54q-36 -24 -69 -27t-60 11q-16 -17 -40.5 -29.5t-55.5 -10.5
q2 -54 -12 -110.5t-38.5 -103.5t-56 -80t-65.5 -40q-75 -15 -120 9.5t-68 74.5t-27.5 116.5t2 135.5t19.5 132t26 105q-55 37 -79.5 88t-24 106t22 109.5t58 99t85 75t101.5 37.5q72 10 134 -11t105.5 -65t64 -106t10.5 -135q-63 107 -127.5 163t-124 73t-112 1.5t-93 -51.5
t-65 -86t-29 -101t14.5 -97.5t67 -75.5q31 95 70 147.5t77.5 73.5t73.5 15t57.5 -29t30 -57t-9 -69.5t-60.5 -67t-123 -49.5zM246 445q-14 15 -30.5 7.5t-32 -30t-29.5 -56t-23.5 -70.5t-14 -74.5t-1.5 -67t15 -48t35 -17.5q15 0 31.5 21.5t31.5 55t25.5 74.5t14.5 80.5
t-0.5 73t-21.5 51.5z" />
    <glyph glyph-name="b_alt6" horiz-adv-x="755" 
d="M629 -55q-44 -13 -69 -31.5t-35.5 -37t-8.5 -35t12 -25.5q9 -9 23 -9t28.5 14t28 44t21.5 80zM48 570q12 48 29 94.5t44 86.5q30 44 63.5 63t64 19.5t56 -14.5t40 -40t15 -55.5t-18.5 -61.5t-60 -58.5t-110 -45.5l-1 -1q-8 -25 -12 -49t-10 -49q29 38 60 54q38 20 75 6.5
t65 -48.5q17 -22 26.5 -48.5t13.5 -55.5q22 -1 40.5 8t32.5 23q-17 16 -28 38t-14 47.5t3 53.5t23 55l87 -50q-19 -49 -19 -76.5t11 -39.5t29 -11t36 10t31.5 23.5t15.5 29.5q5 -2 19 -10t27.5 -18t22 -20t1.5 -16q-28 -41 -48 -74q-18 -28 -32 -51.5t-12 -25.5
q68 -65 102 -137t28 -166q-5 -50 -25.5 -91.5t-49.5 -70t-62 -42t-64 -7.5q-22 4 -38.5 20.5t-24 39t-4 48.5t20.5 50.5t50.5 44.5t85.5 30q-2 49 -22.5 85.5t-45 61t-44 36.5t-19.5 14q5 18 20 45t33 57t34.5 60t25.5 55q-35 -25 -68.5 -28t-59.5 11q-17 -17 -41 -29.5
t-55 -10.5q2 -54 -12 -110.5t-38.5 -103.5t-56.5 -80t-66 -40q-72 -14 -116.5 8.5t-67.5 68t-29 107.5t-1.5 126.5t15.5 124.5t21 102q-75 0 -152 11.5t-154.5 24t-155.5 21t-156 3.5t-155 -29t-153 -76q11 45 40.5 81t69 61t84.5 38.5t89 13.5q55 0 115 -10.5t120 -25.5
t118.5 -31.5t112.5 -30t101 -21t84 -2.5zM179 586q52 13 83.5 35t45.5 45t13.5 43.5t-11.5 29.5q-9 8 -23.5 5.5t-32 -19t-37 -50.5t-38.5 -89zM250 445q-14 15 -30 7.5t-31.5 -30t-29.5 -56t-24 -70.5t-14.5 -74.5t-1.5 -67t15.5 -48t35.5 -17.5q15 0 31.5 21.5t31.5 55
t25.5 74.5t14.5 80.5t-1 73t-22 51.5z" />
    <glyph glyph-name="d_alt3" horiz-adv-x="946" 
d="M221 428q-23 -9 -40.5 -34t-29.5 -58t-18.5 -70t-6.5 -69t6.5 -55.5t20.5 -30.5q28 -14 50.5 7t38.5 59.5t23.5 86t6 87.5t-14 63.5t-36.5 13.5zM451 592q55 11 87.5 32.5t47 44.5t13.5 43.5t-13 29.5q-9 6 -24 3t-33 -19.5t-38 -49t-40 -84.5zM441 564
q-17 -52 -28 -105.5t-20 -107.5q-3 -14 -6.5 -42t-5 -61t0.5 -68t10.5 -62t25.5 -43t46 -12q42 6 69 43.5t43.5 88t24 105t10.5 94.5q-21 10 -36 30t-21.5 48t-2.5 63t23 74l87 -50q-17 -47 -21 -77.5t0.5 -46.5t15 -18.5t22 6t21 26.5t13.5 44q5 -2 23.5 -7.5t38 -14
t34.5 -17.5t13 -18q-29 -120 -34 -208t17 -136.5t74 -53t139 42.5l9 -22q-69 -41 -125.5 -53t-99 0t-71 46t-43.5 84.5t-15.5 116t14.5 140.5q-27 -12 -54 -6q-2 -25 -5 -62t-9.5 -78t-18.5 -81.5t-32 -73t-49.5 -53.5t-70.5 -22q-60 -2 -100.5 30t-60.5 90
q-14 -31 -33 -57.5t-42 -44.5t-50.5 -27t-58.5 -6q-35 3 -57.5 35t-32.5 79t-7 103.5t19.5 110t46 97.5t73.5 66q40 20 79 17.5t66 -37.5q0 -2 2 -4q5 22 10 42.5t11 41.5q-75 3 -151.5 17.5t-153.5 30t-155 27.5t-156 10t-156 -23t-156 -70q13 45 43.5 79.5t71 58.5
t86 35.5t89.5 9.5q55 -3 114.5 -15.5t119 -30t117.5 -36.5t111.5 -34.5t100 -24.5t83.5 -6q31 100 70.5 156.5t78.5 79.5t74.5 18t59 -27t31 -56.5t-8.5 -70t-60 -67.5t-124 -50z" />
    <glyph glyph-name="d_alt4" horiz-adv-x="942" 
d="M217 428q-23 -9 -40.5 -34t-29.5 -58t-18.5 -70t-6.5 -69t6.5 -55.5t20.5 -30.5q28 -14 51 7t38.5 59.5t23 86t6 87.5t-14 63.5t-36.5 13.5zM683 393q-29 -12 -54 -6q-2 -25 -5 -62t-10 -78t-19 -81.5t-32 -73t-49 -53.5t-70 -22q-60 -2 -101 30t-61 90
q-14 -31 -33 -57.5t-42 -44.5t-50 -27t-58 -6q-35 3 -58 35t-33 79t-7 103.5t19.5 110t46 97.5t73.5 66q40 20 79.5 17.5t65.5 -37.5q1 -1 1.5 -2t1.5 -2q6 29 13 55.5t15 55.5q-51 38 -73 88.5t-20 105t24 107.5t58.5 97t84 73.5t99.5 36.5q72 9 134 -12t105.5 -65t64 -106
t10.5 -135q-62 106 -125.5 162t-122.5 73.5t-111 3t-92.5 -49t-66 -83t-31.5 -99t10 -97t60 -77.5q31 93 69.5 145t77 72t73 14t57.5 -28.5t30 -56.5t-9 -69t-60.5 -66.5t-123.5 -49.5q-5 -16 -13.5 -47t-17 -70.5t-16 -84.5t-11.5 -89t-3 -83.5t10 -69t26.5 -45.5t46.5 -12
q42 6 69 43.5t43.5 88t24.5 105t11 94.5q-21 10 -36 30t-22 48t-2.5 63t22.5 74l88 -50q-17 -47 -21 -77.5t0.5 -46.5t15 -18.5t21.5 6t21 26.5t13 44q6 -2 24.5 -7.5t38 -14t34 -17.5t12.5 -18q-29 -120 -34 -208t17 -136.5t74 -53t139 42.5l9 -22q-69 -41 -125 -53
t-98.5 0t-71.5 46t-43.5 84.5t-15 116t14.5 140.5zM448 592q53 10 85 31t47 43.5t15 42.5t-10 30q-9 8 -23.5 6.5t-33 -17.5t-39 -49t-41.5 -87z" />
    <glyph glyph-name="d_alt5" horiz-adv-x="873" 
d="M217 427q-23 -9 -40.5 -34t-29.5 -58.5t-18.5 -70t-6.5 -69t6.5 -56t20.5 -30.5q28 -14 50.5 7.5t38.5 60t23.5 86t6 87.5t-14 63.5t-36.5 13.5zM746 -56q-50 -14 -75.5 -35.5t-33 -42.5t-0.5 -37.5t21 -20.5q10 -3 22.5 1.5t25 20.5t23 43.5t17.5 70.5zM862 -41
q-6 -50 -26.5 -91.5t-49 -70t-62 -42t-64.5 -7.5q-22 4 -38.5 20.5t-24 39t-4 49t21 51t50.5 44t85 29.5q-1 50 -22 86.5t-45 60.5t-44 36t-20 14q5 19 20 46t33 56.5t35 59.5t26 55q-29 -20 -56 -25.5t-50 0.5q-2 -27 -5.5 -64t-11 -76t-20 -77t-32 -68t-48 -49t-67.5 -20
q-60 -2 -100.5 30t-61.5 90q-14 -31 -32.5 -57.5t-41.5 -45t-50.5 -27.5t-58.5 -6q-35 4 -57.5 35.5t-32.5 79t-7 104t19.5 110t46 97.5t73.5 66q40 20 79 17t65 -38l3 -3q6 29 13 55.5t16 55.5q-52 38 -74 88.5t-20 105t24 107.5t58.5 96.5t84 73t100.5 36.5q72 9 134 -12
t105.5 -64.5t64 -105.5t9.5 -135q-62 106 -125.5 162t-122.5 73.5t-111 3t-92.5 -49t-66 -83t-31.5 -99t10 -97t60 -77.5q7 20 13.5 38.5t13.5 35.5q30 70 66.5 106t72 46.5t66.5 -0.5t50 -35t23.5 -57t-13 -66t-60.5 -62t-118 -45q-17 -51 -29 -106t-19 -108
q-2 -14 -5.5 -42t-5 -61t0 -67.5t10 -61.5t25 -43t45.5 -12q40 6 67 40.5t43.5 82t25 100t11.5 93.5q-24 12 -41.5 35t-24.5 52t-2.5 62t24.5 65l88 -51q-19 -48 -19 -75.5t11 -40t29 -11t35.5 10t31 23t15.5 29.5q6 -2 20 -10t27.5 -18t22 -20t1.5 -16q-28 -41 -48 -74
q-18 -28 -32 -51t-12 -25q68 -66 101.5 -138t28.5 -166zM447 591q55 11 87.5 32.5t47 45t13 44t-13.5 28.5q-9 6 -24 3t-32.5 -20t-37.5 -49t-40 -84z" />
    <glyph glyph-name="d_alt6" horiz-adv-x="871" 
d="M215 427q-23 -9 -40.5 -34.5t-29.5 -58.5t-18.5 -70t-6.5 -69t6.5 -55.5t20.5 -30.5q28 -14 51 7t38.5 59.5t23 86.5t6 88t-14 63.5t-36.5 13.5zM446 590q53 11 85 32t47 43.5t15 43t-11 29.5q-9 8 -23.5 6t-32.5 -18t-38.5 -49t-41.5 -87zM436 563q-17 -53 -28.5 -106.5
t-20.5 -107.5l-6 -42t-5.5 -61t0.5 -67.5t10.5 -61.5t25.5 -43t46 -12q40 6 66.5 40.5t43 82t25 100t11.5 93.5q-24 12 -41.5 35t-24.5 52t-2 61.5t25 64.5l87 -50q-19 -48 -19 -76t11 -40t29 -11t36 10t31.5 23.5t15.5 29.5q5 -2 19.5 -10t28 -18t21.5 -20t1 -16
q-28 -41 -48 -74q-18 -28 -32 -51.5t-12 -25.5q68 -65 102 -137t28 -166q-5 -50 -25.5 -91.5t-49.5 -70t-62 -42t-64 -7.5q-22 4 -38.5 20.5t-24 39t-4 48.5t20.5 50.5t50.5 44.5t85.5 30q-1 49 -22 85.5t-45 61t-44 36.5t-20 14q5 18 20 45t33 57t35 60t26 55
q-29 -20 -56 -25.5t-50 0.5q-2 -27 -5.5 -64t-11 -76t-20 -77t-32 -68.5t-48 -49.5t-67.5 -20q-60 -2 -101 30.5t-61 89.5q-14 -31 -33 -57t-42 -44.5t-50 -27.5t-58 -6q-35 4 -58 35.5t-33 79t-7 104t19.5 110t46 97.5t73.5 66q40 20 79 17t66 -38l2 -3q5 20 10 41.5
t11 42.5q-75 3 -151.5 17.5t-153.5 30t-155 27.5t-156 10t-156 -23t-156 -70q13 44 43.5 79t71 58.5t86 35.5t89.5 10q56 -3 115 -15.5t119 -30t118 -37t111 -35t100 -24t84 -5.5q16 52 33 96q30 70 67 106t73 46t67.5 -0.5t51 -34.5t24.5 -56.5t-13 -65.5t-61.5 -62
t-120.5 -46zM745 -56q-45 -13 -70.5 -32t-35 -38t-7 -36t13.5 -25q10 -8 23.5 -6.5t28 15.5t27 43.5t20.5 78.5z" />
    <glyph glyph-name="g_alt3" horiz-adv-x="820" 
d="M217 428q-23 -9 -40.5 -34.5t-29.5 -58.5t-18.5 -70t-6.5 -69t6.5 -55.5t20.5 -30.5q28 -14 51 7.5t39 60t24.5 86.5t6.5 88t-14.5 63t-38.5 13zM561 393q-28 -12 -54 -6q-8 -11 -19.5 -21.5t-26.5 -18t-32.5 -11t-37.5 -0.5q-3 -40 -8 -85.5t-11 -93t-13 -93.5t-16 -86
q101 9 196 -1.5t188.5 -28t186.5 -34t189.5 -19.5t199.5 15t215 71q-30 -58 -67.5 -95t-79.5 -58t-87 -29t-88.5 -8.5t-84.5 5t-75 10.5q-97 15 -190 42t-180.5 52t-170 40.5t-158.5 7.5q-20 -80 -50.5 -126t-62.5 -65.5t-63 -17t-53 19.5t-31.5 44t1.5 56t45 55.5t100 42.5
q6 26 12 55.5t11 62.5q-28 -37 -65 -58t-82 -16q-35 4 -58 35.5t-33 79t-7 104t19.5 110t46 97.5t73.5 66q39 20 77 17.5t65 -34.5v16.5t1 15.5q24 -5 45.5 -10t37.5 -10t25.5 -10t9.5 -10q-1 -11 -2.5 -38.5t-5.5 -66.5q26 -3 47.5 8.5t35.5 28.5q-18 12 -31 32t-18 47
t0 60t22 70l87 -50q-17 -47 -21 -77.5t0.5 -46.5t15 -18.5t21.5 6t21 26.5t13 44q6 -2 24.5 -7.5t38 -13.5t34 -17.5t12.5 -18.5q-28 -120 -33.5 -208t17 -136.5t74.5 -53t139 42.5l9 -22q-104 -61 -178 -58.5t-117.5 52t-55 138.5t10.5 202zM214 -76q-38 -12 -61 -28.5
t-34.5 -33t-12 -30.5t5.5 -22t17.5 -7.5t26 12.5t29.5 38.5t29 70.5z" />
    <glyph glyph-name="g_alt4" horiz-adv-x="845" 
d="M218 427q-23 -9 -40.5 -34t-29.5 -58t-18.5 -70t-6.5 -69t6.5 -56t20.5 -30q21 -10 39.5 -0.5t33 32.5t25 55t16.5 66t7 67t-4.5 57t-17.5 36t-31 4zM585 393q-27 -12 -54 -7q-9 -12 -23 -24t-31.5 -19.5t-38.5 -9t-45 7.5q-8 -97 -21 -195.5t-33 -189.5q50 -11 75 -38.5
t29.5 -63t-9 -76.5t-40.5 -80t-64 -72.5t-80.5 -54t-90.5 -24.5t-93 16q-24 10 -47 28t-41.5 43t-31 55.5t-15.5 65.5q51 -57 106 -82t108 -27t100.5 15.5t84.5 45t60.5 62t26.5 67t-16.5 59t-67.5 38.5q-21 -76 -51.5 -119t-62 -60.5t-62 -14t-51.5 21t-30 44t2 55t45.5 55
t99.5 42.5q7 25 12.5 55t10.5 62q-28 -37 -65 -57.5t-82 -15.5q-35 3 -57.5 35t-32.5 79t-7 103.5t19.5 110t46 97.5t73.5 66q38 20 76.5 17.5t64.5 -34.5q1 9 1 17v15q24 -5 45.5 -10t38 -10t25.5 -10t9 -10q-2 -50 -6 -100q32 -11 60.5 0.5t44.5 31.5q-18 12 -31.5 32.5
t-18.5 47.5t0 60t22 70l88 -51q-17 -47 -21 -77.5t0.5 -46t15 -18.5t21.5 5.5t21 27t13 44.5q6 -2 24.5 -8t38 -14t34 -17.5t12.5 -18.5q-28 -120 -33.5 -208t17 -136t74.5 -53t139 42l9 -22q-104 -61 -178.5 -58.5t-117.5 52.5t-54.5 139t10.5 202zM214 -76
q-38 -12 -61 -28.5t-34.5 -33.5t-12 -31.5t6.5 -21.5q6 -8 17.5 -7t25.5 13.5t29 38.5t29 70z" />
    <glyph glyph-name="h_alt3" horiz-adv-x="865" 
d="M606 393q-29 -12 -54 -6q-2 -31 -6 -71t-10.5 -81.5t-17.5 -81t-28 -70.5t-40.5 -50t-55.5 -20q-50 -1 -83 19.5t-52.5 53t-28.5 71t-12.5 72.5t-2.5 58t1 28q-29 -48 -54.5 -124.5t-60.5 -183.5q-5 -6 -17.5 -6.5t-26.5 3t-26 11.5t-15 19q-15 53 -16 124t7 146
t23 146.5t32 125.5q-55 37 -79.5 88t-24 106t22.5 109.5t58.5 99t84.5 75t101 37.5q72 9 134.5 -12t106 -64.5t64 -106t9.5 -134.5q-63 107 -127 163t-123.5 73t-112 1t-92.5 -51.5t-65 -85.5t-29.5 -101t14.5 -97.5t66 -75.5q14 39 30 77t39 73q32 46 66.5 66t65.5 20
t57 -15.5t40 -40.5t14 -56t-20 -61.5t-62.5 -56.5t-113.5 -42q-15 -45 -30 -102.5t-28 -117.5t-22 -118t-13 -104q9 26 22.5 63t29.5 77t33.5 80t34.5 71.5t32.5 51t27.5 19.5q9 0 23.5 -3.5t27.5 -8.5t22 -11t8 -10q-19 -80 -28 -146t-6.5 -115.5t17.5 -82t43 -45.5
q31 -14 54 0.5t39.5 46t27 74t17 84t9.5 76.5t4 51q-21 10 -36 30t-22 48t-2.5 63t22.5 74l88 -50q-17 -47 -21 -77.5t0.5 -46.5t15 -18.5t21.5 6t21 26.5t13 44q6 -2 24.5 -7.5t38 -14t34 -17.5t12.5 -18q-29 -120 -34 -208t17 -136.5t74 -53t139 42.5l9 -22
q-69 -41 -125 -53t-98.5 0t-71.5 46t-43.5 84.5t-15 116t14.5 140.5zM196 591q52 10 84 30.5t47.5 42.5t16.5 42t-9 31q-8 9 -22.5 9t-32.5 -14t-38 -44.5t-40 -82.5z" />
    <glyph glyph-name="h_alt4" horiz-adv-x="868" 
d="M55 537q-75 3 -151.5 17.5t-153.5 30t-155 27.5t-156 10t-156 -23t-156 -70q13 44 43.5 79t71 58.5t86 35.5t89.5 10q56 -2 115 -15t119 -30.5t118 -36.5t111 -34.5t100 -24.5t84 -6q8 26 16.5 50.5t16.5 45.5q31 71 67.5 107.5t72.5 47t67.5 -0.5t51 -35t24 -57t-13 -66
t-61.5 -62.5t-120 -46.5q-16 -47 -30.5 -101.5t-26.5 -110.5t-20.5 -111t-12.5 -103q9 26 22.5 63t29.5 77t33.5 80t34.5 71.5t32.5 51t27.5 19.5q9 0 23.5 -3.5t27.5 -8.5t22 -11t8 -10q-19 -80 -27.5 -146t-6 -115.5t17 -82t42.5 -45.5q31 -14 54 0.5t39.5 46t27 74t17 84
t9.5 76.5t4 51q-21 10 -36 30t-22 48t-2.5 63t22.5 74l88 -50q-17 -47 -21 -77.5t0.5 -46.5t15 -18.5t21.5 6t21 26.5t13 44q6 -2 24.5 -7.5t38 -14t34 -17.5t12.5 -18q-29 -120 -34 -208t17 -136.5t74.5 -53t139.5 42.5l9 -22q-69 -41 -125.5 -53t-99 0t-71.5 46
t-43.5 84.5t-15 116t14.5 140.5q-28 -12 -54 -6q-2 -31 -6 -71t-10.5 -81.5t-17.5 -81t-28 -70.5t-40.5 -50t-55.5 -20q-50 -1 -83 19.5t-52.5 53t-28.5 71t-12 72.5t-2 58t1 28q-29 -48 -55 -124.5t-61 -183.5q-5 -6 -17.5 -6.5t-26.5 3t-26 11.5t-15 19q-15 53 -17 117.5
t4.5 132t20 133.5t29.5 120zM195 576q55 11 87.5 33t46.5 45t12.5 43.5t-13.5 28.5q-10 6 -24.5 2.5t-32 -20t-37.5 -49t-39 -83.5z" />
    <glyph glyph-name="h_alt5" horiz-adv-x="800" 
d="M674 -56q-44 -12 -69 -30.5t-35.5 -37t-8.5 -35.5t11 -26t23 -8.5t29 14t28.5 43.5t21.5 80zM188 563q-16 -48 -31 -104.5t-27.5 -115t-21.5 -115.5t-13 -106q9 26 22.5 63t29.5 77t33.5 79.5t34.5 71t32.5 51t27.5 20.5q9 0 23.5 -4t27.5 -9t22 -10.5t8 -9.5
q-19 -80 -28 -146t-6.5 -116t17.5 -82.5t43 -45.5q29 -13 51 -0.5t38 40.5t27 66.5t18 78.5t10.5 75.5t5.5 57.5q-24 12 -41 35t-24 52t-2.5 61.5t24.5 64.5l88 -51q-19 -48 -19 -75.5t11 -40t29 -11t36 10t31.5 23t15.5 29.5q5 -2 19 -10t27.5 -18t22 -20t1.5 -15
q-28 -41 -48 -74q-18 -28 -32 -51.5t-12 -25.5q67 -65 101.5 -137.5t28.5 -165.5q-6 -50 -26.5 -91.5t-49 -70t-61.5 -42t-64 -7.5q-22 4 -38.5 20t-24 38.5t-4 49t20.5 51t50.5 44t85.5 29.5q-2 50 -22.5 86.5t-45 60.5t-44 36t-19.5 14q5 19 20 46t33 56.5t34.5 59.5
t25.5 55q-29 -20 -56.5 -25t-50.5 1q-3 -32 -7 -71t-11 -78.5t-18 -76.5t-27.5 -66.5t-39.5 -47t-54 -18.5q-50 -2 -83 19t-52.5 53.5t-28.5 70.5t-12.5 72t-2.5 58t1 28q-29 -47 -54.5 -123.5t-60.5 -183.5q-5 -6 -17.5 -7t-26.5 2.5t-26 11.5t-15 19q-16 56 -17 126
t7.5 143t24 143.5t33.5 129.5q-56 37 -80.5 88t-24.5 106t21.5 109.5t58 99t85 75t101.5 37.5q72 9 134.5 -12t106 -64.5t64 -105.5t9.5 -135q-63 107 -127 163t-124 73t-112.5 1t-92.5 -52t-65 -86t-29 -101t15 -97.5t67 -75.5q7 21 13.5 41t14.5 37q31 71 67.5 107.5
t72.5 47t67 -0.5t51 -35t24 -57t-13.5 -66t-61.5 -62.5t-120 -46.5zM198 591q58 12 90.5 34.5t46 46.5t10.5 44t-17 27q-10 5 -24 1t-30.5 -19.5t-34 -44.5t-35.5 -75z" />
    <glyph glyph-name="h_alt6" horiz-adv-x="799" 
d="M672 -56q-41 -12 -65 -28.5t-35.5 -34t-11.5 -34t7 -26.5q8 -12 22 -14.5t29.5 10.5t30 43t23.5 84zM183 547q-15 -46 -29.5 -100.5t-26.5 -111t-20.5 -111.5t-12.5 -103q9 26 22.5 63t29.5 77t33.5 80t34.5 71.5t32.5 51t27.5 19.5q9 0 23.5 -3.5t27.5 -8.5t22 -10.5
t8 -9.5q-19 -80 -28 -146t-6.5 -116t17.5 -82.5t43 -45.5q29 -13 51 -0.5t38 40.5t27 66.5t17.5 78.5t10 75.5t5.5 57.5q-24 12 -41 35t-23.5 52t-2 61.5t24.5 64.5l88 -51q-19 -48 -19 -75.5t11 -40t29 -11t35.5 10t31 23t15.5 29.5q6 -2 20 -10t27.5 -18t22 -20t1.5 -15
q-28 -41 -48 -74q-18 -28 -32 -51.5t-12 -25.5q68 -66 101.5 -138t28.5 -166q-6 -50 -26.5 -91t-49 -69.5t-61.5 -42.5t-64 -8q-22 4 -38.5 20.5t-24 39t-4.5 49t20.5 51t50.5 44t85 29.5q-1 50 -22 86.5t-45 60.5t-44 36t-20 14q5 19 20.5 46t33.5 56.5t34.5 59.5t25.5 55
q-29 -20 -56.5 -25.5t-50.5 1.5q-3 -32 -7 -71t-11 -78.5t-18 -77t-28 -66.5t-40 -47t-54 -19q-50 -1 -83 20t-52.5 53t-28.5 70.5t-12 72.5t-2 58t1 28q-29 -48 -55 -124t-61 -184q-5 -6 -17.5 -6.5t-26 3t-25.5 11.5t-15 19q-14 50 -16 114.5t4 133t19 135t29 120.5
q-75 3 -151.5 17.5t-153.5 30.5t-155 28t-156 10t-156 -23t-156 -70q13 44 43.5 79t71 58.5t86 35t89.5 9.5q55 -3 114.5 -15.5t119 -29.5t117.5 -36.5t111.5 -35t100.5 -24t84 -5.5q8 26 16.5 50t16.5 46q31 71 67.5 107t72.5 46.5t67.5 -0.5t51 -35t24 -57t-13 -66
t-61.5 -62.5t-120 -46.5zM192 575q58 12 91 35t46.5 47.5t9.5 45t-19 25.5q-10 3 -24.5 -2t-31 -22.5t-35 -49t-37.5 -79.5z" />
    <glyph glyph-name="j_alt3" horiz-adv-x="771" 
d="M334 500q-28 3 -47 14t-30.5 27t-17 35t-6.5 38q-4 45 12 100q35 -6 57 -14.5t34 -17.5t16 -17t4 -13q-4 -33 -11 -76t-11 -76zM512 393q-28 -12 -55 -7q-9 -12 -22.5 -23.5t-30.5 -19t-37 -9.5t-43 6q-8 -95 -21.5 -191t-33.5 -185q0 -2 -0.5 -2.5t-0.5 -1.5
q47 -13 70 -40.5t26 -63.5t-11 -77t-41 -79t-64 -70.5t-80.5 -52.5t-90 -24t-91.5 16q-24 10 -47 28t-41.5 43t-31 55.5t-15.5 65.5q50 -56 104.5 -81t107 -27.5t100 14t84.5 43.5t61 60.5t28.5 66t-13 59.5t-62.5 40q-22 -72 -52 -112.5t-61.5 -56.5t-61 -11t-50 22.5
t-28.5 44t3 55t45.5 54t98.5 41.5q15 57 25.5 129t17.5 143.5t10.5 134.5t3.5 102q24 -5 45.5 -10t38 -10t26 -10t9.5 -10q-2 -19 -2.5 -37.5t-2.5 -38.5q31 -10 58 1.5t42 31.5q-18 12 -31 32.5t-18 47.5t0 60t22 70l87 -50q-25 -71 -22 -104.5t17.5 -38t32.5 16.5t23 60
q5 -2 23.5 -8t38 -14t34.5 -17.5t13 -18.5q-29 -120 -34 -208t17 -136t74 -52.5t139 42.5l9 -22q-69 -41 -125.5 -53t-99 0t-71 46t-43 84.5t-15 116t14.5 140.5zM146 -60q-37 -12 -59.5 -27.5t-34 -32t-13 -30.5t3.5 -23q6 -9 17.5 -9.5t26 11.5t30 39t29.5 72z" />
    <glyph glyph-name="j_alt4" horiz-adv-x="776" 
d="M330 501q-28 3 -47 14t-30.5 26.5t-17 34.5t-6.5 38q-4 45 12 100q35 -6 57 -14t34 -17t16 -17t4 -13q-3 -34 -10 -76.5t-12 -75.5zM509 393q-14 -6 -27.5 -7t-26.5 1q-9 -12 -22.5 -23.5t-31 -19t-38 -9.5t-43.5 6q-8 -91 -20 -181.5t-31 -175.5q84 6 163.5 -1
t157 -20.5t154.5 -28.5t156 -25q22 -2 44.5 -4t45.5 -4q103 -5 212 12t229 73q-41 -80 -96.5 -120.5t-116 -56.5t-121 -13.5t-112.5 9.5q-10 2 -19 3t-18 3q-12 2 -23.5 4t-23.5 4q-88 17 -172.5 42t-164.5 47.5t-156 36.5t-146 9q-21 -77 -51 -121t-62 -62t-62.5 -14.5
t-52 20.5t-30.5 44t2 55.5t45.5 55t99.5 42.5q15 57 25.5 128.5t17.5 143t10.5 134.5t3.5 103q24 -5 45.5 -10.5t38 -10.5t26 -10t9.5 -10q-1 -18 -2 -37t-3 -38q31 -11 58.5 1t42.5 32q-18 12 -31 32t-18 47.5t0 60.5t22 70l88 -51q-17 -47 -21 -77.5t0.5 -46t15 -18.5
t21.5 5.5t21 27t13 44.5q6 -2 24.5 -8t38 -14t34 -17.5t12.5 -18.5q-29 -120 -34 -208t17 -136.5t74.5 -53t139.5 42.5l9 -22q-104 -61 -178.5 -58.5t-117.5 52.5t-54.5 139t10.5 201zM142 -59q-38 -12 -61 -29t-34.5 -34t-12 -31.5t6.5 -21.5q6 -7 17.5 -6.5t25.5 13.5
t29 39t29 70z" />
    <glyph glyph-name="k_alt3" horiz-adv-x="832" 
d="M188 563q-16 -48 -31 -104.5t-27.5 -114.5t-21.5 -115.5t-13 -106.5q9 26 22.5 63t29.5 77t33.5 80t34.5 71.5t32.5 51t27.5 19.5q19 1 28 0t19 -1q-20 -22 -38 -48q-16 -22 -33.5 -51t-31.5 -61q-3 -33 2 -68.5t16.5 -68t29.5 -60t41 -45.5q29 -23 54 -13t45.5 39t37 71
t27.5 84t17.5 78.5t7.5 53.5q-21 10 -36 30.5t-21.5 48.5t-2 63t22.5 74l87 -51q-25 -71 -22 -104.5t17.5 -37.5t32.5 17t23 60q5 -2 23.5 -8t38 -14t34.5 -17.5t13 -18.5q-29 -120 -34 -208t17 -136.5t74 -53t139 42.5l9 -22q-104 -61 -178 -58.5t-117.5 52.5t-54.5 139
t11 201q-26 -11 -55 -6q-1 -13 -4.5 -45.5t-11 -74t-20.5 -86t-33 -82t-47.5 -62.5t-64.5 -26q-40 -2 -69.5 10t-51.5 32t-37.5 46.5t-25.5 54.5q-12 -34 -24.5 -70.5t-25.5 -76.5q-2 -6 -14.5 -7t-27 3t-27.5 12t-16 19q-15 52 -16 119.5t6.5 138t20.5 138.5t28 122
q-75 3 -151.5 17.5t-153.5 30t-154.5 27.5t-155.5 10t-156 -23t-155 -70q13 45 43.5 79.5t71 58.5t86 35.5t89.5 9.5q55 -3 114 -15.5t118.5 -29.5t117 -36t111 -35t100 -25t83.5 -6q30 100 69 157t78.5 80t75.5 18t60 -27t32.5 -56.5t-7.5 -70.5t-60 -68t-125 -50zM198 591
q53 10 85 30.5t47 43t15 43t-10 30.5q-8 8 -22.5 6.5t-33 -17t-39.5 -48.5t-42 -88z" />
    <glyph glyph-name="k_alt4" horiz-adv-x="834" 
d="M324 483q-20 -22 -38 -48q-16 -22 -34 -51t-32 -61q-3 -33 2 -68.5t17 -68t30 -60t41 -45.5q29 -23 54 -13t45.5 39t36.5 71t27.5 84t18 78.5t7.5 53.5q-21 10 -36 30.5t-22 48.5t-2.5 63t22.5 74l88 -51q-17 -47 -21 -77.5t0.5 -46t15 -18.5t21.5 5.5t21 27t13 44.5
q6 -2 24.5 -8t38 -14t34 -17.5t12.5 -18.5q-29 -120 -34 -208t17 -136.5t74.5 -53t139.5 42.5l9 -22q-104 -61 -178.5 -58.5t-117.5 52.5t-54.5 139t10.5 201q-14 -6 -27.5 -7t-26.5 1q-1 -13 -4.5 -45.5t-11 -74t-20.5 -86t-33 -82t-48 -62.5t-65 -26q-39 -2 -69 10t-52 32
t-37.5 46.5t-25.5 54.5q-12 -34 -24.5 -70.5t-25.5 -76.5q-2 -6 -14.5 -7t-27 3t-27 12t-15.5 19q-17 58 -18 130t8 147t25.5 147t35.5 131q-46 40 -65 90t-15 103t26.5 105t59 94t83 70t97.5 35q72 10 134 -11t105.5 -65t64 -106t10.5 -135q-61 104 -123 159.5t-120 74
t-110 6t-92.5 -45t-67 -79t-35 -96t4 -96.5t50.5 -80q5 17 11 33t12 31q31 71 67.5 107.5t72.5 47t67 -0.5t51 -35t24 -57t-13.5 -66t-61.5 -62.5t-120 -46.5q-15 -47 -30 -103.5t-27 -115.5t-21 -116.5t-13 -105.5q9 26 22.5 63t29.5 77t33.5 80t34.5 71.5t32 51t27 19.5
q20 1 29 0t19 -1zM198 591q48 9 78.5 27t47 38.5t20.5 40t-2 32.5t-20.5 16t-34 -11t-43 -48t-46.5 -95z" />
    <glyph glyph-name="k_alt5" horiz-adv-x="769" 
d="M643 -56q-44 -12 -69 -30t-35.5 -37t-8.5 -35.5t11 -25.5t23 -9.5t29 13.5t28.5 43.5t21.5 80.5zM186 563q-16 -48 -31 -104.5t-27 -115t-21 -115.5t-13 -106q9 26 22.5 63t29.5 77t33.5 80t34.5 71.5t32 51t27 19.5q20 1 29 0t19 -1q-20 -22 -38 -48q-16 -22 -34 -51
t-32 -61q-3 -33 2 -68.5t17 -68t30 -60.5t41 -46q27 -21 51 -13t44 34t36 65t27.5 79.5t18.5 77.5t10 59q-22 13 -37.5 36t-21.5 51.5t-0.5 60t24.5 62.5l87 -51q-18 -48 -18.5 -75.5t10.5 -40t29 -11t36 10t31.5 23t15.5 29.5q5 -2 19.5 -10t28 -18t21.5 -20t1 -15
q-28 -41 -48 -74q-18 -28 -32 -51.5t-12 -25.5q67 -65 101.5 -137.5t28.5 -165.5q-5 -50 -25.5 -91.5t-49.5 -70t-62 -42t-64 -7.5q-22 4 -38.5 20.5t-24 39t-4 48.5t20.5 50.5t50.5 44t85.5 29.5q-2 50 -22.5 86.5t-45 60.5t-44 36t-19.5 14q5 19 20 46t33 56.5t34.5 59.5
t25.5 55q-31 -21 -59.5 -25.5t-53.5 3.5q-2 -20 -6 -54t-12.5 -74t-22 -81t-33 -74.5t-46 -55.5t-61.5 -23q-40 -2 -69.5 9.5t-51.5 32t-37.5 47t-25.5 53.5q-12 -33 -24.5 -69.5t-25.5 -76.5q-2 -6 -14.5 -7t-27 3t-27.5 12t-16 19q-14 51 -15.5 117.5t5.5 137t20.5 139
t29.5 124.5q-75 3 -151.5 17.5t-153.5 30t-154.5 27.5t-155.5 10t-156 -23t-156 -70q13 44 43.5 79t71 58.5t86 35.5t89.5 10q55 -3 114.5 -15.5t119 -30t117.5 -36.5t111 -34.5t100 -24.5t84 -6q8 26 16.5 50.5t17.5 45.5q31 71 67.5 107.5t72.5 47t67 -0.5t51 -35t24 -57
t-13.5 -66t-61.5 -62.5t-120 -46.5zM196 591q57 11 90 34t46.5 47t10.5 44.5t-17 26.5q-10 4 -24.5 -1t-32 -22t-36 -48.5t-37.5 -80.5z" />
    <glyph glyph-name="k_alt6" horiz-adv-x="769" 
d="M643 -56q-45 -12 -70 -30.5t-35 -37.5t-8 -35.5t12 -25.5q9 -9 23 -8.5t28.5 14.5t28 43.5t21.5 79.5zM67 589q-46 39 -64.5 89.5t-15 103.5t26.5 104.5t59 94t82.5 70.5t97.5 35q72 9 134.5 -12t106 -64.5t64 -105.5t9.5 -135q-61 104 -123 159.5t-120 74t-109.5 6
t-92 -45t-67.5 -79t-35 -96t4.5 -96.5t50.5 -80q10 32 23 64q31 71 67.5 107.5t72.5 47t67 -0.5t51 -35t24 -57t-13.5 -66t-61.5 -62.5t-120 -46.5q-15 -47 -30 -103.5t-27 -115.5t-21 -116.5t-13 -105.5q9 26 22.5 63t29 77t33.5 80t34.5 71.5t32 51t27.5 19.5q20 1 29 0
t19 -1q-20 -22 -38 -48q-16 -22 -34 -51t-32 -61q-3 -33 2 -68.5t17 -68t29.5 -60.5t40.5 -46q28 -21 52 -13t44 34t36 65t27.5 79.5t18.5 77.5t10 59q-22 13 -37.5 36t-21.5 51.5t-0.5 60t24.5 62.5l87 -51q-18 -48 -18.5 -75.5t10.5 -40t29 -11t36 10t31.5 23t15.5 29.5
q5 -2 19 -10t27.5 -18t22 -20t1.5 -15q-28 -41 -48 -74q-18 -28 -32 -51.5t-12 -25.5q67 -65 101.5 -137.5t28.5 -165.5q-5 -50 -25.5 -91.5t-49.5 -70t-62 -42t-64 -7.5q-22 4 -38.5 20.5t-24 39t-4 48.5t20.5 50.5t50.5 44t85.5 29.5q-2 50 -22.5 86.5t-45 60.5t-44 36
t-19.5 14q5 19 20 46t33 56.5t34.5 59.5t25.5 55q-31 -21 -60 -25.5t-53 3.5q-2 -20 -6.5 -54t-13 -74t-21.5 -81t-32.5 -74.5t-46 -55.5t-61.5 -23q-40 -2 -69.5 9.5t-51.5 32t-37.5 47t-25.5 53.5q-12 -33 -24.5 -69.5t-25.5 -76.5q-2 -6 -14.5 -7t-27 3t-27.5 12t-16 19
q-15 55 -16 127.5t8 148.5t25 149t34 130zM195 590q57 12 90 34.5t46.5 46.5t10.5 44.5t-17 27.5q-10 4 -24 -0.5t-31.5 -21.5t-36.5 -49t-38 -82z" />
    <glyph glyph-name="l_alt3" horiz-adv-x="682" 
d="M368 387q-2 -30 -8 -71t-17 -85t-27 -86.5t-38 -75.5t-50.5 -52.5t-63.5 -16.5q-47 4 -81 30t-53.5 70.5t-25.5 104t2 130.5h1q5 51 16.5 101t25.5 98q-75 3 -151.5 17.5t-153.5 30.5t-155 27.5t-156 9.5t-156 -22.5t-156 -70.5q13 45 43.5 80t71 58.5t86 35t89.5 9.5
q55 -3 114.5 -15.5t119 -30t117.5 -36.5t111.5 -34.5t100 -24.5t83.5 -6q8 26 17 50.5t17 45.5q35 80 77 116.5t81.5 42t71 -14.5t45.5 -52.5t4.5 -71.5t-52.5 -73l79 -46q-17 -47 -21 -77.5t0.5 -46t15 -18.5t21.5 5.5t21 27t13 44.5q6 -2 24.5 -8t38 -14t34 -17.5
t12.5 -18.5q-28 -120 -33.5 -208t17 -136t74.5 -52.5t139 42.5l9 -23q-104 -61 -178.5 -58.5t-117.5 52.5t-54.5 139t10.5 202q-27 -12 -54 -7zM302 594q-23 -15 -53 -27.5t-70 -21.5v-1q-12 -43 -23.5 -86.5t-19.5 -87.5q-2 -9 -3.5 -18.5t-3.5 -17.5q-19 -111 -11.5 -176
t30 -89.5t54.5 -12.5t62.5 55.5t54 115.5t28.5 167q-20 9 -34.5 28t-21.5 45t-5 58t16 69zM188 573q52 10 83.5 30t47 42t17 42t-7.5 31q-8 10 -23 9.5t-33.5 -16t-40 -49t-43.5 -89.5z" />
    <glyph glyph-name="l_alt4" horiz-adv-x="682" 
d="M369 387q-2 -30 -8.5 -71t-17.5 -85t-27 -86.5t-38 -75.5t-50.5 -52.5t-63.5 -16.5q-45 3 -77.5 27.5t-52.5 65t-27.5 95t-2.5 119.5q5 66 20 132t35 129q-51 38 -72 89t-19 105t24 107t58.5 96t84 72.5t99.5 36.5q72 9 134 -12t105.5 -64.5t64 -106t10.5 -134.5
q-62 106 -125 161.5t-122 73.5t-111 4t-92.5 -48.5t-66.5 -82.5t-32.5 -98.5t9 -97.5t58.5 -78q6 18 12.5 35t12.5 34q35 80 77.5 116.5t82 41.5t71 -14.5t45 -52.5t3.5 -72t-53 -73l81 -47q-17 -47 -21 -77.5t0.5 -46t15 -18.5t21.5 5.5t21 27t13 44.5q5 -2 23.5 -8t38 -14
t34.5 -17.5t13 -18.5q-29 -120 -34 -208t17 -136t74 -52.5t139 42.5l9 -23q-104 -61 -178 -58.5t-117 52.5t-54.5 139t10.5 202q-28 -12 -54 -7zM304 596q-23 -15 -53.5 -27.5t-70.5 -21.5l-1 -1q-17 -63 -32.5 -125.5t-23.5 -127.5q-13 -98 -3 -154.5t33.5 -76t54.5 -4.5
t60.5 59t51.5 114.5t27 162.5q-20 10 -34.5 28.5t-21.5 45t-4.5 59t17.5 69.5zM189 574q55 11 87 33t46.5 45t13.5 43.5t-13 28.5q-9 7 -24 4t-32.5 -19.5t-37.5 -49.5t-40 -85z" />
    <glyph glyph-name="l_alt5" horiz-adv-x="623" 
d="M344 384q-21 14 -36 37t-20 50.5t0.5 58.5t23.5 61l88 -51q-19 -48 -19 -75.5t11 -40t29 -11t35.5 10t31 23t15.5 29.5q6 -2 20 -10t27.5 -18t22 -20t1.5 -15l-48 -74q-18 -28 -32 -51.5t-12 -25.5q67 -65 101 -137t29 -166q-6 -50 -26.5 -91.5t-49.5 -70t-62 -42
t-64 -7.5q-22 4 -38.5 20.5t-24 39t-4 48.5t20.5 50.5t50.5 44t85.5 29.5q-1 50 -22 86.5t-45 60.5t-44 36t-20 14q5 19 20 46t33 56.5t35 59.5t26 55q-32 -22 -62 -26t-56 5q-3 -31 -9.5 -71.5t-18 -83t-27.5 -83t-37.5 -72t-49.5 -49.5t-62 -15q-57 4 -90.5 35t-50 78
t-18.5 105t4 116t18 111t23 91q-75 3 -151 18t-153 30.5t-154.5 27t-155 9.5t-155.5 -23t-155 -70q13 45 43.5 79.5t71 58.5t86 35.5t89.5 9.5q55 -3 113.5 -15.5t117.5 -29.5t117 -36t111 -34.5t100 -25t84 -6.5q8 25 17 49t20 48q31 70 67.5 106.5t72 46.5t67 -1t51 -35
t24 -56.5t-13 -66t-61.5 -62.5t-120 -46q-35 -105 -53 -214q-19 -110 -12 -174.5t29 -90t54 -14t62.5 54t54 113t29.5 163.5zM496 -57q-42 -12 -66.5 -29t-35.5 -35t-10.5 -34.5t8.5 -26.5q8 -11 22.5 -12t29.5 12t29.5 43t22.5 82zM190 574q54 11 86.5 32.5t47 44.5t14 43
t-12.5 29q-9 7 -24 4.5t-33 -19t-38 -49.5t-40 -85z" />
    <glyph glyph-name="l_alt6" horiz-adv-x="622" 
d="M495 -56q-45 -13 -70.5 -31.5t-35 -38t-7 -36t13.5 -25.5q10 -8 23.5 -6.5t28 15.5t27 43.5t20.5 78.5zM179 563q-12 -41 -23.5 -86t-21 -91.5t-16 -92.5t-7.5 -89q-1 -70 14 -106.5t39 -44t53 12.5t55 63.5t46 108t25 147.5q-21 14 -36 37t-20 50.5t0.5 58.5t23.5 61
l88 -51q-19 -48 -19 -75.5t11 -40t29 -11t35.5 10t31 23t15.5 29.5q6 -2 20 -10t27.5 -18t22 -20t1.5 -15l-48 -74q-18 -28 -32 -51.5t-12 -25.5q67 -65 101 -137t29 -166q-6 -50 -26.5 -91.5t-49.5 -70t-62 -42t-64 -7.5q-22 4 -38.5 20.5t-24 39t-4 48.5t20.5 50.5
t50.5 44t85.5 29.5q-1 50 -22 86.5t-45 60.5t-44 36t-20 14q5 19 20 46t33 56.5t35 59.5t26 55q-32 -22 -62 -26t-56 5q-3 -31 -9.5 -71.5t-18 -83t-27.5 -83t-37.5 -72t-49.5 -49.5t-62 -15q-48 4 -82.5 31.5t-54 74t-24.5 109t6 136.5q8 57 21.5 113.5t30.5 110.5
q-56 37 -80.5 88t-24.5 105.5t21.5 109t58 99.5t85 75.5t101.5 37.5q72 9 134.5 -12t106 -64.5t64 -105.5t9.5 -135q-63 107 -127 163t-124 73t-112.5 1t-92.5 -52t-65 -86t-29 -101t15 -97.5t67 -75.5q7 21 14 40.5t14 37.5q31 71 67.5 107.5t72.5 47t67 -0.5t51 -35
t24 -57t-13.5 -66t-61.5 -62.5t-120 -46.5zM189 590q54 11 86.5 32t47 44t14 43t-11.5 30q-9 7 -23 6t-31.5 -16t-37 -45t-38.5 -79z" />
    <glyph glyph-name="p_alt2" horiz-adv-x="842" 
d="M272 440q-14 15 -30 7.5t-31.5 -29.5t-29.5 -56t-24 -71t-14.5 -74t-1.5 -67t15.5 -48t35.5 -18q15 0 31.5 21.5t31 55.5t25.5 75t14.5 80.5t-1 72.5t-21.5 51zM582 394q-27 -12 -54 -7q-8 -11 -20 -21.5t-26.5 -18t-32 -11t-37.5 -0.5q3 -62 -15.5 -126.5t-49.5 -115
t-69.5 -77.5t-77.5 -14q-33 11 -55 34t-35 54q0 -3 -3 -24.5t-6 -46t-5 -44.5l-2 -20q47 -22 69 -49t26.5 -54t-5.5 -51t-29 -40t-43 -20t-46 9q-30 17 -44.5 63.5t-19.5 111.5q-74 -9 -152.5 -29.5t-158.5 -43.5t-160 -45.5t-156 -35t-148 -12.5t-135.5 22.5t-118 70
t-96.5 129.5q67 -54 151 -78.5t178.5 -30.5t196.5 3t204.5 23.5t202.5 29.5t191 22q-2 52 1 111t10 118.5t16 116.5t18.5 105.5t19.5 86.5t17 59q17 -1 38 -5.5t38.5 -10t29 -12t9.5 -10.5q-3 -5 -6 -14.5t-7 -21.5q21 23 44 35q39 20 76 6t64 -49q17 -21 27 -47t14 -55
q27 -4 50 7.5t37 28.5q-18 12 -31.5 32.5t-18.5 47.5t0 60t22 70l88 -51q-17 -47 -21 -77.5t0.5 -46t15 -18.5t21.5 5.5t21 27t13 44.5q6 -2 24.5 -8t38 -14t34 -17.5t12.5 -18.5q-29 -120 -34 -208t17 -136t74.5 -52.5t139.5 42.5l9 -22q-70 -41 -126 -53t-98.5 0t-71.5 46
t-43.5 84.5t-14.5 116t14 140.5zM86 -73q-6 -46 -3.5 -75t9.5 -44.5t17 -18.5t19 2q12 7 19.5 23.5t5.5 36.5t-17.5 40.5t-49.5 35.5z" />
    <glyph glyph-name="p_alt3" horiz-adv-x="784" 
d="M277 440q-14 15 -30.5 7.5t-32 -29.5t-29.5 -56t-23.5 -71t-14 -74t-1.5 -67t15 -48t35 -18q15 0 31.5 21.5t31.5 55.5t25.5 75t14.5 80.5t-0.5 72.5t-21.5 51zM115 91q-1 -3 -4 -23.5t-6.5 -44t-5.5 -42.5t-1 -19q47 -21 69.5 -48.5t27 -54.5t-6 -51t-29 -40t-42.5 -20
t-47 9q-29 17 -44 63.5t-20 111.5q-74 -9 -152.5 -29.5t-158.5 -43.5t-159.5 -45.5t-156 -35t-148 -12.5t-135 22.5t-118 70t-96.5 129.5q67 -53 151 -78t178.5 -31t196 3.5t204 23.5t202.5 29t191 22q-1 38 1.5 88t8 105.5t13.5 112.5t17.5 110t20.5 98.5t22 76.5
q17 -1 38 -5.5t38.5 -10t28.5 -12t9 -10.5q-2 -5 -5 -14.5t-7 -22.5q22 24 44 36q38 20 75 6t65 -49q17 -21 26.5 -47.5t13.5 -55.5q23 -1 42.5 9t32.5 24q-17 16 -28 38t-14 48t3 54t23 55l88 -51q-19 -48 -19 -75.5t11 -40t29 -11t35.5 10t31 23t15.5 29.5q6 -2 20 -10
t27.5 -18t21.5 -20t1 -15q-27 -41 -47 -74q-9 -14 -17 -27.5t-14.5 -24t-10 -17.5t-2.5 -8q67 -65 101 -137t29 -166q-6 -50 -26.5 -91.5t-49.5 -70t-62 -42t-64 -7.5q-22 4 -38.5 20.5t-24 39t-4 48.5t20.5 50.5t50.5 44t85.5 29.5q-1 50 -22 86.5t-45 60.5t-44 36t-20 14
q5 19 20 46t33 56.5t35 59.5t26 55q-36 -25 -69 -27.5t-59 11.5q-17 -18 -42 -32t-57 -11q2 -62 -16.5 -126.5t-49 -114.5t-69.5 -77t-77 -14q-33 11 -55 34t-35 54zM657 -57q-44 -12 -68.5 -30t-35 -36.5t-9 -35t10.5 -26.5q9 -9 23 -9.5t29 13.5t28.5 43.5t21.5 80.5z
M91 -67q-6 -48 -3.5 -77t10 -44t18 -17t19.5 4q11 7 18 23.5t4.5 36t-18 39.5t-48.5 35z" />
    <glyph glyph-name="q_alt2" horiz-adv-x="853" 
d="M216 443q-23 -9 -40.5 -34t-29.5 -58t-18.5 -70t-6.5 -69t6.5 -56t20.5 -30q27 -14 50 7.5t38.5 60t24 86t7 87.5t-14 63t-37.5 13zM593 392q-27 -11 -54 -6q-9 -12 -22.5 -23.5t-30.5 -19t-37.5 -10t-43.5 5.5q-16 -57 -31 -115.5t-25 -117.5q-6 -38 -9.5 -73t-4.5 -67
q53 -14 78 -37t29.5 -46.5t-8.5 -45t-35.5 -32.5t-51.5 -8.5t-56 26.5q-23 20 -37.5 52t-22.5 69q-75 -7 -154.5 -26t-161 -42l-163 -46t-159.5 -36.5t-151.5 -13.5t-138.5 21.5t-120.5 70t-97.5 132.5q68 -55 153.5 -80.5t182 -31.5t200.5 3.5t208.5 23.5t205.5 29t192 20
q-4 26 -5 50.5t1 46.5q-26 -26 -57 -39.5t-69 -8.5q-35 3 -57.5 35t-32.5 79t-7 103.5t19.5 110t46 97.5t73.5 66q40 20 79 17.5t66 -37.5q13 -19 22 -44q7 20 13 37.5t12 31.5q34 -11 54.5 -22.5t31 -22t13.5 -19t2 -12.5q-5 -17 -10 -35.5t-10 -37.5q29 -8 55 4t41 31
q-18 12 -31.5 32.5t-18.5 47.5t0 60t22 70l88 -51q-17 -47 -21 -77.5t0.5 -46t15 -18.5t21.5 5.5t21 27t13 44.5q6 -2 24.5 -8t38 -14t34 -17.5t12.5 -18.5q-28 -120 -33.5 -208t17 -136t74.5 -53t139 42l9 -22q-104 -61 -178.5 -58.5t-117.5 52.5t-54.5 139t10.5 201z
M335 -61q1 -37 8.5 -57.5t18 -29t21.5 -7t19 9.5q7 8 9.5 20t-4 24.5t-23.5 23t-49 16.5z" />
    <glyph glyph-name="t_alt2" horiz-adv-x="559" 
d="M626 59q-96 -56 -165.5 -58t-114.5 36q-87 -42 -150 -36.5t-102 48t-53.5 116.5t-3.5 169q5 43 14.5 88t21.5 91q-21 4 -35 7t-22 5q-10 3 -15 4l-1 32l20 -5q10 -2 25.5 -6t36.5 -8q10 35 21 67.5t22 64.5q34 -11 54.5 -22.5t31 -22t13 -19t1.5 -13.5q-5 -19 -10 -37.5
t-10 -37.5q24 -4 51 -7t57 -6q13 48 27 90.5t25 74.5q34 -11 54.5 -22.5t31 -22t13.5 -19t2 -12.5q-7 -26 -14 -51l-14 -50q75 -8 140 14.5t114 63.5t80 94.5t38 108.5t-12 104.5t-69 83.5q-5 3 7.5 4.5t35 -2t49.5 -12.5t50.5 -26.5t38.5 -45t14 -66.5q-2 -37 -20.5 -79
t-51 -83t-77.5 -78t-99.5 -64.5t-117.5 -41.5t-130 -10q-9 -35 -17.5 -73.5t-14.5 -76.5q-14 -88 -9 -150t31.5 -93.5t75 -30t123.5 42.5zM197 493q-13 -45 -23.5 -90t-17.5 -92q-12 -80 -9.5 -139t23 -92.5t59 -40t98.5 17.5q-35 44 -48 115t-2 162q4 34 11 70.5t16 73.5
q-31 4 -57.5 7.5t-49.5 7.5z" />
    <glyph glyph-name="y_alt3" horiz-adv-x="790" 
d="M297 -16q82 6 160 -1.5t154 -21t152 -28.5t153 -24q23 -2 45 -4t45 -4q103 -5 212 11.5t229 72.5q-41 -79 -96 -120t-115.5 -56.5t-121.5 -13.5t-113 10q-10 2 -19 3t-18 3q-12 2 -23.5 4t-23.5 4q-86 16 -169 41t-161.5 47t-153 36.5t-143.5 11.5q-21 -78 -51 -122
t-62.5 -62.5t-63 -15t-51.5 20.5t-30 44t2 56t45.5 55.5t99.5 42.5q11 42 19 91.5t15 102.5q-27 -90 -59 -130t-61 -37.5t-52.5 42.5t-33.5 110.5t-4 166t36 208.5q34 -11 55.5 -19.5t34 -15t16.5 -12.5t3 -10q-19 -68 -28 -136t-9.5 -121.5t6.5 -85.5t21 -28q9 2 20 21.5
t21 50.5t20 69.5t17.5 80.5t12.5 83t7 77q0 5 18.5 0.5t41 -12t40.5 -16t18 -12.5l-2 -38t-3 -39q30 -8 56.5 3.5t41.5 31.5q-18 12 -31 32t-18 47t0 60t22 70l87 -50q-25 -71 -22 -104.5t17.5 -38t32.5 16.5t23 60q5 -2 23.5 -7.5t38 -13.5t34.5 -17.5t13 -18.5
q-29 -120 -34 -208t17 -136.5t74 -53t139 42.5l9 -22q-104 -61 -178 -58.5t-117.5 52t-54.5 138.5t11 202q-28 -12 -55 -6q-9 -12 -22 -23.5t-29.5 -19t-37 -10t-42.5 4.5q-7 -90 -19.5 -180t-30.5 -175zM170 -60q-38 -12 -60.5 -28t-34 -32t-12.5 -30.5t5 -22.5t17 -8.5
t25.5 11.5t30 38.5t29.5 71.5z" />
    <glyph glyph-name="y_alt4" horiz-adv-x="800" 
d="M294 -35q47 -13 69.5 -41t25.5 -64t-11 -76.5t-41 -79t-64.5 -71t-80.5 -52t-89.5 -23.5t-91.5 16q-24 10 -47 28.5t-41.5 43t-31 55t-15.5 65.5q50 -56 104 -81t106.5 -27.5t100 14t85 43.5t61 60.5t28.5 66t-12 59t-61 40.5q-22 -74 -52 -115.5t-62 -58t-61.5 -12
t-50.5 22t-29.5 44t3 55t45.5 54.5t99 42q11 42 19.5 91.5t14.5 102.5q-27 -90 -59 -129.5t-61 -37t-52.5 42.5t-33.5 110.5t-4 166t36 208.5q34 -11 55.5 -19.5t34 -15.5t16.5 -12.5t3 -10.5q-18 -68 -27 -135.5t-10 -121t6 -85.5t21 -29q10 2 20.5 21.5t21 50.5t20 70
t17 81t12.5 83t7 77q0 5 19 0.5t41 -12.5t40.5 -16.5t18.5 -11.5q-2 -19 -2.5 -37.5t-2.5 -37.5q32 -12 60 0t44 32q-18 12 -31 32t-18 47.5t0 60.5t22 70l88 -51q-17 -47 -21 -77.5t0.5 -46t15 -18.5t21.5 5.5t21 27t13 44.5q6 -2 24.5 -8t38 -14t34 -17.5t12.5 -18.5
q-29 -120 -34 -208t17 -136.5t74 -53t139 42.5l9 -22q-104 -61 -178 -58.5t-117 52.5t-54.5 139t10.5 201q-26 -11 -54 -6q-9 -12 -23 -24t-31.5 -19.5t-38.5 -9t-45 7.5q-8 -95 -21.5 -191t-33.5 -185zM171 -60q-38 -12 -61 -28.5t-34.5 -33t-12 -31t6.5 -22.5
q6 -8 17.5 -7.5t25.5 13t29 39t29 70.5z" />
    <glyph glyph-name="F_swsh" horiz-adv-x="543" 
d="M431 638q-1 -6 -3 -30.5t-6 -61t-9 -81.5t-12 -92q42 -2 76 -4t50 -2q0 -10 -10 -16.5t-28 -10.5t-42.5 -6t-51.5 -2q-7 -45 -14.5 -87.5t-17.5 -75.5q-22 -79 -56 -122.5t-76.5 -51t-92.5 19.5t-104 89l2 8q27 -27 53.5 -44t51.5 -15t48.5 28t44.5 85q11 32 21.5 76
t19.5 93q-35 2 -62.5 3t-40.5 1q-1 18 31 25.5t79 9.5q8 50 15 98.5t12 88.5t8 67.5t4 36.5q-36 12 -69.5 23.5t-64.5 17t-58 2.5t-49 -19q-36 -27 -40.5 -66.5t19 -76t73.5 -63t122 -27.5q4 0 -1 -10.5t-18.5 -22.5t-34.5 -20t-48 -3q-44 8 -76.5 31.5t-51 55t-23 68.5
t6 71t37.5 62t72 43t95.5 13.5t102.5 -11t103.5 -23t99.5 -20.5q87 -14 180.5 -21t188 -5.5t187.5 11.5t178 30t159.5 51t133.5 75q5 -38 -5.5 -72t-28 -61t-37 -44.5t-31.5 -23.5q-16 -7 -41 -19.5t-69 -24.5t-114 -19.5t-177 -4.5t-257 20.5t-354 55.5z" />
    <glyph glyph-name="G_swsh" horiz-adv-x="558" 
d="M217 74q39 -18 68 -4.5t49 46t32.5 78.5t19.5 92.5t10 87.5t3 64q24 -5 45.5 -10t37.5 -10t25.5 -10t9.5 -10q-5 -106 -18.5 -215.5t-36.5 -214.5q124 11 248.5 1.5t250.5 -26.5t253.5 -35t256 -25t258.5 4t261 52q-68 -93 -142 -139.5t-154.5 -59.5t-168 0.5
t-182.5 40.5t-197 60.5t-213 60t-230.5 39t-247.5 -1.5q-21 -77 -51.5 -120t-62 -61t-62 -14t-51.5 21t-30 44t2 55.5t45.5 55t99.5 42.5q10 37 17.5 78.5t12.5 84.5q-14 -24 -31.5 -47.5t-39.5 -41.5t-48.5 -28t-57.5 -7q-53 5 -91.5 33.5t-63 73t-35 101t-8 117.5
t18.5 122.5t45 115.5q37 68 80.5 108.5t88 59t87 17.5t78.5 -16q50 -21 74.5 -52.5t27.5 -66t-13.5 -66t-49 -52t-79 -26t-102.5 14.5q47 2 81.5 18.5t57 40t33.5 51.5t10.5 52.5t-12 42t-33.5 21.5q-32 6 -64 -9t-60.5 -40t-50.5 -56.5t-34 -58.5q-14 -34 -26 -78
t-18.5 -92t-7 -95.5t8 -89t27 -72.5t49.5 -46zM336 -71q-42 -14 -66 -32.5t-34 -37t-7.5 -33t13.5 -18.5q7 -3 18.5 0.5t24 17.5t26 39t25.5 64z" />
    <glyph glyph-name="L_swsh" horiz-adv-x="418" 
d="M1499 -32q-11 -26 -23 -49t-27.5 -42.5t-37 -35t-50.5 -25.5q-77 -26 -176.5 -30.5t-209 6t-220.5 32.5t-210.5 50t-180.5 58t-129 56q-23 -54 -51.5 -82t-57.5 -36.5t-55.5 -1.5t-44 23t-23.5 38.5t5 44.5t43 40t90 26q15 53 28 117t23 131t18 134t13.5 126.5t8 107.5
t3.5 79q24 -5 46.5 -12t40 -14.5t28 -14.5t10.5 -12q-2 -40 -8 -94t-14.5 -114t-19 -123.5t-22.5 -123t-24 -112t-24 -91.5q102 -45 220 -75t239 -46t239.5 -19.5t223.5 5.5t190 29t139 50zM128 -6q-35 -4 -56.5 -13.5t-33 -21t-13 -22t4.5 -17.5q5 -6 15 -7t23.5 6.5t29 25
t30.5 49.5z" />
    <glyph glyph-name="Q_swsh" horiz-adv-x="591" 
d="M97 584q6 38 25.5 72t50 59t71 37.5t87.5 8.5q65 -7 112.5 -41t77.5 -85.5t42 -116t7 -132t-27 -132.5t-60.5 -118.5t-94.5 -90.5t-128 -47q193 -45 375.5 -77t349 -50t315.5 -21t274.5 10.5t225.5 44t169 80.5q-29 -102 -99 -159t-169.5 -79t-224.5 -16t-265 29
t-290 57.5t-299.5 68t-293.5 61t-273 37.5q24 24 50 37q-38 27 -61.5 76t-34 108t-9 121t13 115.5t33 92t50.5 50.5zM376 424q-17 -26 -45 -45t-59.5 -26.5t-63.5 -1.5t-56 30q-27 27 -41 63q-20 -71 -20 -143t17.5 -130t51.5 -94t83 -36q38 0 71 29t59 76t44.5 107.5
t27.5 124t7.5 124t-14 109t-38 78.5t-65.5 32q-36 2 -66 -15.5t-52 -45.5t-35 -63t-14.5 -69t9 -63.5t35.5 -46.5t65.5 -17.5t98.5 23.5z" />
    <glyph glyph-name="T_swsh" horiz-adv-x="500" 
d="M355 181q1 -64 14.5 -94t35.5 -37.5t51.5 2.5t63.5 25l0.5 -4.5t1 -9.5t1 -10.5t0.5 -6.5q-69 -38 -124.5 -44.5t-93 17t-56 77.5t-14.5 137q2 30 8 70t15.5 83.5t20.5 87t21.5 81.5t20 66.5t15.5 42.5q-37 12 -72.5 24.5t-68 19t-61 4t-51.5 -19.5q-24 -18 -34.5 -42
t-8 -49.5t17.5 -50.5t42 -45t65 -32.5t87 -13.5q4 0 -1.5 -10.5t-19.5 -22t-35 -20t-48 -3.5q-44 8 -75.5 31.5t-49.5 55t-22 68.5t8 71t39.5 62.5t72.5 43.5t94.5 13.5t100.5 -11.5t102 -23t99 -20q130 -21 274 -26t282 10t260.5 53t210.5 103q5 -38 -5.5 -72t-27.5 -61
t-36.5 -44.5t-32.5 -22.5q-17 -7 -41.5 -20t-68.5 -24.5t-113.5 -19.5t-176 -4.5t-256 20.5t-353.5 55q-3 -13 -10.5 -42t-16.5 -68t-18.5 -85.5t-17 -93t-12 -91t-3.5 -80.5z" />
    <glyph glyph-name="Y_swsh" horiz-adv-x="539" 
d="M215 69q26 -8 48 11t40.5 56.5t34 89.5t27.5 109t20.5 115.5t14 109t8.5 89t3 55.5q24 -5 45.5 -10t38 -10t26 -10t9.5 -10q-4 -75 -13.5 -165.5t-23 -185t-29.5 -186t-33 -166.5q122 9 246 -1t249 -27t251 -35t253.5 -24.5t256.5 5t259 52.5q-68 -93 -141.5 -139.5
t-153.5 -60t-167 -0.5t-180.5 39.5t-195 59.5t-211.5 60t-228 40.5t-245 1.5q-21 -77 -51 -120.5t-62 -61.5t-62.5 -14.5t-52 20.5t-30 44t2.5 55.5t45 55t99 42.5q5 18 11.5 50.5t12.5 68.5t11.5 70.5t8.5 55.5q-5 -29 -19 -65.5t-35 -68t-49 -51.5t-59 -17q-51 5 -79 37.5
t-39 79.5t-9.5 102t8 104t14 85t8.5 47q-46 33 -68.5 71t-27 74.5t6 67.5t30.5 50q25 23 61.5 33t70 8.5t58 -14.5t26.5 -37q1 -22 -2 -49t-9 -57.5t-12.5 -62.5t-11.5 -63q16 -5 30 -9q12 -4 24.5 -7t20.5 -5q-13 -20 -27.5 -28.5t-26.5 -10.5t-20.5 0t-10.5 3
q-7 -26 -13 -61t-10 -72t-5 -73t1.5 -66t10 -50t21.5 -24zM109 513q0 -1 3.5 17.5t7.5 42t8 43.5t4 21q9 38 4.5 57.5t-17.5 25t-30 -2.5t-33 -25q-14 -16 -19.5 -39.5t0 -48.5t23 -49.5t49.5 -41.5zM304 -80q-42 -14 -65.5 -32.5t-33.5 -36.5t-7.5 -32.5t12.5 -19.5
q8 -3 19 0.5t24 17.5t26 39t25 64z" />
    </font>
</defs>
</svg>
